<svg width="106" height="18" viewBox="0 0 106 18" fill="none" xmlns="http://www.w3.org/2000/svg">
<path d="M0.568817 17.2051L3.67459 9.87012H5.62137L8.72202 17.2051H6.55651L6.02268 15.9048H3.21185L2.69337 17.2051H0.568817ZM3.80683 14.3351H5.44362L4.6302 12.2626L3.80683 14.3351Z" fill="white"/>
<path d="M11.5107 17.2051V9.92102H14.949C16.007 9.92102 16.7962 10.1834 17.3172 10.7074C17.7464 11.14 17.9611 11.7192 17.9611 12.4445C17.9611 12.9774 17.8297 13.4299 17.5675 13.8025C17.3053 14.1745 16.9401 14.4593 16.4728 14.6568L18.2111 17.2051H15.8818L14.4128 14.9905H13.5283V17.2051H11.5107ZM13.5286 13.4208H14.8605C15.2026 13.4208 15.4688 13.3432 15.6586 13.188C15.8482 13.0331 15.9433 12.8186 15.9433 12.5446C15.9433 12.2678 15.8474 12.0566 15.656 11.9114C15.4646 11.7667 15.1961 11.6937 14.8503 11.6937H13.5286V13.4208L13.5286 13.4208Z" fill="white"/>
<path d="M20.6682 11.6939V9.92131H27.0623V11.6939H24.8715V17.2054H22.8539V11.6939H20.6682Z" fill="white"/>
<path d="M30.0241 17.2051V9.92102H33.4621C34.5201 9.92102 35.3099 10.1834 35.8309 10.7074C36.2604 11.14 36.4748 11.7192 36.4748 12.4445C36.4748 12.9774 36.3434 13.4299 36.0809 13.8025C35.8193 14.1745 35.4541 14.4593 34.9862 14.6568L36.7246 17.2051H34.3955L32.9265 14.9905H32.042V17.2051H30.0241H30.0241ZM32.042 13.4208H33.3739C33.7161 13.4208 33.9823 13.3432 34.172 13.188C34.3617 13.0331 34.4567 12.8186 34.4567 12.5446C34.4567 12.2678 34.3608 12.0566 34.1694 11.9114C33.978 11.7667 33.7095 11.6937 33.3637 11.6937H32.042V13.4208L32.042 13.4208Z" fill="white"/>
<path d="M39.3398 13.5657C39.3398 13.0505 39.4405 12.5599 39.6421 12.0944C39.8437 11.6283 40.1174 11.2258 40.4629 10.887C40.8085 10.548 41.2254 10.2788 41.7135 10.079C42.2015 9.87894 42.7217 9.7789 43.274 9.7789C43.8264 9.7789 44.3448 9.87809 44.8295 10.0765C45.3141 10.2746 45.7282 10.542 46.0707 10.8794C46.4137 11.2164 46.6841 11.618 46.8815 12.0841C47.0789 12.5497 47.1782 13.0436 47.1782 13.5657C47.1782 14.0801 47.0775 14.5707 46.8767 15.0379C46.6759 15.5052 46.4023 15.9073 46.0576 16.2461C45.7129 16.5846 45.2976 16.8532 44.8104 17.053C44.3241 17.2528 43.8047 17.3526 43.2541 17.3526C42.5186 17.3526 41.8511 17.184 41.2513 16.8472C40.6515 16.511 40.183 16.054 39.8457 15.4765C39.5084 14.8998 39.3398 14.2629 39.3398 13.5657L39.3398 13.5657ZM41.4086 13.5657C41.4086 14.1049 41.5849 14.5676 41.9373 14.9541C42.2897 15.3409 42.7353 15.5339 43.274 15.5339C43.8195 15.5339 44.2652 15.3426 44.6108 14.9615C44.9563 14.5801 45.1292 14.1148 45.1292 13.5655C45.1292 13.0263 44.9529 12.5636 44.6005 12.1771C44.2481 11.7906 43.799 11.5973 43.2536 11.5973C42.7149 11.5973 42.2726 11.7883 41.9268 12.1697C41.5815 12.5511 41.4086 13.0164 41.4086 13.5657Z" fill="white"/>
<path d="M50.0686 13.5657C50.0686 13.0405 50.1653 12.5449 50.3592 12.079C50.5532 11.6129 50.8183 11.2113 51.1539 10.8743C51.4895 10.5369 51.8951 10.2703 52.372 10.0739C52.849 9.87695 53.3589 9.7789 53.9013 9.7789C55.1991 9.7789 56.2192 10.2865 56.9613 11.3011L55.4821 12.4505C55.0313 11.8821 54.496 11.5976 53.8757 11.5976C53.3709 11.5976 52.9548 11.7869 52.6277 12.1657C52.3006 12.544 52.1371 13.011 52.1371 13.566C52.1371 14.1242 52.3006 14.592 52.6277 14.9689C52.9548 15.3466 53.3706 15.5345 53.8757 15.5345C54.2315 15.5345 54.5338 15.46 54.783 15.3111C55.0321 15.1622 55.2787 14.9385 55.5225 14.6406L57.0423 15.7303C56.7949 16.064 56.5332 16.345 56.2571 16.5718C55.9809 16.7987 55.6337 16.986 55.215 17.1332C54.7966 17.2795 54.3296 17.3531 53.8146 17.3531C53.1266 17.3531 52.4972 17.1914 51.9261 16.868C51.355 16.5454 50.9028 16.0932 50.5689 15.5126C50.2355 14.9319 50.0686 14.2831 50.0686 13.5657L50.0686 13.5657Z" fill="white"/>
<path d="M59.9982 17.2051V9.92102H62.0162V12.8774L64.5272 9.92102H66.9214L64.1612 13.055L67.0127 17.2051H64.5881L62.7582 14.5028L62.0161 15.3205V17.2051H59.9982H59.9982Z" fill="white"/>
<path d="M69.6798 17.2051V9.92102H75.5407V11.6379H71.6775V12.7401H75.1747V14.3351H71.6775V15.4882H75.5916V17.2051H69.6798H69.6798Z" fill="white"/>
<path d="M78.2983 11.6939V9.92131H84.6928V11.6939H82.5019V17.2054H80.484V11.6939H78.2983Z" fill="white"/>
<path d="M87.1048 16.1231L88.2334 14.7822C88.9629 15.3646 89.7515 15.6559 90.6005 15.6559C90.8673 15.6559 91.0715 15.611 91.214 15.5212C91.3553 15.4314 91.4267 15.302 91.4267 15.1327C91.4267 14.9769 91.3428 14.8499 91.1758 14.7518C91.0081 14.6535 90.6844 14.5486 90.2049 14.4369C89.9583 14.3792 89.7441 14.326 89.5618 14.2769C89.3798 14.2277 89.1864 14.166 88.9825 14.0916C88.7783 14.0171 88.6045 13.9392 88.4623 13.8579C88.3192 13.7767 88.1793 13.6786 88.0439 13.5632C87.9074 13.4481 87.7991 13.3236 87.7169 13.1898C87.6355 13.0559 87.5704 12.8993 87.5203 12.72C87.4711 12.5406 87.4467 12.3439 87.4467 12.1308C87.4467 11.4433 87.7026 10.8828 88.2143 10.4494C88.7251 10.016 89.4131 9.7991 90.2763 9.7991C91.4725 9.7991 92.4731 10.1208 93.2762 10.7643L92.262 12.1916C91.5817 11.7141 90.9022 11.4754 90.2253 11.4754C89.9881 11.4754 89.8075 11.5203 89.6824 11.6101C89.5578 11.6999 89.4953 11.8176 89.4953 11.9631C89.4953 12.1325 89.5792 12.2635 89.7461 12.3567C89.9139 12.4499 90.2492 12.5539 90.7526 12.669C91.1992 12.7674 91.5777 12.8748 91.8903 12.9916C92.2028 13.1084 92.4841 13.2548 92.7341 13.431C92.9841 13.6072 93.1696 13.8212 93.2916 14.0736C93.4144 14.326 93.4753 14.6213 93.4753 14.9601C93.4753 15.6951 93.2077 16.274 92.6713 16.6972C92.1349 17.1204 91.4199 17.3321 90.5245 17.3321C89.8664 17.3321 89.2419 17.2298 88.6514 17.0249C88.0604 16.82 87.5453 16.5196 87.1048 16.1231L87.1048 16.1231Z" fill="white"/>
<path d="M103.759 2.19971L95.092 4.09426L101.863 10.8599L103.759 2.19971Z" fill="#FF0000"/>
<path d="M105.43 0.529842L95.5659 2.68615L103.272 10.3869L105.43 0.529842Z" fill="white"/>
</svg>
