<?xml version="1.0" encoding="UTF-8"?>
<svg width="21px" height="21px" viewBox="0 0 21 21" version="1.1" xmlns="http://www.w3.org/2000/svg" xmlns:xlink="http://www.w3.org/1999/xlink">
    <title>fashion</title>
    <g id="Page-1" stroke="none" stroke-width="1" fill="none" fill-rule="evenodd">
        <g id="fashion" transform="translate(0.000000, 0.001221)" fill-rule="nonzero">
            <path d="M13.1788377,8.5019946 C13.9751345,8.48570212 14.7605117,8.56846597 15.5083644,8.72072325 C15.9895211,8.81868321 16.3769809,8.92809176 16.6435543,9.02058533 L16.6435543,9.02058533 L17.0208615,9.15362581 L16.4875964,18.2191327 L13.7067291,21.0000001 L9.79133339,21.0000001 L9.64465204,20.8521611 L9.48990864,20.6898221 L9.23966688,20.41009 C9.06380369,20.2067683 8.87121599,19.9703735 8.66998091,19.70447 C8.13392507,18.9961487 7.6601838,18.2369078 7.29271801,17.4441076 C6.2517321,15.1982009 6.21697862,13.0434849 7.59959372,11.1999981 C8.97428775,9.36709109 10.9245638,8.54811775 13.1788377,8.5019946 Z" id="Path" fill="#A6B1FB"></path>
            <path d="M20.9008223,7.55079006 L17.5137223,4.16372006 C17.4650223,4.11512006 17.4026223,4.08252006 17.3349223,4.07024006 L13.6091223,3.39283006 C13.4251223,3.35934006 13.2487223,3.48140006 13.2152223,3.66544006 C13.2116223,3.68534006 13.2098223,3.70554006 13.2098223,3.72577006 C13.2088223,3.83340006 13.1991223,3.94077006 13.1810223,4.04687006 L10.8388223,3.46158006 L10.8388223,3.35320006 C11.7552223,3.16615006 12.3465223,2.27158006 12.1594223,1.35516006 C11.9724223,0.438751056 11.0778223,-0.152504944 10.1614223,0.0345463556 C9.37304228,0.195474056 8.80677228,0.888892056 8.80660228,1.69353006 L9.48401228,1.69353006 C9.48401228,1.13234006 9.93894228,0.677412056 10.5001223,0.677412056 C11.0613223,0.677412056 11.5162223,1.13234006 11.5162223,1.69353006 C11.5162223,2.25473006 11.0613223,2.70965006 10.5001223,2.70965006 C10.3131223,2.70965006 10.1614223,2.86131006 10.1614223,3.04836006 L10.1614223,3.46124006 L7.81927228,4.04687006 C7.80110228,3.94077006 7.79145228,3.83340006 7.79048228,3.72577006 C7.79052228,3.62531006 7.74598228,3.53004006 7.66888228,3.46565006 C7.59221228,3.40036006 7.48996228,3.37356006 7.39114228,3.39283006 L3.66537228,4.07024006 C3.59762228,4.08252006 3.53526228,4.11512006 3.48653228,4.16372006 L0.0994607836,7.55079006 C-0.0327620164,7.68306006 -0.0327620164,7.89746006 0.0994607836,8.02972006 L2.80911228,10.7394001 C2.94138228,10.8716001 3.15578228,10.8716001 3.28805228,10.7394001 L4.06470228,9.96272006 L4.06470228,12.1934001 L1.69375228,12.1934001 C0.761252284,12.1907001 0.00314095358,12.9445001 0.00043129358,13.8770001 C-0.00113522642,14.4156001 0.254334284,14.9226001 0.688133284,15.2418001 C-0.0601126164,15.7885001 -0.223496716,16.8383001 0.323261284,17.5866001 C0.425339284,17.7263001 0.548417284,17.8493001 0.688133284,17.9514001 C-0.0629069164,18.5041001 -0.223707716,19.5610001 0.328977284,20.3121001 C0.648208284,20.7458001 1.15521228,21.0013001 1.69375228,20.9998066 L13.8872223,20.9998066 C13.9770223,20.9998066 14.0631223,20.9641001 14.1266223,20.9005001 L16.8363223,18.1909001 C16.8990223,18.1271001 16.9336223,18.0409001 16.9325223,17.9514001 L16.9355223,17.9514001 L16.9355223,9.96272006 L17.7122223,10.7394001 C17.8445223,10.8716001 18.0589223,10.8716001 18.1911223,10.7394001 L20.9008223,8.02972006 C21.0330223,7.89746006 21.0330223,7.68301006 20.9008223,7.55079006 Z M10.5001223,4.07464006 L12.9632223,4.69041006 C12.4527223,5.56059006 11.5086223,6.08339006 10.5001223,6.05439006 C9.49168228,6.08339006 8.54757228,5.56059006 8.03706228,4.69041006 L10.5001223,4.07464006 Z M0.677633284,13.8870001 C0.677633284,13.3258001 1.13256228,12.8709001 1.69375228,12.8709001 L9.14531228,12.8709001 C9.70650228,12.8709001 10.1614223,13.3258001 10.1614223,13.8870001 C10.1614223,14.4482001 9.70650228,14.9031001 9.14531228,14.9031001 L1.69375228,14.9031001 C1.13256228,14.9031001 0.677633284,14.4481001 0.677633284,13.8870001 Z M0.677633284,16.5966001 C0.677633284,16.0354001 1.13256228,15.5805001 1.69375228,15.5805001 L9.14531228,15.5805001 C9.70650228,15.5805001 10.1614223,16.0354001 10.1614223,16.5966001 C10.1614223,17.1578001 9.70650228,17.6128001 9.14531228,17.6128001 L1.69375228,17.6128001 C1.13256228,17.6128001 0.677633284,17.1578001 0.677633284,16.5966001 Z M9.14531228,20.3224001 L8.46789228,20.3224001 L1.69375228,20.3224001 C1.13256228,20.3224001 0.677633284,19.8675001 0.677633284,19.3063001 C0.677633284,18.7451001 1.13256228,18.2902001 1.69375228,18.2902001 L9.14531228,18.2902001 C9.70650228,18.2902001 10.1614223,18.7451001 10.1614223,19.3063001 C10.1614223,19.8675001 9.70650228,20.3224001 9.14531228,20.3224001 Z M14.2259223,19.8435001 L14.2259223,18.2902001 L15.7792223,18.2902001 L14.2259223,19.8435001 Z M17.9517223,10.0210001 L15.8202223,7.88950006 L15.3413223,8.36843006 L16.2581223,9.28531006 L16.2581223,17.6128001 L13.8872223,17.6128001 C13.7001223,17.6128001 13.5485223,17.7644001 13.5485223,17.9515001 L13.5485223,20.3224001 L10.4913223,20.3224001 C11.0550223,19.5921001 10.9200223,18.5431001 10.1897223,17.9793001 C10.1775223,17.9698001 10.1651223,17.9606001 10.1526223,17.9515001 C10.9008223,17.4048001 11.0642223,16.3550001 10.5175223,15.6067001 C10.4154223,15.4670001 10.2924223,15.3439001 10.1526223,15.2418001 C10.9037223,14.6891001 11.0645223,13.6322001 10.5118223,12.8812001 C10.1922223,12.4469001 9.68444228,12.1914001 9.14531228,12.1934001 L4.74211228,12.1934001 L4.74211228,9.28531006 L5.65899228,8.36843006 L5.18006228,7.88950006 L3.04858228,10.0210001 L0.817858284,7.79026006 L3.89061228,4.71751006 L7.14219228,4.12647006 C7.36371228,5.59510006 8.78492228,6.73180006 10.4994223,6.73180006 C12.2140223,6.73180006 13.6352223,5.59510006 13.8567223,4.12647006 L17.1083223,4.71751006 L20.1824223,7.79026006 L17.9517223,10.0210001 Z" id="Shape" fill="#000000"></path>
            <polygon id="Path" fill="#000000" points="9.48419228 13.5483001 1.35522228 13.5483001 1.35522228 14.2258001 9.48419228 14.2258001"></polygon>
            <polygon id="Path" fill="#000000" points="9.14548228 16.2578001 1.35522228 16.2578001 1.35522228 16.9352001 9.14548228 16.9352001"></polygon>
            <polygon id="Path" fill="#000000" points="9.14548228 18.9675001 1.35522228 18.9675001 1.35522228 19.6449001 9.14548228 19.6449001"></polygon>
        </g>
    </g>
</svg>