<?xml version="1.0" encoding="UTF-8"?>
<svg width="21px" height="21px" viewBox="0 0 21 21" version="1.1" xmlns="http://www.w3.org/2000/svg" xmlns:xlink="http://www.w3.org/1999/xlink">
    <title>gift-box</title>
    <g id="Page-1" stroke="none" stroke-width="1" fill="none" fill-rule="evenodd">
        <g id="gift-box" transform="translate(0.740234, 0.000488)" fill-rule="nonzero">
            <path d="M8.455278,4.76174228 C8.564988,4.76174228 8.668408,4.70995228 8.733958,4.62198228 C8.799688,4.53400228 8.820068,4.42039228 8.788818,4.31510228 C8.539508,3.46375228 8.108658,2.67660228 7.525638,2.00816228 C7.055898,1.50835228 6.356718,1.29437228 5.687758,1.44569228 C5.595378,1.48101228 5.522518,1.55404228 5.487198,1.64642228 C5.468008,1.69839228 5.453738,1.75206228 5.444738,1.80674228 C5.434038,1.87162228 5.428268,1.93717228 5.427248,2.00289228 L5.427248,2.00850228 C5.431488,2.56315228 5.654988,3.09370228 6.049158,3.48413228 C6.717598,4.06664228 7.504238,4.49732228 8.355078,4.74646228 C8.387688,4.75614228 8.421308,4.76140228 8.455278,4.76174228 Z M6.542338,2.99163228 C6.404268,2.85339228 6.295918,2.68815228 6.223738,2.50643228 L6.223738,2.50303228 C6.208458,2.46448228 6.195208,2.42576228 6.183828,2.38857228 C6.177888,2.36836228 6.173638,2.34934228 6.168548,2.32947228 C6.163278,2.30960228 6.158698,2.29466228 6.155298,2.27733228 C6.151728,2.25984228 6.151048,2.25288228 6.148678,2.24048228 C6.138488,2.18851228 6.131348,2.13604228 6.127448,2.08322228 C6.470498,2.10920228 6.792658,2.25729228 7.035858,2.50066228 C7.381628,2.89160228 7.660308,3.33706228 7.860538,3.81920228 C7.377888,3.61829228 6.931748,3.33859228 6.540638,2.99163228 L6.542338,2.99163228 Z" id="Shape" fill="#000000"></path>
            <path d="M2.259888,21.0007323 L1.259888,19.4490323 L1.259888,8.90691228 L0.259888,8.58694228 L0.259888,6.00073228 C0.259888,6.00073228 6.759888,7.55245228 9.759888,10.6559323 C12.759888,13.7593323 13.259888,21.0007323 13.259888,21.0007323 L2.259888,21.0007323 Z" id="Path" fill="#A6B1FB"></path>
            <path d="M19.129388,5.00094228 L13.760588,5.00094228 C13.992788,4.84232228 14.210888,4.66383228 14.412088,4.46768228 C15.656288,3.21979228 15.696988,1.32774228 14.902188,0.532947284 C14.107388,-0.261846716 12.216088,-0.221767716 10.966788,1.02375228 C10.455988,1.57976228 10.040888,2.21662228 9.738588,2.90849228 C9.436288,2.21611228 9.020908,1.57891228 8.509558,1.02273228 C7.261668,-0.221427716 5.369778,-0.262186716 4.574818,0.532607284 C3.779688,1.32740228 3.820788,3.21945228 5.065108,4.46768228 C5.266528,4.66383228 5.484588,4.84232228 5.716568,5.00094228 L0.347808,5.00094228 C0.155732,5.00094228 0,5.15667228 0,5.34875228 L0,8.82682228 C0,9.01890228 0.155732,9.17463228 0.347808,9.17463228 L1.043418,9.17463228 L1.043418,19.2610323 C1.044608,20.2209323 1.822588,20.9989323 2.782458,21.0000323 L16.694788,21.0000323 C17.654788,20.9989323 18.432788,20.2209323 18.433788,19.2610323 L18.433788,9.17463228 L19.129388,9.17463228 C19.321488,9.17463228 19.477188,9.01890228 19.477188,8.82682228 L19.477188,5.34875228 C19.477188,5.15667228 19.321488,5.00094228 19.129388,5.00094228 Z M11.458988,1.51523228 C12.458588,0.518681284 13.916488,0.530229284 14.410688,1.02443228 C14.904888,1.51862228 14.916788,2.97592228 13.920288,3.97586228 C13.463988,4.39771228 12.942888,4.74365228 12.377088,5.00094228 L10.298688,5.00094228 C10.298688,4.99364228 10.298688,4.98566228 10.298688,4.97835228 C10.298688,4.89905228 10.292788,4.81872228 10.285088,4.73788228 C10.282188,4.71122228 10.279188,4.68472228 10.276088,4.65755228 C10.268088,4.59081228 10.258288,4.52424228 10.246388,4.45800228 C10.242688,4.43474228 10.238788,4.41130228 10.234688,4.38837228 C10.217988,4.30176228 10.199888,4.21651228 10.178988,4.13414228 C10.176288,4.12225228 10.172988,4.11189228 10.170288,4.09933228 C10.151788,4.02732228 10.132788,3.96024228 10.113288,3.89078228 C10.110488,3.88127228 10.107988,3.87091228 10.105288,3.86140228 C10.390188,2.99460228 10.851188,2.19573228 11.458988,1.51523228 Z M11.129788,8.47901228 L8.347368,8.47901228 L8.347368,5.69656228 L11.129788,5.69656228 L11.129788,8.47901228 Z M5.557268,3.97620228 C4.560558,2.97626228 4.572268,1.51896228 5.066638,1.02443228 C5.560838,0.529890284 7.018128,0.518341284 8.017398,1.51421228 C8.650178,2.22307228 9.124508,3.05896228 9.408588,3.96584228 C9.447888,4.08795228 9.478088,4.20513228 9.506588,4.31891228 C9.514588,4.35152228 9.521188,4.38311228 9.528188,4.41521228 C9.546988,4.50012228 9.562188,4.58113228 9.573488,4.65874228 C9.577288,4.68506228 9.582188,4.71223228 9.585288,4.73788228 C9.596288,4.82466228 9.602188,4.91212228 9.603088,4.99958228 L7.100158,4.99958228 C6.534628,4.74280228 6.013768,4.39737228 5.557268,3.97620228 Z M0.695618,5.69656228 L7.651758,5.69656228 L7.651758,8.47901228 L0.695618,8.47901228 L0.695618,5.69656228 Z M1.739038,19.2610323 L1.739038,9.17463228 L8.347368,9.17463228 L8.347368,20.3044323 L2.782458,20.3044323 C2.206228,20.3044323 1.739038,19.8372323 1.739038,19.2610323 Z M9.042988,20.3044323 L9.042988,9.17463228 L10.434188,9.17463228 L10.434188,20.3044323 L9.042988,20.3044323 Z M17.738188,19.2610323 C17.738188,19.8372323 17.271088,20.3044323 16.694788,20.3044323 L11.129788,20.3044323 L11.129788,9.17463228 L17.738188,9.17463228 L17.738188,19.2610323 Z M18.781588,8.47901228 L11.825488,8.47901228 L11.825488,5.69656228 L18.781588,5.69656228 L18.781588,8.47901228 Z" id="Shape" fill="#000000"></path>
            <path d="M11.021088,4.76265228 C11.054488,4.76265228 11.087788,4.75790228 11.119888,4.74839228 C11.971788,4.49942228 12.759188,4.06789228 13.427488,3.48368228 C13.922388,3.01037228 14.135688,2.31408228 13.990988,1.64479228 C13.955988,1.55274228 13.883188,1.48006228 13.791088,1.44490228 C13.121788,1.30021228 12.425488,1.51351228 11.952188,2.00839228 C11.368188,2.67666228 10.936688,3.46415228 10.687488,4.31601228 C10.656388,4.42130228 10.676688,4.53509228 10.742388,4.62289228 C10.808088,4.71086228 10.911388,4.76265228 11.021088,4.76265228 Z M12.443988,2.50021228 C12.687588,2.25702228 13.010088,2.10910228 13.353088,2.08277228 C13.327088,2.42600228 13.178988,2.74867228 12.935888,2.99220228 C12.544588,3.34035228 12.097788,3.62056228 11.614088,3.82147228 C11.815188,3.33780228 12.095688,2.89132228 12.443988,2.50021228 Z" id="Shape" fill="#000000"></path>
        </g>
    </g>
</svg>