<?xml version="1.0" encoding="UTF-8"?>
<svg width="21px" height="21px" viewBox="0 0 21 21" version="1.1" xmlns="http://www.w3.org/2000/svg" xmlns:xlink="http://www.w3.org/1999/xlink">
    <title>school-material</title>
    <g id="Page-1" stroke="none" stroke-width="1" fill="none" fill-rule="evenodd">
        <g id="school-material" transform="translate(0.000244, 0.001221)" fill-rule="nonzero">
            <path d="M0.49999993,19.5 L0.49999993,6.5 C0.49999993,6.5 5.99999993,8 8.99999993,11 C11.9999779,14 12.4999779,21 12.4999779,21 L1.49999993,21 L0.49999993,19.5 Z" id="Path" fill="#A6B1FB"></path>
            <path d="M12.2495779,0 L7.34961793,0 C6.38468793,0 5.59960793,0.785039 5.59960793,1.75001 L5.59960793,14.35 C5.59960793,14.5432 5.75603793,14.7 5.94959793,14.7 L8.04959793,14.7 C8.24314793,14.7 8.39957793,14.5432 8.39957793,14.35 C8.39957793,14.1568 8.24314793,14 8.04959793,14 L6.29957793,14 L6.29957793,13.3 L6.64956793,13.3 C6.84311793,13.3 6.99955793,13.1432 6.99955793,12.95 C6.99955793,12.7568 6.84311793,12.6 6.64956793,12.6 L6.29957793,12.6 L6.29957793,11.9 L6.64956793,11.9 C6.84311793,11.9 6.99955793,11.7432 6.99955793,11.55 C6.99955793,11.3569 6.84311793,11.2001 6.64956793,11.2001 L6.29957793,11.2001 L6.29957793,10.5 L6.64956793,10.5 C6.84311793,10.5 6.99955793,10.3432 6.99955793,10.15 C6.99955793,9.95683 6.84311793,9.80003 6.64956793,9.80003 L6.29957793,9.80003 L6.29957793,9.10001 L8.04959793,9.10001 C8.24314793,9.10001 8.39957793,8.94321 8.39957793,8.75003 C8.39957793,8.55684 8.24314793,8.40004 8.04959793,8.40004 L6.29957793,8.40004 L6.29957793,7.70003 L6.64956793,7.70003 C6.84311793,7.70003 6.99955793,7.54322 6.99955793,7.35004 C6.99955793,7.15686 6.84311793,7.00005 6.64956793,7.00005 L6.29957793,7.00005 L6.29957793,6.3 L6.64956793,6.3 C6.84311793,6.3 6.99955793,6.1432 6.99955793,5.95001 C6.99955793,5.75683 6.84311793,5.60003 6.64956793,5.60003 L6.29957793,5.60003 L6.29957793,4.90001 L6.64956793,4.90001 C6.84311793,4.90001 6.99955793,4.74321 6.99955793,4.55003 C6.99955793,4.35684 6.84311793,4.20004 6.64956793,4.20004 L6.29957793,4.20004 L6.29957793,3.49999 L8.04959793,3.49999 C8.24314793,3.49999 8.39957793,3.34318 8.39957793,3.15 C8.39957793,2.95682 8.24314793,2.80001 8.04959793,2.80001 L6.29957793,2.80001 L6.29957793,1.75001 C6.29957793,1.17112 6.77068793,0.700014 7.34957793,0.700014 L12.2495779,0.700014 C12.8284779,0.700014 13.2995779,1.17112 13.2995779,1.75001 L13.2995779,19.25 C13.2995779,19.8289 12.8284779,20.3 12.2495779,20.3 L7.34961793,20.3 C6.77072793,20.3 6.29961793,19.8289 6.29961793,19.25 L6.29961793,15.75 C6.29961793,15.5568 6.14318793,15.4 5.94963793,15.4 C5.75608793,15.4 5.59960793,15.5568 5.59960793,15.75 L5.59960793,19.25 C5.59960793,20.2149 6.38468793,21 7.34966793,21 L12.2496779,21 C13.2145779,21 13.9996779,20.215 13.9996779,19.25 L13.9996779,1.75001 C13.9995779,0.785039 13.2145779,0 12.2495779,0 Z" id="Path" fill="#000000"></path>
            <path d="M1.40002793,4.54969 L1.40002793,17.1497 C1.40002793,17.3429 1.55645793,17.4997 1.75001293,17.4997 C1.94356793,17.4997 2.09999793,17.3429 2.09999793,17.1497 L2.09999793,4.54969 C2.09999793,4.35651 1.94356793,4.19971 1.75001293,4.19971 C1.55645793,4.19971 1.40002793,4.35647 1.40002793,4.54969 Z" id="Path" fill="#000000"></path>
            <path d="M2.06291793,0.193124 C1.94426793,-0.0441924 1.55576793,-0.0441924 1.43677793,0.193124 L0.03675003,2.99314 C0.01259183,3.04145 2.22044605e-16,3.09535 2.22044605e-16,3.14957 L2.22044605e-16,19.2496 C2.22044605e-16,20.2145 0.78503893,20.9996 1.75001793,20.9996 C2.71494793,20.9996 3.50002793,20.2145 3.50002793,19.2496 L3.50002793,18.5495 C3.50002793,18.3564 3.34359793,18.1996 3.15003793,18.1996 L1.75001793,18.1996 C1.55645793,18.1996 1.40002793,18.3564 1.40002793,18.5495 C1.40002793,18.7427 1.55645793,18.8995 1.75001793,18.8995 L2.80001793,18.8995 L2.80001793,19.2495 C2.80001793,19.8284 2.32890793,20.2995 1.75001793,20.2995 C1.17111793,20.2995 0.70001393,19.8284 0.70001393,19.2495 L0.70001393,3.23218 L1.75001793,1.13218 L2.58369793,2.79959 L1.75001793,2.79959 C1.55645793,2.79959 1.40002793,2.95639 1.40002793,3.14957 C1.40002793,3.34276 1.55645793,3.49956 1.75001793,3.49956 L2.80001793,3.49956 L2.80001793,17.1496 C2.80001793,17.3427 2.95644793,17.4995 3.14999793,17.4995 C3.34354793,17.4995 3.49998793,17.3427 3.49998793,17.1496 L3.49998793,3.15031 L3.49998793,3.14399 C3.49891793,3.08731 3.48460793,3.03374 3.46007793,2.98686 L2.06291793,0.193124 Z" id="Path" fill="#000000"></path>
            <path d="M11.1996779,17.5001 C11.1996779,16.728 10.5716779,16.1001 9.79964793,16.1001 C9.02756793,16.1001 8.39965793,16.728 8.39965793,17.5001 C8.39965793,18.2722 9.02756793,18.9001 9.79964793,18.9001 C10.5716779,18.9001 11.1996779,18.2722 11.1996779,17.5001 Z M9.09962793,17.5001 C9.09962793,17.114 9.41356793,16.8001 9.79964793,16.8001 C10.1853779,16.8001 10.4996779,17.114 10.4996779,17.5001 C10.4996779,17.8862 10.1853779,18.2001 9.79964793,18.2001 C9.41360793,18.2001 9.09962793,17.8861 9.09962793,17.5001 Z" id="Shape" fill="#000000"></path>
            <path d="M17.8495779,16.8001 C17.6560779,16.8001 17.4996779,16.9569 17.4996779,17.1501 C17.4996779,17.3432 17.6560779,17.5 17.8495779,17.5 L20.6496779,17.5 C20.8431779,17.5 20.9995779,17.3432 20.9995779,17.1501 L20.9995779,15.0501 C20.9995779,14.0851 20.2145779,13.3 19.2495779,13.3 L17.8495779,13.3 C16.8846779,13.3 16.0995779,14.0851 16.0995779,15.0501 L16.0995779,19.2501 C16.0995779,20.215 16.8846779,21.0001 17.8495779,21.0001 L19.2495779,21.0001 C20.2145779,21.0001 20.9995779,20.215 20.9995779,19.2501 L20.9995779,18.55 C20.9995779,18.3569 20.8431779,18.2001 20.6496779,18.2001 C20.4560779,18.2001 20.2996779,18.3569 20.2996779,18.55 L20.2996779,19.2501 C20.2996779,19.829 19.8285779,20.3001 19.2496779,20.3001 L17.8496779,20.3001 C17.2707779,20.3001 16.7996779,19.829 16.7996779,19.2501 L16.7996779,15.0501 C16.7996779,14.4712 17.2707779,14.0001 17.8496779,14.0001 L19.2496779,14.0001 C19.8285779,14.0001 20.2996779,14.4712 20.2996779,15.0501 L20.2996779,16.8001 L17.8495779,16.8001 Z" id="Path" fill="#000000"></path>
        </g>
    </g>
</svg>