<?xml version="1.0" encoding="UTF-8"?>
<svg width="21px" height="21px" viewBox="0 0 21 21" version="1.1" xmlns="http://www.w3.org/2000/svg" xmlns:xlink="http://www.w3.org/1999/xlink">
    <title>syringe</title>
    <g id="Page-1" stroke="none" stroke-width="1" fill="none" fill-rule="evenodd">
        <g id="syringe" transform="translate(0.000244, 0.001709)" fill-rule="nonzero">
            <path d="M7.8895678,11.9499115 C7.7296078,11.7895115 7.4695678,11.7895115 7.3096078,11.9499115 C7.1492378,12.1098115 7.1492378,12.3694115 7.3096078,12.5298115 C7.4695678,12.6898115 7.7296078,12.6898115 7.8895678,12.5298115 C8.0499378,12.3694115 8.0499378,12.1098115 7.8895678,11.9499115 Z" id="Path" fill="#000000"></path>
            <path d="M7.89693602,6.93249899 C9.64168924,5.51595864 11.5995355,5.17003737 13.606948,5.63588231 C14.3563041,5.80977967 15.0679049,6.08804699 15.72701,6.43413397 C16.1622176,6.66265545 16.5122955,6.88657587 16.7651462,7.07336465 L16.7651462,7.07336465 L17.2607792,7.44604907 L9.85355237,14.8531637 L9.68570402,14.9638455 L6.80922302,16.1145161 L6.52405398,15.6834747 C6.3771979,15.4471937 6.18637421,15.0856189 5.99710825,14.6220107 C5.28047378,12.8666099 5.15220058,11.0096443 6.00229424,9.25649624 C6.37457954,8.48873231 6.92677311,7.77417211 7.67058069,7.1233586 L7.67058069,7.1233586 Z" id="Path" fill="#A6B1FB"></path>
            <path d="M20.6393778,2.68072149 L18.3186778,0.360224491 C17.8437778,-0.113669509 17.0673778,-0.126548509 16.5791778,0.360552491 C16.0982778,0.841420491 16.0982778,1.61957149 16.5791778,2.10052149 L16.8691778,2.39050149 L14.8999778,4.35990149 C14.7655778,4.22550149 13.5810778,3.04092149 13.4497778,2.90963149 C13.2895778,2.74955149 13.0298778,2.74951149 12.8697778,2.90963149 C12.7095778,3.06980149 12.7095778,3.32951149 12.8697778,3.48972149 L13.1596778,3.77966149 C13.0130778,3.92620149 6.1806378,10.7591115 5.6638378,11.2759115 C4.9723178,11.9674115 4.7075978,12.9180115 4.8680078,13.8121115 L4.1195978,14.5605115 C3.6399178,15.0402115 3.6399178,15.8206115 4.1195578,16.3004115 L0.1201248,20.2997115 C-0.0400416,20.4599115 -0.0400416,20.7196115 0.1201248,20.8798115 C0.2803318,21.0400115 0.5400018,21.0400115 0.7002088,20.8798115 L4.6995578,16.8804115 C5.1792378,17.3601115 5.9597678,17.3601115 6.4394878,16.8804115 L7.1880178,16.1319115 C8.1207178,16.2984115 9.0685078,15.9917115 9.7239378,15.3362115 C11.3458778,13.7143115 15.5709778,9.48948149 17.2202778,7.84024149 L17.5101778,8.13018149 C17.6703778,8.29035149 17.9300778,8.29035149 18.0902778,8.13018149 C18.2503778,7.97002149 18.2504778,7.71031149 18.0902778,7.55010149 C17.9589778,7.41881149 16.7755778,6.23538149 16.6399778,6.09983149 L18.6094778,4.13075149 L18.8989778,4.42032149 C19.3797778,4.90233149 20.1599778,4.90135149 20.6393778,4.42073149 C21.1201778,3.93990149 21.1202778,3.16171149 20.6393778,2.68072149 Z M5.8594378,16.3003115 C5.6995578,16.4602115 5.4393978,16.4602115 5.2795578,16.3003115 C4.5726578,15.5934115 4.7446378,15.7653115 4.6995978,15.7203115 C4.5396778,15.5605115 4.5396778,15.3004115 4.6995578,15.1405115 L5.1686578,14.6714115 C5.2926878,14.9005115 5.4480978,15.1118115 5.6285678,15.2987115 C5.8327778,15.5103115 6.0691178,15.6908115 6.3284978,15.8312115 L5.8594378,16.3003115 Z M11.0799778,12.8202115 L10.7899778,12.5302115 C10.6297778,12.3701115 10.3700778,12.3701115 10.2098778,12.5302115 C10.0497778,12.6904115 10.0497778,12.9501115 10.2098778,13.1103115 L10.4998778,13.4002115 L9.9199078,13.9802115 L9.0495978,13.1101115 C8.8894278,12.9500115 8.6297178,12.9500115 8.4695578,13.1102115 C8.3093878,13.2704115 8.3094678,13.5301115 8.4696378,13.6903115 L9.3398178,14.5602115 L9.1438478,14.7561115 C8.3371178,15.5629115 7.0137878,15.5593115 6.2134878,14.7246115 C5.4542078,13.9327115 5.4410778,12.6587115 6.2438378,11.8560115 L8.7596978,9.33982149 L11.6600778,12.2401115 L11.0799778,12.8202115 Z M16.6401778,7.26016149 L15.7203778,8.17989149 L14.8499778,7.30975149 C14.6897778,7.14962149 14.4300778,7.14966149 14.2699778,7.30983149 C14.1097778,7.47004149 14.1098778,7.72975149 14.2699778,7.88991149 L15.1403778,8.75994149 L14.5600778,9.34014149 L14.2699778,9.05008149 C14.1097778,8.89000149 13.8501778,8.88996149 13.6899778,9.05008149 C13.5297778,9.21025149 13.5297778,9.46996149 13.6899778,9.63017149 L13.9799778,9.92023149 L13.4000778,10.5001115 L12.5301778,9.63008149 C12.3699778,9.46996149 12.1102778,9.46996149 11.9500778,9.63008149 C11.7899778,9.79025149 11.7899778,10.0500115 11.9500778,10.2102115 L12.8200778,11.0801115 L12.2399778,11.6601115 L9.3396178,8.75985149 L13.7396778,4.35978149 L16.6401778,7.26016149 Z M16.0599778,5.51983149 L15.4799778,4.93991149 L17.4491778,2.97050149 L18.0293778,3.55075149 L16.0599778,5.51983149 Z M20.0588778,3.84101149 C19.9016778,3.99868149 19.6416778,4.00323149 19.4794778,3.84060149 C19.2824778,3.64365149 17.4714778,1.83264149 17.1591778,1.52035149 C16.9983778,1.35961149 16.9994778,1.10027149 17.1587778,0.940923491 C17.3207778,0.779322491 17.5789778,0.780880491 17.7390778,0.940554491 L20.0592778,3.26077149 C20.2186778,3.42011149 20.2205778,3.67929149 20.0588778,3.84101149 Z" id="Shape" fill="#000000"></path>
        </g>
    </g>
</svg>