<?xml version="1.0" encoding="UTF-8"?>
<svg width="21px" height="21px" viewBox="0 0 21 21" version="1.1" xmlns="http://www.w3.org/2000/svg" xmlns:xlink="http://www.w3.org/1999/xlink">
    <title>tyre</title>
    <g id="Page-1" stroke="none" stroke-width="1" fill="none" fill-rule="evenodd">
        <g id="tyre" transform="translate(0.005248, 0.001221)" fill-rule="nonzero">
            <path d="M2.82651925,3.28683811 L3.27222398,3.58397459 L4.27142555,4.27485085 L5.20354622,4.94664845 C5.89524809,5.45450904 6.5785271,5.97787106 7.22784034,6.50350558 C7.80610648,6.97162579 8.33814071,7.42632171 8.81432898,7.86282763 C9.79350804,8.76040844 10.5122836,9.55719068 10.9236203,10.2427519 C11.4922873,11.1905302 11.9470302,12.7310156 12.3178837,14.721263 C12.5318634,15.8696207 12.7041881,17.0972436 12.8388537,18.3244787 L12.8388537,18.3244787 L12.903524,18.9441704 L12.967019,19.6324225 L13.0318621,20.4999997 L12.4948739,20.4999997 L9.89681581,20.4902901 L7.39681581,19.9902901 L7.27126708,19.9472133 L5.27126708,18.9472133 L5.18252635,18.8904341 L2.68252635,16.8904341 L2.59487388,16.7999997 L1.01801495,14.6975212 L0.494873878,10.9999997 L0.494873878,7.36721752 L2.82651925,3.28683811 Z" id="Path" fill="#A6B1FB"></path>
            <path d="M13.2143739,0.35816374 C9.11315388,-0.74065926 4.75390388,0.73906674 2.16926388,4.10761974 C-0.415371122,7.47599974 -0.716506122,12.0697997 1.40649388,15.7467997 C2.79268388,18.1627997 5.08771388,19.9238997 7.78015388,20.6377997 C8.67186388,20.8774997 9.59096388,20.9991997 10.5143739,21 C14.2620739,20.9924997 17.7217739,18.9882997 19.5926739,15.7408997 C21.4633739,12.4933997 21.4615739,8.49505974 19.5879739,5.24936974 C18.2018739,2.83323974 15.9067739,1.07207974 13.2143739,0.35816374 Z M19.9610739,13.0338997 C18.9352739,16.8614997 15.7049739,19.6941997 11.7760739,20.2115997 C7.84742388,20.7287997 3.99385388,18.8284997 2.01245388,15.3967997 C0.266027878,12.3671997 0.265546878,8.63681974 2.01085388,5.60671974 C3.75631388,2.57662974 6.98358388,0.70558974 10.4804739,0.69613974 C11.3421739,0.69677974 12.2000739,0.81050674 13.0323739,1.03427974 C15.5423739,1.70669974 17.6823739,3.34868974 18.9817739,5.59902974 C20.2810739,7.84953974 20.6331739,10.5238997 19.9605739,13.0338997 L19.9610739,13.0338997 Z" id="Shape" fill="#000000"></path>
            <path d="M6.29605388,3.22634974 C6.56836388,3.07161974 6.84867388,2.93146974 7.13587388,2.80636974 C7.25056388,2.75638974 7.32985388,2.64906974 7.34378388,2.52476974 C7.35788388,2.40046974 7.30438388,2.27809974 7.20378388,2.20393974 C7.10319388,2.12960974 6.97057388,2.11471974 6.85604388,2.16468974 C6.54561388,2.30003974 6.24272388,2.45156974 5.94831388,2.61879974 C4.23696388,3.59828974 2.89435388,5.11244974 2.12693388,6.92870974 C2.05133388,7.10666974 2.13446388,7.31217974 2.31242388,7.38761974 C2.49054388,7.46306974 2.69589388,7.38009974 2.77133388,7.20197974 C3.47916388,5.52650974 4.71750388,4.12975974 6.29605388,3.22634974 Z" id="Path" fill="#000000"></path>
            <path d="M18.6820739,13.6084997 C18.5966739,13.5720997 18.5002739,13.5712997 18.4140739,13.6059997 C18.3280739,13.6407997 18.2591739,13.7083997 18.2229739,13.7938997 C17.5146739,15.4698997 16.2756739,16.8669997 14.6961739,17.7703997 C14.1454739,18.0860997 13.5614739,18.3395997 12.9546739,18.5263997 C12.7889739,18.5772997 12.6852739,18.7419997 12.7113739,18.9135997 C12.7373739,19.0848997 12.8851739,19.2114997 13.0586739,19.2108208 C13.0934739,19.2111997 13.1281739,19.2058997 13.1614739,19.1954997 C13.8178739,18.9929997 14.4499739,18.7185997 15.0461739,18.3770997 C16.7574739,17.3975997 18.0999739,15.8834997 18.8675739,14.0671997 C18.9429739,13.8891997 18.8599739,13.6838997 18.6820739,13.6084997 Z" id="Path" fill="#000000"></path>
            <path d="M14.6671739,15.6661997 C14.6719739,15.6628997 14.6775739,15.6625997 14.6825739,15.6595997 C14.6906739,15.6518997 14.6983739,15.6438997 14.7055739,15.6353997 C16.5210739,14.1436997 17.4161739,11.8058997 17.0611739,9.48310974 C17.0611739,9.47893974 17.0587739,9.47541974 17.0587739,9.47157974 C16.8152739,7.85537974 15.9756739,6.38877974 14.7052739,5.36043974 C14.6964739,5.35306974 14.6916739,5.34297974 14.6822739,5.33624974 C14.6783739,5.33384974 14.6737739,5.33352974 14.6698739,5.33112974 C12.8286739,3.84867974 10.3394739,3.45351974 8.12965388,4.29284974 C8.12613388,4.29460974 8.12228388,4.29284974 8.11844388,4.29572974 L8.11395388,4.29925974 C7.46379388,4.53823974 6.85944388,4.88678974 6.32684388,5.32968974 C6.32204388,5.33288974 6.31643388,5.33320974 6.31147388,5.33624974 C6.30346388,5.34393974 6.29561388,5.35194974 6.28840388,5.36043974 C4.47310388,6.85217974 3.57818388,9.19013974 3.93314388,11.5126997 C3.93314388,11.5168997 3.93554388,11.5203997 3.93554388,11.5242997 C4.28505388,13.8791997 5.87370388,15.8642997 8.09473388,16.7215997 C10.3157739,17.5786997 12.8260739,17.1756997 14.6671739,15.6661997 Z M11.8806739,12.1200997 C11.8709739,12.1255997 11.8613739,12.1314997 11.8520739,12.1378997 L11.5532739,12.3129997 L10.9415739,12.6662997 C10.8467739,12.7226997 10.7845739,12.8210997 10.7743739,12.9308997 C10.5468739,12.9547997 10.3170739,12.9472997 10.0916739,12.9084997 C10.0407739,12.7386997 9.92733388,12.5946997 9.77436388,12.5053997 L9.12067388,12.1277997 C8.96594388,12.0396997 8.78350388,12.0137997 8.61050388,12.0553997 C8.52273388,11.9515997 8.44392388,11.8404997 8.37504388,11.7233997 C8.30873388,11.6062997 8.25251388,11.4835997 8.20702388,11.3569997 C8.33003388,11.2270997 8.39843388,11.0547997 8.39779388,10.8758997 L8.39779388,10.1199997 C8.39811388,9.94185974 8.32987388,9.77046974 8.20734388,9.64136974 C8.28695388,9.42848974 8.39555388,9.22761974 8.52994388,9.04437974 C8.62973388,9.09274974 8.74698388,9.08762974 8.84212388,9.03076974 L9.10145388,8.88067974 C9.10530388,8.87843974 9.10978388,8.87811974 9.11362388,8.87570974 C9.12356388,8.87026974 9.13317388,8.86433974 9.14230388,8.85792974 L9.44119388,8.68285974 L10.0527739,8.32949974 C10.1475739,8.27311974 10.2097739,8.17476974 10.2201739,8.06488974 C10.4466739,8.04101974 10.6753739,8.04838974 10.8999739,8.08666974 C10.9518739,8.25693974 11.0664739,8.40109974 11.2207739,8.48967974 L11.8723739,8.86833974 C12.0275739,8.95755974 12.2112739,8.98382974 12.3854739,8.94186974 C12.4723739,9.04549974 12.5505739,9.15601974 12.6194739,9.27246974 C12.6857739,9.38955974 12.7419739,9.51225974 12.7874739,9.63879974 C12.6642739,9.76870974 12.5960739,9.94105974 12.5966739,10.1199997 L12.5966739,10.8758997 C12.5963739,11.0539997 12.6644739,11.2253997 12.7869739,11.3544997 C12.7072739,11.5676997 12.5984739,11.7686997 12.4637739,11.9520997 C12.3637739,11.9063997 12.2479739,11.9112997 12.1523739,11.9650997 L11.8968739,12.1130997 C11.8915739,12.1159997 11.8859739,12.1173997 11.8806739,12.1200997 Z M7.01689388,15.2587997 L8.77100388,12.7327997 L9.42469388,13.1099997 L8.11395388,15.8908997 L7.01689388,15.2587997 Z M4.59211388,9.85968974 L7.69781388,10.1199997 L7.69781388,10.8772997 L4.58827388,11.1364997 C4.54358388,10.7119997 4.54470388,10.2839997 4.59163388,9.85968974 L4.59211388,9.85968974 Z M14.0048739,5.69568974 L12.2223739,8.26270974 L11.5686739,7.88516974 L12.9003739,5.06090974 C13.2905739,5.23261974 13.6610739,5.44597974 14.0054739,5.69712974 L14.0048739,5.69568974 Z M16.4020739,11.1346997 L13.2965739,10.8758997 L13.2965739,10.1184997 L16.4062739,9.85936974 C16.4508739,10.2837997 16.4497739,10.7117997 16.4026739,11.1360997 L16.4020739,11.1346997 Z M14.5460739,14.8498997 L12.9165739,12.5053997 C13.1422739,12.2328997 13.3205739,11.9244997 13.4441739,11.5930997 L16.2854739,11.8303997 C16.0204739,12.9880997 15.4146739,14.0398997 14.5460739,14.8498997 Z M15.6490739,7.52364974 C15.9450739,8.03653974 16.1627739,8.59091974 16.2945739,9.16819974 L13.4445739,9.40589974 C13.3858739,9.23899974 13.3129739,9.07753974 13.2265739,8.92328974 C13.1360739,8.77031974 13.0328739,8.62534974 12.9178739,8.48967974 L14.5487739,6.14530974 C14.9822739,6.54735974 15.3530739,7.01203974 15.6490739,7.52364974 Z M10.4869739,4.54929974 C11.0823739,4.55041974 11.6742739,4.64027974 12.2428739,4.81598974 L11.0245739,7.39982974 C10.6750739,7.33959974 10.3179739,7.33847974 9.96818388,7.39662974 L8.75002388,4.81278974 C9.31273388,4.63899974 9.89818388,4.55025974 10.4869739,4.54929974 Z M7.52289388,5.34617974 C7.70742388,5.24062974 7.89755388,5.14531974 8.09217388,5.06026974 L9.42197388,7.88612974 L9.08639388,8.08106974 L8.77148388,8.26238974 L6.98694388,5.69568974 C7.15913388,5.56962974 7.33821388,5.45301974 7.52289388,5.34617974 Z M6.44842388,6.14594974 L8.07759388,8.49224974 C7.85206388,8.76470974 7.67394388,9.07304974 7.55028388,9.40445974 L4.70888388,9.16723974 C4.97350388,8.00882974 5.57945388,6.95645974 6.44842388,6.14594974 Z M5.34543388,13.4721997 C5.04926388,12.9592997 4.83174388,12.4048997 4.69975388,11.8275997 L7.54980388,11.5898997 C7.60907388,11.7564997 7.68259388,11.9176997 7.76957388,12.0713997 C7.85975388,12.2238997 7.96274388,12.3685997 8.07727388,12.5035997 L6.44618388,14.8519997 C6.01257388,14.4493997 5.64144388,13.9843997 5.34543388,13.4721997 Z M8.75290388,16.1756997 L9.96914388,13.5946997 C10.1469739,13.6271997 10.3272739,13.6444997 10.5079739,13.6464997 C10.6817739,13.6446997 10.8552739,13.6286997 11.0262739,13.5980997 L12.2433739,16.1797997 C11.1055739,16.5280997 9.88969388,16.5265997 8.75290388,16.1756997 Z M12.9027739,15.9372997 L11.5731739,13.1096997 L11.9087739,12.9147997 L12.2236739,12.7333997 L14.0081739,15.3000997 C13.6650739,15.5525997 13.2950739,15.7663997 12.9050739,15.9372997 L12.9027739,15.9372997 Z" id="Shape" fill="#000000"></path>
            <path d="M10.8594739,9.14622974 C10.2143739,8.97339974 9.53718388,9.28045974 9.24197388,9.87936974 C8.94676388,10.4782997 9.11575388,11.2023997 9.64562388,11.6087997 C10.1754739,12.0151997 10.9185739,11.9906997 11.4205739,11.5502997 C11.9223739,11.1098997 12.0433739,10.3761997 11.7093739,9.79799974 C11.5246739,9.47587974 11.2185739,9.24105974 10.8594739,9.14622974 Z M11.1743739,10.6790997 C11.0803739,11.0293997 10.7343739,11.2499997 10.3771739,11.1871997 C10.0199739,11.1242997 9.76992388,10.7989997 9.80115388,10.4375997 C9.83239388,10.0761997 10.1344739,9.79863974 10.4972739,9.79799974 C10.5587739,9.79815974 10.6201739,9.80632974 10.6795739,9.82218974 C10.8587739,9.87023974 11.0117739,9.98764974 11.1044739,10.1482997 C11.1972739,10.3090997 11.2223739,10.5001997 11.1743739,10.6794997 L11.1743739,10.6790997 Z" id="Shape" fill="#000000"></path>
            <path d="M8.39785388,2.09998974 C8.39785388,2.29315974 8.24120388,2.44981974 8.04786388,2.44981974 C7.85469388,2.44981974 7.69787388,2.29315974 7.69787388,2.09998974 C7.69787388,1.90664974 7.85469388,1.74999974 8.04786388,1.74999974 C8.24120388,1.74999974 8.39785388,1.90664974 8.39785388,2.09998974 Z" id="Path" fill="#000000"></path>
        </g>
    </g>
</svg>