<svg width="18" height="18" viewBox="0 0 18 18" fill="none" xmlns="http://www.w3.org/2000/svg">
<path d="M8.93488 9.6989C8.95352 9.6989 8.97216 9.6989 8.99452 9.6989C9.00198 9.6989 9.00943 9.6989 9.01689 9.6989C9.02807 9.6989 9.04298 9.6989 9.05416 9.6989C10.1463 9.68027 11.0297 9.29634 11.682 8.56202C13.1171 6.94429 12.8786 4.17105 12.8525 3.9064C12.7593 1.91965 11.82 0.969145 11.0446 0.525575C10.4669 0.193829 9.7922 0.0149099 9.03925 0H9.01316C9.00943 0 9.00198 0 8.99825 0H8.97588C8.56213 0 7.74954 0.0670946 6.9705 0.510665C6.18773 0.954235 5.23349 1.90474 5.14031 3.9064C5.11421 4.17105 4.87566 6.94429 6.31074 8.56202C6.95932 9.29634 7.84273 9.68027 8.93488 9.6989ZM6.13554 3.99959C6.13554 3.9884 6.13927 3.97722 6.13927 3.96977C6.26228 1.29716 8.15957 1.01015 8.97216 1.01015H8.98707C8.99452 1.01015 9.0057 1.01015 9.01689 1.01015C10.0233 1.03251 11.7342 1.44253 11.8498 3.96977C11.8498 3.98095 11.8498 3.99213 11.8535 3.99959C11.8572 4.02568 12.1182 6.56037 10.9328 7.8948C10.4631 8.4241 9.83693 8.68503 9.01316 8.69248C9.0057 8.69248 9.00198 8.69248 8.99452 8.69248C8.98707 8.69248 8.98334 8.69248 8.97588 8.69248C8.15584 8.68503 7.52589 8.4241 7.05996 7.8948C5.87835 6.56782 6.13182 4.02195 6.13554 3.99959Z" fill="black"/>
<path d="M16.6544 14.2984C16.6544 14.2947 16.6544 14.291 16.6544 14.2872C16.6544 14.2574 16.6507 14.2276 16.6507 14.1941C16.6283 13.456 16.5799 11.7302 14.9622 11.1785C14.951 11.1748 14.9361 11.1711 14.9249 11.1673C13.2438 10.7387 11.846 9.76954 11.8311 9.75836C11.6037 9.59807 11.2906 9.65399 11.1303 9.88136C10.97 10.1087 11.0259 10.4218 11.2533 10.5821C11.3167 10.6269 12.8002 11.6594 14.6565 12.1365C15.525 12.4459 15.6219 13.374 15.648 14.2239C15.648 14.2574 15.648 14.2872 15.6517 14.3171C15.6555 14.6525 15.6331 15.1707 15.5735 15.4689C14.9696 15.8118 12.6027 16.9971 9.00192 16.9971C5.41609 16.9971 3.03423 15.8081 2.42665 15.4651C2.36701 15.1669 2.34092 14.6488 2.34837 14.3133C2.34837 14.2835 2.3521 14.2537 2.3521 14.2201C2.37819 13.3703 2.47511 12.4421 3.34361 12.1328C5.19989 11.6556 6.68343 10.6194 6.7468 10.5784C6.97417 10.4181 7.03009 10.105 6.86981 9.87764C6.70952 9.65026 6.39642 9.59435 6.16904 9.75463C6.15413 9.76581 4.76378 10.735 3.07523 11.1636C3.06032 11.1673 3.04914 11.1711 3.03796 11.1748C1.42023 11.7302 1.37177 13.456 1.34941 14.1903C1.34941 14.2239 1.34941 14.2537 1.34568 14.2835C1.34568 14.2872 1.34568 14.291 1.34568 14.2947C1.34195 14.4885 1.33823 15.4838 1.53578 15.9832C1.57306 16.0802 1.64015 16.1622 1.72961 16.2181C1.84143 16.2926 4.52149 17.9998 9.00565 17.9998C13.4898 17.9998 16.1699 16.2889 16.2817 16.2181C16.3674 16.1622 16.4382 16.0802 16.4755 15.9832C16.6619 15.4875 16.6582 14.4923 16.6544 14.2984Z" fill="black"/>
</svg>
