<svg width="21" height="20" viewBox="0 0 21 20" fill="none" xmlns="http://www.w3.org/2000/svg">
<path d="M9.99981 13.5351C9.93087 13.509 9.85489 13.5349 9.81062 13.5995L8.57501 15.4043C8.50276 15.5096 8.38853 15.5725 8.26945 15.5725C8.20244 15.5725 8.13665 15.5531 8.0787 15.5159L2.41715 11.9033C2.36464 11.8699 2.30011 11.8701 2.24779 11.9041C2.19552 11.9381 2.16333 12.0005 2.16333 12.0682V14.8859C2.16333 14.9537 2.19562 15.0162 2.24803 15.0501L9.86032 19.9743C9.88665 19.9912 9.91593 19.9998 9.94531 19.9998C9.9746 19.9998 10.0039 19.9914 10.0301 19.9744C10.0827 19.9405 10.115 19.8779 10.115 19.8101V13.7147C10.1151 13.6334 10.0687 13.5611 9.99981 13.5351Z" fill="#D91515"/>
<path d="M18.7519 11.904C18.6997 11.8702 18.6351 11.8698 18.5826 11.9033L12.9206 15.5162C12.8631 15.553 12.7974 15.5725 12.7304 15.5725C12.6112 15.5725 12.497 15.5097 12.4249 15.4044L11.1892 13.5993C11.1449 13.5348 11.0689 13.5088 11 13.5349C10.9311 13.5609 10.8848 13.6332 10.8848 13.7145V19.8099C10.8848 19.8777 10.9171 19.9403 10.9697 19.9742C10.9959 19.9911 11.0252 19.9997 11.0545 19.9997C11.0838 19.9997 11.1131 19.9911 11.1395 19.9741L18.7517 15.0499C18.8041 15.016 18.8364 14.9535 18.8364 14.8857V12.0679C18.8364 12.0005 18.8042 11.938 18.7519 11.904Z" fill="#D91515"/>
<path d="M20.9977 4.20016C20.9886 4.13869 20.9531 4.0861 20.9027 4.05949L13.2397 0.0181155C13.1783 -0.0141942 13.1056 -0.0026474 13.0549 0.0476604L10.8647 2.21463L10.5794 2.04544C10.5296 2.0159 10.47 2.0159 10.4203 2.04544L10.1351 2.21474L7.94529 0.0476604C7.89448 -0.00259319 7.82175 -0.01414 7.76041 0.0181155L0.0973151 4.05949C0.0469383 4.08605 0.0113981 4.13869 0.0022828 4.20016C-0.00683255 4.26164 0.0116891 4.3242 0.0517869 4.36751L2.33843 6.83899L1.97823 7.05285C1.94967 7.06982 1.92606 7.09552 1.91015 7.12696L0.668188 9.57925C0.622126 9.67021 0.650539 9.78574 0.731753 9.83751L8.03984 14.5009C8.11358 14.548 8.20702 14.5269 8.2587 14.4516L9.80293 12.1965C9.83299 12.1525 9.84443 12.0962 9.83425 12.0421C9.82412 11.988 9.79338 11.9415 9.75008 11.9149L2.49533 7.44621L10.2236 2.86115L10.2238 8.49882L8.32653 9.728C8.27359 9.76232 8.24125 9.82585 8.24193 9.89421C8.2426 9.96257 8.27611 10.0253 8.32973 10.0584L10.418 11.3447C10.469 11.3761 10.5307 11.3761 10.5818 11.3447L12.6701 10.0584C12.7237 10.0253 12.7573 9.96257 12.7579 9.8941C12.7587 9.82569 12.7263 9.76226 12.6734 9.728L10.7761 8.49882L10.7762 2.8611L18.5045 7.44615L11.2499 11.915C11.2065 11.9415 11.1759 11.9881 11.1658 12.0422C11.1556 12.0963 11.167 12.1526 11.1971 12.1966L12.7414 14.4517C12.7746 14.5 12.825 14.526 12.8762 14.526C12.9049 14.526 12.9338 14.518 12.9602 14.501L20.2683 9.83762C20.3495 9.78584 20.3779 9.67032 20.3319 9.57935L19.0896 7.1269C19.0737 7.09546 19.0501 7.06982 19.0216 7.05291L18.6618 6.83905L20.9483 4.36757C20.9883 4.32415 21.0068 4.26159 20.9977 4.20016Z" fill="#D91515"/>
</svg>
