<svg width="16" height="21" viewBox="0 0 16 21" fill="none" xmlns="http://www.w3.org/2000/svg">
<path d="M15.9544 12.2952C15.71 9.16329 14.2287 7.20066 12.9219 5.46873C11.7118 3.86535 10.6667 2.48074 10.6667 0.438249C10.6667 0.274187 10.5733 0.124234 10.4253 0.0490521C10.2769 -0.0265807 10.0985 -0.014194 9.96354 0.0823567C8.00088 1.46483 6.36329 3.79488 5.79125 6.01809C5.39413 7.5659 5.34158 9.30595 5.33421 10.4552C3.52171 10.0741 3.11113 7.40528 3.10679 7.3762C3.08638 7.23778 3.00046 7.11731 2.87546 7.05152C2.74917 6.9866 2.60071 6.98188 2.47267 7.04426C2.37763 7.08955 0.13975 8.20886 0.00954151 12.678C0.000416512 12.8266 0 12.9758 0 13.1249C0 17.4667 3.58896 20.9993 8 20.9993C8.00608 20.9997 8.01258 21.0006 8.01779 20.9993C8.01954 20.9993 8.02125 20.9993 8.02342 20.9993C12.4236 20.9869 16 17.459 16 13.1249C16 12.9065 15.9544 12.2952 15.9544 12.2952ZM8 20.1244C6.5295 20.1244 5.33333 18.8701 5.33333 17.3283C5.33333 17.2757 5.33292 17.2227 5.33679 17.1578C5.35458 16.5076 5.48004 16.0637 5.61763 15.7685C5.87546 16.3136 6.33638 16.8148 7.08508 16.8148C7.33075 16.8148 7.52954 16.6191 7.52954 16.3773C7.52954 15.7544 7.54258 15.0358 7.70012 14.3873C7.84033 13.8122 8.17537 13.2005 8.59988 12.71C8.78867 13.3466 9.15675 13.8618 9.51612 14.3646C10.0305 15.0841 10.5621 15.8279 10.6555 17.0963C10.6611 17.1715 10.6668 17.2471 10.6668 17.3283C10.6667 18.87 9.4705 20.1244 8 20.1244Z" fill="#D91515"/>
</svg>
