<svg width="16" height="16" viewBox="0 0 16 16" fill="none" xmlns="http://www.w3.org/2000/svg">
<path d="M7.99967 0C4.75195 0 2.10944 2.64251 2.10944 5.89056C2.10944 6.73777 2.28284 7.54667 2.62458 8.29499C4.0973 11.5176 6.92092 14.9201 7.75143 15.886C7.81365 15.9582 7.90437 15.9998 7.99983 15.9998C8.09529 15.9998 8.18601 15.9582 8.24823 15.886C9.07842 14.9203 11.902 11.518 13.3752 8.29499C13.7171 7.54667 13.8904 6.73777 13.8904 5.89056C13.8901 2.64251 11.2475 0 7.99967 0ZM7.99967 8.95013C6.3126 8.95013 4.93993 7.57746 4.93993 5.89039C4.93993 4.20317 6.3126 2.83049 7.99967 2.83049C9.68673 2.83049 11.0594 4.20317 11.0594 5.89039C11.0596 7.57746 9.68689 8.95013 7.99967 8.95013Z" fill="#D91515"/>
</svg>
