<?xml version="1.0" encoding="UTF-8"?>
<svg width="18px" height="16px" viewBox="0 0 18 16" version="1.1" xmlns="http://www.w3.org/2000/svg" xmlns:xlink="http://www.w3.org/1999/xlink">
    <title>Path-path</title>
    <g id="Page-1" stroke="none" stroke-width="1" fill="none" fill-rule="evenodd">
        <g id="heart" fill="#D91515" fill-rule="nonzero">
            <path d="M12.9073461,0.00548493821 C11.3693751,0.0783994114 9.97896945,0.87391753 9.12411125,2.13039583 L8.99994998,2.32230071 C8.11983518,0.890348969 6.56736668,0 4.86029,0 C2.17580277,0 0,2.17610942 0,4.8608 C0,6.19800137 0.545304205,7.44634834 1.48722918,8.35430535 L1.67824189,8.52995997 L8.55637195,15.4086774 C8.67402367,15.5263015 8.83353721,15.59244 8.99994,15.59244 C9.16634914,15.59244 9.32586375,15.5263041 9.44347952,15.4087159 L16.3415581,8.51136997 C17.3843526,7.60202315 18,6.2815507 18,4.8608 C18,2.17622246 15.8237203,0 13.1391,0 L12.9073461,0.00548493821 Z" id="Path"></path>
        </g>
    </g>
</svg>