<svg width="31" height="51" viewBox="0 0 31 51" fill="none" xmlns="http://www.w3.org/2000/svg">
<rect y="51" width="51" height="31" rx="1" transform="rotate(-90 0 51)" fill="#D91515"/>
<path d="M12.7363 39.4043C11.916 39.4043 11.5059 39.8496 11.5059 40.7402C11.5059 41.2988 11.6309 41.6934 11.8809 41.9238C12.127 42.1504 12.5625 42.2637 13.1875 42.2637L13.1875 44.0508C12.1445 44.0508 11.3848 43.8008 10.9082 43.3008C10.4316 42.8008 10.1934 41.9727 10.1934 40.8164C10.1934 39.2695 10.7109 38.2949 11.7461 37.8926C12.0469 37.7754 12.3809 37.7168 12.748 37.7168C13.3496 37.7168 13.875 37.8574 14.3242 38.1387C14.7734 38.4199 15.2695 38.8789 15.8125 39.5156L17.6699 41.6836L17.6699 37.8633L19 37.8633L19 43.5645L17.6758 43.7754L14.7871 40.5703C14.3809 40.1172 14.0352 39.8105 13.75 39.6504C13.4648 39.4863 13.127 39.4043 12.7363 39.4043ZM19.1582 33.0947C19.1582 33.6025 19.0723 34.0752 18.9004 34.5127C18.7285 34.9502 18.4961 35.2978 18.2031 35.5556C17.6133 36.0791 16.9062 36.3408 16.082 36.3408L13.3105 36.3408C12.2402 36.3408 11.4141 35.9658 10.832 35.2158C10.4062 34.665 10.1934 33.9287 10.1934 33.0068C10.1934 31.7099 10.6426 30.788 11.541 30.2412C12.0488 29.9326 12.6465 29.7783 13.334 29.7783L16.0586 29.7783C16.7148 29.7783 17.3008 29.9384 17.8164 30.2587C18.707 30.8134 19.1543 31.7587 19.1582 33.0947ZM17.8398 33.0068C17.8398 32.3466 17.5742 31.8955 17.043 31.6533C16.7773 31.5283 16.4668 31.4658 16.1113 31.4658L13.2637 31.4658C12.8223 31.4658 12.4375 31.5615 12.1094 31.7529C11.7109 31.9834 11.5117 32.4209 11.5117 33.0654C11.5117 33.7099 11.7812 34.1533 12.3203 34.3955C12.5898 34.5205 12.9043 34.583 13.2637 34.583L16.1113 34.583C16.6816 34.583 17.1133 34.4384 17.4062 34.1494C17.6953 33.8564 17.8398 33.4755 17.8398 33.0068ZM19 20.1519L19 21.9399L13.792 21.9399L13.792 23.5839C15.072 23.6879 16.104 23.8279 16.888 24.0039C17.664 24.1719 18.232 24.4079 18.592 24.7119C18.944 25.0159 19.12 25.4239 19.12 25.9359C19.12 26.3519 19.056 26.6919 18.928 26.9559L17.5 26.9559C17.58 26.7719 17.62 26.5799 17.62 26.3799C17.62 26.2359 17.548 26.1039 17.404 25.9839C17.26 25.8639 17 25.7519 16.624 25.6479C16.248 25.5359 15.724 25.4359 15.052 25.3479C14.372 25.2599 13.504 25.1799 12.448 25.1079L12.448 20.1519L19 20.1519ZM12.328 16.1256C12.328 15.2216 12.588 14.5056 13.108 13.9776C13.62 13.4496 14.352 13.1856 15.304 13.1856L16.168 13.1856L16.168 17.4096C16.672 17.3936 17.068 17.2456 17.356 16.9656C17.644 16.6776 17.788 16.2816 17.788 15.7776C17.788 15.3536 17.748 14.9696 17.668 14.6256C17.58 14.2816 17.448 13.9256 17.272 13.5576L18.652 13.5576C18.812 13.8776 18.928 14.2176 19 14.5776C19.08 14.9296 19.12 15.3576 19.12 15.8616C19.12 16.5176 19 17.0976 18.76 17.6016C18.512 18.1056 18.14 18.5016 17.644 18.7896C17.148 19.0776 16.524 19.2216 15.772 19.2216C15.004 19.2216 14.368 19.0936 13.864 18.8376C13.352 18.5736 12.968 18.2096 12.712 17.7456C12.456 17.2816 12.328 16.7416 12.328 16.1256ZM13.6 16.1136C13.6 16.4576 13.712 16.7456 13.936 16.9776C14.16 17.2016 14.508 17.3336 14.98 17.3736L14.98 14.8656C14.58 14.8736 14.252 14.9776 13.996 15.1776C13.732 15.3776 13.6 15.6896 13.6 16.1136ZM13.792 6.85172L13.792 8.99972L19 8.99972L19 10.7877L13.792 10.7877L13.792 12.9357L12.448 12.9357L12.448 6.85172L13.792 6.85172Z" fill="white"/>
</svg>
