<svg width="16" height="16" viewBox="0 0 16 16" fill="none" xmlns="http://www.w3.org/2000/svg">
<path d="M15.8616 15.184L11.9733 11.2958C13.0163 10.0967 13.6478 8.53215 13.6478 6.82217C13.6478 3.05809 10.5862 0 6.82565 0C3.06157 0 0.003479 3.06164 0.003479 6.82217C0.003479 10.5827 3.06512 13.6443 6.82565 13.6443C8.53563 13.6443 10.1002 13.0129 11.2993 11.9698L15.1875 15.8581C15.2798 15.9503 15.4039 16 15.5245 16C15.6452 16 15.7693 15.9539 15.8616 15.8581C16.0461 15.6736 16.0461 15.3685 15.8616 15.184ZM0.957803 6.82217C0.957803 3.5867 3.59018 0.957871 6.8221 0.957871C10.0576 0.957871 12.6864 3.59024 12.6864 6.82217C12.6864 10.0541 10.0576 12.69 6.8221 12.69C3.59018 12.69 0.957803 10.0576 0.957803 6.82217Z" fill="#939393"/>
</svg>
