<svg width="18" height="18" viewBox="0 0 18 18" fill="none" xmlns="http://www.w3.org/2000/svg">
<g clip-path="url(#clip0_1_31725)">
<path d="M7.54729 14.1619C6.67439 14.1619 5.96423 14.872 5.96423 15.7449C5.96423 16.6178 6.67439 17.328 7.54729 17.328C8.42018 17.328 9.13034 16.6178 9.13034 15.7449C9.13031 14.872 8.42015 14.1619 7.54729 14.1619ZM7.54729 16.444C7.16176 16.444 6.84813 16.1303 6.84813 15.7448C6.84813 15.3593 7.1618 15.0457 7.54729 15.0457C7.93278 15.0457 8.24644 15.3594 8.24644 15.7448C8.24644 16.1304 7.93278 16.444 7.54729 16.444Z" fill="black"/>
<path d="M13.1002 14.1619C12.2273 14.1619 11.5172 14.872 11.5172 15.7449C11.5172 16.6178 12.2273 17.328 13.1002 17.328C13.9731 17.328 14.6833 16.6178 14.6833 15.7449C14.6833 14.872 13.9731 14.1619 13.1002 14.1619ZM13.1002 16.444C12.7147 16.444 12.4011 16.1303 12.4011 15.7448C12.4011 15.3593 12.7147 15.0457 13.1002 15.0457C13.4858 15.0457 13.7994 15.3594 13.7994 15.7448C13.7994 16.1304 13.4857 16.444 13.1002 16.444Z" fill="black"/>
<path d="M13.4899 5.82739H7.15655C6.91246 5.82739 6.7146 6.02525 6.7146 6.26934C6.7146 6.51343 6.91249 6.71129 7.15655 6.71129H13.4899C13.734 6.71129 13.9319 6.51343 13.9319 6.26934C13.9319 6.02522 13.734 5.82739 13.4899 5.82739Z" fill="black"/>
<path d="M13.1456 8.12231H7.50167C7.25758 8.12231 7.05972 8.32017 7.05972 8.56426C7.05972 8.80835 7.25758 9.00621 7.50167 9.00621H13.1456C13.3897 9.00621 13.5875 8.80835 13.5875 8.56426C13.5875 8.32021 13.3897 8.12231 13.1456 8.12231Z" fill="black"/>
<path d="M17.8006 3.85809C17.6321 3.65123 17.3823 3.53262 17.1154 3.53262H3.34918L3.07116 2.183C3.01312 1.90147 2.82109 1.66508 2.55739 1.55057L0.61757 0.708579C0.393625 0.611301 0.133363 0.714063 0.036226 0.937939C-0.0610162 1.16188 0.0417456 1.42218 0.265585 1.51932L2.20544 2.36135L4.34385 12.7416C4.42809 13.1504 4.79216 13.4472 5.20957 13.4472H15.7974C16.0415 13.4472 16.2394 13.2493 16.2394 13.0052C16.2394 12.7611 16.0415 12.5633 15.7974 12.5633H5.20961L4.94949 11.3006H15.8793C16.2967 11.3006 16.6608 11.0039 16.745 10.5951L17.9812 4.59476C18.035 4.33348 17.9692 4.06492 17.8006 3.85809ZM15.8793 10.4168H4.76741L3.53129 4.41648L17.1154 4.41652L15.8793 10.4168Z" fill="black"/>
</g>
<defs>
<clipPath id="clip0_1_31725">
<rect width="18" height="18" fill="white"/>
</clipPath>
</defs>
</svg>
