<svg width="21" height="21" viewBox="0 0 21 21" fill="none" xmlns="http://www.w3.org/2000/svg">
<path d="M1 7.5L3 4C3 4 9 8 10.5 10.5C12 13 12.5 20 12.5 20H10L7.5 19.5L5.5 18.5L3 16.5L1.5 14.5L1 11V7.5Z" fill="#A6B1FB" stroke="#A6B1FB"/>
<path d="M14.8709 7.07772L14.6462 6.33816C14.3607 5.49808 13.4483 5.04846 12.6082 5.33388C12.1356 5.49445 11.7645 5.86558 11.6039 6.33816L11.3792 7.07772C11.1902 7.70142 11.1505 8.36086 11.2634 9.00272C11.3664 9.54312 11.7095 10.0074 12.1958 10.2645L11.9441 15.89C11.9105 16.204 12.0123 16.5175 12.2241 16.7517C12.6797 17.25 13.453 17.2847 13.9514 16.8291C13.9783 16.8045 14.0041 16.7787 14.0288 16.7517C14.2359 16.5241 14.3375 16.2198 14.3088 15.9135L14.0557 10.2638C14.5414 10.0066 14.8839 9.54259 14.9867 9.00272C15.0996 8.36086 15.0599 7.70142 14.8709 7.07772ZM14.2972 8.88092C14.2214 9.26915 13.9448 9.5877 13.5709 9.71707C13.4291 9.7704 13.3377 9.909 13.3445 10.0604L13.6105 15.9688C13.6228 16.0847 13.5845 16.2002 13.5055 16.2859C13.2948 16.4945 12.9553 16.4945 12.7446 16.2859C12.6616 16.1933 12.624 16.0687 12.6417 15.9457L12.9056 10.0604C12.9124 9.909 12.821 9.7704 12.6791 9.71707C12.3053 9.5877 12.0287 9.26915 11.9529 8.88092C11.8593 8.34804 11.8923 7.8006 12.0491 7.28282L12.2738 6.54292C12.4477 6.07282 12.9697 5.83268 13.4399 6.00654C13.6884 6.09846 13.8843 6.29441 13.9763 6.54292L14.201 7.28282C14.3577 7.80064 14.3907 8.34804 14.2972 8.88092Z" fill="black"/>
<path d="M9.44995 5.25C9.25666 5.25 9.09995 5.40671 9.09995 5.6V8.6051L8.1525 9.55255C8.08241 9.62237 8.04514 9.71867 8.04995 9.8175L8.3562 15.9425C8.36351 16.0746 8.31556 16.2038 8.2239 16.2991C8.03232 16.4924 7.7203 16.4938 7.52696 16.3022C7.52591 16.3012 7.52491 16.3002 7.5239 16.2991C7.4322 16.2038 7.38429 16.0746 7.3916 15.9425L7.69995 9.8175C7.70485 9.71871 7.66771 9.62246 7.59775 9.55255L6.64995 8.6051V5.6C6.64995 5.40671 6.49324 5.25 6.29995 5.25C6.10666 5.25 5.94995 5.40671 5.94995 5.6V8.75C5.94995 8.84284 5.98688 8.93183 6.0525 8.99745L6.9926 9.9379L6.69405 15.9085C6.66229 16.5607 7.16524 17.1152 7.81742 17.147C8.4696 17.1787 9.02409 16.6758 9.05585 16.0236C9.05773 15.9853 9.05773 15.9469 9.05585 15.9086L8.7573 9.93794L9.6974 8.99749C9.76303 8.93187 9.79995 8.84288 9.79995 8.75004V5.60004C9.79995 5.40671 9.64324 5.25 9.44995 5.25Z" fill="black"/>
<path d="M7.35 5.25C7.15671 5.25 7 5.40671 7 5.6V8.4C7 8.59329 7.15671 8.75 7.35 8.75C7.54329 8.75 7.7 8.59329 7.7 8.4V5.6C7.7 5.40671 7.54329 5.25 7.35 5.25Z" fill="black"/>
<path d="M8.40005 5.25C8.20676 5.25 8.05005 5.40671 8.05005 5.6V8.4C8.05005 8.59329 8.20676 8.75 8.40005 8.75C8.59334 8.75 8.75005 8.59329 8.75005 8.4V5.6C8.75005 5.40671 8.59334 5.25 8.40005 5.25Z" fill="black"/>
<path d="M10.5 0C4.70102 0 0 4.70102 0 10.5C0 16.299 4.70102 21 10.5 21C16.299 21 21 16.299 21 10.5C20.9934 4.70374 16.2963 0.0065625 10.5 0ZM10.5 20.3C5.0876 20.3 0.7 15.9124 0.7 10.5C0.7 5.0876 5.0876 0.7 10.5 0.7C15.9124 0.7 20.3 5.0876 20.3 10.5C20.2938 15.9098 15.9098 20.2938 10.5 20.3Z" fill="black"/>
<path d="M11.6362 17.0699C11.6174 16.8776 11.4462 16.7368 11.2538 16.7556C11.2493 16.756 11.2448 16.7565 11.2403 16.7572L11.2417 16.7568C10.7489 16.814 10.2511 16.814 9.75835 16.7568C9.56629 16.7343 9.39238 16.8717 9.36985 17.0638C9.34732 17.2558 9.48474 17.4297 9.6768 17.4523C10.2233 17.5161 10.7753 17.5161 11.3218 17.4523C11.5142 17.4335 11.6549 17.2623 11.6362 17.0699Z" fill="black"/>
<path d="M15.855 5.98983C15.7308 5.84174 15.51 5.82236 15.3619 5.94661C15.3614 5.947 15.361 5.94744 15.3604 5.94783C15.2127 6.07243 15.1939 6.2932 15.3184 6.44098C17.4287 8.94611 17.2673 12.6504 14.9471 14.9624C14.8101 15.0989 14.8097 15.3206 14.9462 15.4575C15.0827 15.5945 15.3043 15.5949 15.4413 15.4584C18.0198 12.8897 18.1996 8.77361 15.855 5.98983Z" fill="black"/>
<path d="M8.15458 4.62723C8.15436 4.62723 8.15414 4.62622 8.15393 4.62622C8.15358 4.62622 8.15323 4.62723 8.15283 4.62723H8.15458Z" fill="black"/>
<path d="M12.1509 3.6957C10.7831 3.36788 9.34854 3.45599 8.03109 3.94875C7.85014 4.01678 7.75866 4.21864 7.82669 4.39955C7.87797 4.53592 8.00834 4.62617 8.15399 4.6263C8.19586 4.62608 8.23733 4.61843 8.27644 4.6036C9.46286 4.15993 10.7547 4.0807 11.9865 4.3761C12.1744 4.42151 12.3635 4.30605 12.4089 4.11815C12.4543 3.93024 12.3389 3.74111 12.1509 3.6957Z" fill="black"/>
<path d="M6.03717 14.945C4.85727 13.7671 4.19598 12.1673 4.20001 10.5C4.19655 9.16801 4.61848 7.86969 5.40436 6.79423C5.52052 6.6397 5.48941 6.4203 5.33489 6.30414C5.18036 6.18798 4.96096 6.21909 4.8448 6.37362C4.84274 6.37637 4.84073 6.37913 4.83876 6.38193C2.81518 9.1639 3.11295 13.0039 5.54121 15.4406C5.67806 15.5776 5.90005 15.5777 6.03699 15.4408C6.17393 15.304 6.17402 15.082 6.03717 14.945Z" fill="black"/>
</svg>
