<svg width="21" height="21" viewBox="0 0 21 21" fill="none" xmlns="http://www.w3.org/2000/svg">
<path d="M2 20.5L2.5 6.5C2.5 6.5 8 9 10.5 13C13 17 12.5 20.5 12.5 20.5H2Z" fill="#A6B1FB"/>
<path d="M13.4948 2.59493C13.2838 1.11566 11.9962 0 10.4999 0C9.53764 0 8.62375 0.464345 8.05555 1.24256C7.93949 1.40127 7.97421 1.6239 8.13292 1.73996C8.29111 1.85561 8.51426 1.8213 8.63012 1.66238C9.06505 1.06727 9.76392 0.711898 10.4998 0.711898C11.6441 0.711898 12.6286 1.56467 12.79 2.69535C12.8155 2.87293 12.9678 3.00109 13.1421 3.00109C13.1587 3.00109 13.1758 2.99984 13.1928 2.99754C13.3873 2.9697 13.5226 2.78941 13.4948 2.59493Z" fill="black"/>
<path d="M18.6355 6.57943L17.5677 4.79974C17.5035 4.69244 17.3876 4.62695 17.2625 4.62695H16.2392C16.0428 4.62695 15.8833 4.78639 15.8833 4.98285C15.8833 5.17931 16.0428 5.33875 16.2392 5.33875H17.061L17.7017 6.40654H3.29783L3.93851 5.33875H4.31547C4.51193 5.33875 4.67137 5.17931 4.67137 4.98285C4.67137 4.78639 4.51193 4.62695 4.31547 4.62695H3.73705C3.61191 4.62695 3.49606 4.69244 3.43183 4.79974L2.36403 6.57943C2.29803 6.68955 2.29646 6.82646 2.35955 6.93804C2.42264 7.04962 2.54089 7.11865 2.66925 7.11865H18.3303C18.4586 7.11865 18.5768 7.04962 18.64 6.93804C18.7032 6.82646 18.7015 6.68934 18.6355 6.57943Z" fill="black"/>
<path d="M16.8614 3.29753C16.8115 3.21713 16.7319 3.16009 16.64 3.13861L11.7879 2.00377C11.696 1.98218 11.5992 1.99824 11.5189 2.04787C11.4389 2.09772 11.3817 2.17728 11.3602 2.26925L10.9943 3.83341C10.9495 4.02476 11.0684 4.21621 11.2598 4.26084C11.4512 4.30568 11.6428 4.1868 11.6875 3.99535L11.9723 2.77792L16.1312 3.75072L15.4777 6.54481C15.4329 6.73616 15.5517 6.92761 15.7432 6.97224C15.7706 6.97861 15.7978 6.98163 15.8247 6.98163C15.9864 6.98163 16.1327 6.87089 16.1707 6.70686L16.9054 3.56625C16.927 3.47438 16.9112 3.37761 16.8614 3.29753Z" fill="black"/>
<path d="M10.688 4.13902L10.3637 1.39602C10.3527 1.30228 10.3048 1.21667 10.2306 1.15827C10.1563 1.09988 10.0626 1.07318 9.9684 1.08423L4.01524 1.78789C3.82014 1.81104 3.68062 1.9879 3.70366 2.18321L4.24434 6.75815C4.26582 6.93927 4.41942 7.07244 4.59742 7.07244C4.61129 7.07244 4.62557 7.0715 4.63975 7.06993C4.83475 7.04678 4.97427 6.86993 4.95133 6.67462L4.45237 2.45287L9.69864 1.83284L9.98102 4.22234C10.0042 4.41755 10.1802 4.55624 10.3763 4.53413C10.5714 4.51119 10.711 4.33423 10.688 4.13902Z" fill="black"/>
<path d="M13.5031 6.62731L12.7966 3.68942C12.7745 3.59776 12.7168 3.51841 12.6364 3.46908C12.556 3.42018 12.4596 3.40485 12.3673 3.42675L6.6334 4.8057C6.44226 4.85159 6.32463 5.04387 6.37052 5.23501L6.7236 6.70344C6.76948 6.89478 6.96177 7.01251 7.1528 6.96632C7.34394 6.92044 7.46157 6.72815 7.41568 6.53701L7.14571 5.41458L12.1875 4.20225L12.8108 6.79395C12.8499 6.95714 12.9959 7.06663 13.1566 7.06663C13.1842 7.06663 13.2121 7.0634 13.2402 7.05662C13.4313 7.01064 13.5489 6.81845 13.5031 6.62731Z" fill="black"/>
<path d="M18.6861 6.74463C18.6763 6.55547 18.5201 6.40698 18.3305 6.40698H2.66951C2.47994 6.40698 2.32373 6.55537 2.31393 6.74463L1.60203 20.626C1.59703 20.7234 1.63227 20.8187 1.69943 20.8894C1.76668 20.96 1.85991 21.0001 1.95751 21.0001H19.0422C19.1397 21.0001 19.2331 20.9601 19.3006 20.8894C19.3677 20.8187 19.4029 20.7235 19.398 20.626L18.6861 6.74463ZM2.33207 20.2882L3.00747 7.11878H17.9922L18.6676 20.2882H2.33207Z" fill="black"/>
<path d="M13.1694 7.83057C12.5805 7.83057 12.1016 8.30951 12.1016 8.89836C12.1016 9.48721 12.5805 9.96616 13.1694 9.96616C13.7582 9.96616 14.2372 9.48721 14.2372 8.89836C14.2372 8.30951 13.7582 7.83057 13.1694 7.83057ZM13.1694 9.25436C12.973 9.25436 12.8135 9.09471 12.8135 8.89847C12.8135 8.70222 12.9731 8.54257 13.1694 8.54257C13.3656 8.54257 13.5253 8.70222 13.5253 8.89847C13.5253 9.09471 13.3656 9.25436 13.1694 9.25436Z" fill="black"/>
<path d="M7.83037 7.83057C7.24152 7.83057 6.76257 8.30951 6.76257 8.89836C6.76257 9.48721 7.24152 9.96616 7.83037 9.96616C8.41922 9.96616 8.89816 9.48721 8.89816 8.89836C8.89816 8.30951 8.41922 7.83057 7.83037 7.83057ZM7.83037 9.25436C7.63412 9.25436 7.47447 9.09471 7.47447 8.89847C7.47447 8.70222 7.63412 8.54257 7.83037 8.54257C8.02662 8.54257 8.18626 8.70222 8.18626 8.89847C8.18626 9.09471 8.02662 9.25436 7.83037 9.25436Z" fill="black"/>
<path d="M13.1694 8.89819H13.1419C12.9455 8.89819 12.786 9.05763 12.786 9.25409C12.786 9.30268 12.7956 9.34909 12.8135 9.39132V11.2117C12.8135 12.4873 11.7756 13.5253 10.4999 13.5253C9.22415 13.5253 8.18628 12.4874 8.18628 11.2117V9.25419C8.18628 9.05774 8.02684 8.8983 7.83038 8.8983C7.63393 8.8983 7.47449 9.05774 7.47449 9.25419V11.2118C7.47449 12.88 8.83165 14.2372 10.4999 14.2372C12.1681 14.2372 13.5253 12.88 13.5253 11.2118V9.25419C13.5253 9.05774 13.3658 8.89819 13.1694 8.89819Z" fill="black"/>
</svg>
