<svg width="21" height="21" viewBox="0 0 21 21" fill="none" xmlns="http://www.w3.org/2000/svg">
<g clip-path="url(#clip0_1_31274)">
<path d="M1 7.5L3 4C3 4 9 8 10.5 10.5C12 13 12.5 20 12.5 20H10L7.5 19.5L5.5 18.5L3 16.5L1.5 14.5L1 11V7.5Z" fill="#A6B1FB" stroke="#A6B1FB"/>
<path d="M13.2195 0.358164C9.11828 -0.740659 4.75903 0.739067 2.17439 4.10762C-0.410245 7.476 -0.71138 12.0698 1.41162 15.7468C2.79781 18.1628 5.09284 19.9239 7.78528 20.6378C8.67699 20.8775 9.59609 20.9992 10.5195 21C14.2672 20.9925 17.7269 18.9883 19.5978 15.7409C21.4685 12.4934 21.4667 8.49506 19.5931 5.24937C18.207 2.83324 15.9119 1.07208 13.2195 0.358164ZM19.9662 13.0339C18.9404 16.8615 15.7101 19.6942 11.7812 20.2116C7.85255 20.7288 3.99898 18.8285 2.01758 15.3968C0.271154 12.3672 0.270673 8.63682 2.01598 5.60672C3.76144 2.57663 6.98871 0.70559 10.4856 0.69614C11.3473 0.69678 12.2052 0.810507 13.0375 1.03428C15.5475 1.7067 17.6875 3.34869 18.9869 5.59903C20.2862 7.84954 20.6383 10.5239 19.9657 13.0339H19.9662Z" fill="black"/>
<path d="M6.30118 3.22635C6.57349 3.07162 6.8538 2.93147 7.141 2.80637C7.25569 2.75639 7.33498 2.64907 7.34891 2.52477C7.36301 2.40047 7.30951 2.2781 7.20891 2.20394C7.10832 2.12961 6.9757 2.11472 6.86117 2.16469C6.55074 2.30004 6.24785 2.45157 5.95344 2.6188C4.24209 3.59829 2.89948 5.11245 2.13206 6.92871C2.05646 7.10667 2.13959 7.31218 2.31755 7.38762C2.49567 7.46307 2.70102 7.3801 2.77646 7.20198C3.48429 5.52651 4.72263 4.12976 6.30118 3.22635Z" fill="black"/>
<path d="M18.6872 13.6085C18.6018 13.5721 18.5054 13.5713 18.4192 13.606C18.3332 13.6408 18.2643 13.7084 18.2281 13.7939C17.5198 15.4699 16.2808 16.867 14.7013 17.7704C14.1506 18.0861 13.5666 18.3396 12.9598 18.5264C12.7941 18.5773 12.6904 18.742 12.7165 18.9136C12.7425 19.0849 12.8903 19.2115 13.0638 19.2108C13.0986 19.2112 13.1333 19.2059 13.1666 19.1955C13.823 18.993 14.4551 18.7186 15.0513 18.3771C16.7626 17.3976 18.1051 15.8835 18.8727 14.0672C18.9481 13.8892 18.8651 13.6839 18.6872 13.6085Z" fill="black"/>
<path d="M14.6723 15.6662C14.6771 15.6629 14.6827 15.6626 14.6877 15.6596C14.6958 15.6519 14.7035 15.6439 14.7107 15.6354C16.5262 14.1437 17.4213 11.8059 17.0663 9.48311C17.0663 9.47894 17.0639 9.47542 17.0639 9.47158C16.8204 7.85538 15.9808 6.38878 14.7104 5.36044C14.7016 5.35307 14.6968 5.34298 14.6874 5.33625C14.6835 5.33385 14.6789 5.33353 14.675 5.33113C12.8338 3.84868 10.3446 3.45352 8.13478 4.29285C8.13126 4.29461 8.12741 4.29285 8.12357 4.29573L8.11908 4.29926C7.46892 4.53824 6.86457 4.88679 6.33197 5.32969C6.32717 5.33289 6.32156 5.33321 6.3166 5.33625C6.30859 5.34394 6.30074 5.35195 6.29353 5.36044C4.47823 6.85218 3.58331 9.19014 3.93827 11.5127C3.93827 11.5169 3.94067 11.5204 3.94067 11.5243C4.29018 13.8792 5.87883 15.8643 8.09986 16.7216C10.3209 17.5787 12.8312 17.1757 14.6723 15.6662ZM11.8858 12.1201C11.8761 12.1256 11.8665 12.1315 11.8572 12.1379L11.5584 12.313L10.9467 12.6663C10.8519 12.7227 10.7897 12.8211 10.7795 12.9309C10.552 12.9548 10.3222 12.9473 10.0968 12.9085C10.0459 12.7387 9.93246 12.5947 9.77949 12.5054L9.1258 12.1278C8.97107 12.0397 8.78863 12.0138 8.61563 12.0554C8.52786 11.9516 8.44905 11.8405 8.38017 11.7234C8.31386 11.6063 8.25764 11.4836 8.21215 11.357C8.33516 11.2271 8.40356 11.0548 8.40292 10.8759V10.12C8.40324 9.94186 8.335 9.77047 8.21247 9.64137C8.29208 9.42849 8.40068 9.22762 8.53507 9.04438C8.63486 9.09275 8.75211 9.08763 8.84725 9.03077L9.10658 8.88068C9.11043 8.87844 9.11491 8.87812 9.11875 8.87571C9.12869 8.87027 9.1383 8.86434 9.14743 8.85793L9.44632 8.68286L10.0579 8.3295C10.1527 8.27312 10.2149 8.17477 10.2253 8.06489C10.4518 8.04102 10.6805 8.04839 10.9051 8.08667C10.957 8.25694 11.0716 8.4011 11.2259 8.48968L11.8775 8.86834C12.0327 8.95756 12.2164 8.98383 12.3906 8.94187C12.4775 9.0455 12.5557 9.15602 12.6246 9.27247C12.6909 9.38956 12.7471 9.51226 12.7926 9.6388C12.6694 9.76871 12.6012 9.94106 12.6018 10.12V10.8759C12.6015 11.054 12.6696 11.2254 12.7921 11.3545C12.7124 11.5677 12.6036 11.7687 12.4689 11.9521C12.3689 11.9064 12.2531 11.9113 12.1575 11.9651L11.902 12.1131C11.8967 12.116 11.8911 12.1174 11.8858 12.1201ZM7.02202 15.2588L8.77613 12.7328L9.42982 13.11L8.11908 15.8909L7.02202 15.2588ZM4.59724 9.85969L7.70294 10.12V10.8773L4.5934 11.1365C4.54871 10.712 4.54983 10.284 4.59676 9.85969H4.59724ZM14.01 5.69569L12.2275 8.26271L11.5738 7.88517L12.9055 5.06091C13.2957 5.23262 13.6662 5.44598 14.0106 5.69713L14.01 5.69569ZM16.4072 11.1347L13.3017 10.8759V10.1185L16.4114 9.85937C16.456 10.2838 16.4549 10.7118 16.4078 11.1361L16.4072 11.1347ZM14.5512 14.8499L12.9217 12.5054C13.1474 12.2329 13.3257 11.9245 13.4493 11.5931L16.2906 11.8304C16.0256 12.9881 15.4198 14.0399 14.5512 14.8499ZM15.6542 7.52365C15.9502 8.03654 16.1679 8.59092 16.2997 9.1682L13.4497 9.4059C13.391 9.239 13.3181 9.07754 13.2317 8.92329C13.1412 8.77032 13.038 8.62535 12.923 8.48968L14.5539 6.14531C14.9874 6.54736 15.3582 7.01204 15.6542 7.52365ZM10.4921 4.5493C11.0875 4.55042 11.6794 4.64028 12.248 4.81599L11.0297 7.39983C10.6802 7.3396 10.3231 7.33848 9.97331 7.39663L8.75515 4.81279C9.31786 4.639 9.90331 4.55026 10.4921 4.5493ZM7.52802 5.34618C7.71255 5.24063 7.90268 5.14532 8.0973 5.06027L9.4271 7.88613L9.09152 8.08107L8.77661 8.26239L6.99207 5.69569C7.16426 5.56963 7.34334 5.45302 7.52802 5.34618ZM6.45355 6.14595L8.08272 8.49225C7.85719 8.76471 7.67907 9.07305 7.55541 9.40446L4.71401 9.16724C4.97863 8.00883 5.58458 6.95646 6.45355 6.14595ZM5.35056 13.4722C5.05439 12.9593 4.83687 12.4049 4.70488 11.8276L7.55493 11.5899C7.6142 11.7565 7.68772 11.9177 7.7747 12.0714C7.86488 12.2239 7.96787 12.3686 8.0824 12.5036L6.45131 14.852C6.0177 14.4494 5.64657 13.9844 5.35056 13.4722ZM8.75803 16.1757L9.97427 13.5947C10.1521 13.6272 10.3324 13.6445 10.5131 13.6465C10.6869 13.6447 10.8604 13.6287 11.0314 13.5981L12.2485 16.1798C11.1107 16.5281 9.89482 16.5266 8.75803 16.1757ZM12.9079 15.9373L11.5783 13.1097L11.9139 12.9148L12.2288 12.7334L14.0133 15.3001C13.6702 15.5526 13.3002 15.7664 12.9102 15.9373H12.9079Z" fill="black"/>
<path d="M10.8646 9.14623C10.2195 8.9734 9.54231 9.28046 9.2471 9.87937C8.95189 10.4783 9.12088 11.2024 9.65075 11.6088C10.1806 12.0152 10.9237 11.9907 11.4257 11.5503C11.9275 11.1099 12.0485 10.3762 11.7145 9.798C11.5298 9.47588 11.2237 9.24106 10.8646 9.14623ZM11.1795 10.6791C11.0855 11.0294 10.7395 11.25 10.3823 11.1872C10.0251 11.1243 9.77505 10.799 9.80628 10.4376C9.83752 10.0762 10.1396 9.79864 10.5024 9.798C10.5639 9.79816 10.6253 9.80633 10.6847 9.82219C10.8639 9.87024 11.0169 9.98765 11.1096 10.1483C11.2024 10.3091 11.2275 10.5002 11.1795 10.6795V10.6791Z" fill="black"/>
<path d="M8.40298 2.09999C8.40298 2.29316 8.24633 2.44982 8.05299 2.44982C7.85982 2.44982 7.703 2.29316 7.703 2.09999C7.703 1.90665 7.85982 1.75 8.05299 1.75C8.24633 1.75 8.40298 1.90665 8.40298 2.09999Z" fill="black"/>
</g>
<defs>
<clipPath id="clip0_1_31274">
<rect width="21" height="21" fill="white"/>
</clipPath>
</defs>
</svg>
