<svg width="40" height="40" viewBox="0 0 40 40" fill="none" xmlns="http://www.w3.org/2000/svg">
<path d="M28 12C29.6 9.6 29.3333 6.66667 29 5.5H33V9.5L37 10L36 14L39 16.5L37 20L39 23.5L36 26C36.3333 27 37 29.1 37 29.5C37 29.9 34.3333 30.6667 33 31L32.5 35L29.5 34.5L28.5 35L27.5 37L26.5 38L24 37H22.5L21 38.5L19.5 39L19 38.5L17.5 37H16L14 38L13 37.5L12 35C12 33.1667 12.2 29 13 27C14 24.5 14.5 22 17.5 19C20.9848 15.5152 26 15 28 12Z" fill="#A6B1FB"/>
<path fill-rule="evenodd" clip-rule="evenodd" d="M20.0933 0C21.0345 0 21.6839 0.740662 22.3273 1.4743C22.7083 1.90887 23.0859 2.33948 23.317 2.38129C23.5537 2.42432 24.0619 2.14264 24.567 1.86249C25.4027 1.39893 26.2338 0.938416 27.0848 1.25458C27.9452 1.5744 28.2675 2.47467 28.5886 3.37189C28.7788 3.90289 28.968 4.43207 29.1491 4.53796C29.3304 4.64386 29.8878 4.54651 30.4443 4.44946C31.3788 4.28619 32.312 4.12323 33.0049 4.70642C33.6941 5.28687 33.6898 6.23444 33.6855 7.18201C33.6831 7.74139 33.6803 8.30078 33.8158 8.461C33.9512 8.62152 34.5034 8.71429 35.056 8.80707C35.9938 8.96484 36.9331 9.12262 37.3927 9.9054C37.8511 10.6863 37.5349 11.5771 37.2175 12.471C37.027 13.0072 36.8359 13.5452 36.9129 13.7518C36.99 13.9578 37.4789 14.2416 37.9703 14.527C38.8032 15.0104 39.641 15.4965 39.8071 16.4093C39.9704 17.3065 39.3762 18.0527 38.7769 18.8058C38.4094 19.2679 38.0385 19.7339 38.0385 20C38.0385 20.2664 38.4094 20.7324 38.7769 21.1945C39.3762 21.9473 39.9704 22.6935 39.8071 23.5907C39.641 24.5035 38.8032 24.9899 37.9703 25.4733C37.4789 25.7584 36.99 26.0422 36.9129 26.2485C36.8359 26.4551 37.027 26.9931 37.2175 27.5293C37.5349 28.4232 37.8511 29.314 37.3927 30.0946C36.9331 30.8777 35.9938 31.0355 35.056 31.1929C34.5034 31.286 33.9512 31.3788 33.8158 31.539C33.6803 31.6995 33.6831 32.2589 33.6855 32.8183C33.6898 33.7659 33.6941 34.7134 33.0049 35.2939C32.312 35.8771 31.3788 35.7141 30.4443 35.5508C29.8878 35.4538 29.3304 35.3564 29.1491 35.4623C28.968 35.5682 28.7788 36.0974 28.5886 36.6284C28.2675 37.5256 27.9452 38.4259 27.0848 38.7457C26.2338 39.0619 25.4027 38.6011 24.567 38.1378C24.0619 37.8577 23.554 37.576 23.317 37.619C23.0859 37.6608 22.7083 38.0914 22.3273 38.5257C21.6839 39.2593 21.0345 40 20.0933 40C19.1524 40 18.503 39.2593 17.8593 38.5257C17.4786 38.0911 17.101 37.6605 16.8695 37.6187C16.6329 37.5757 16.125 37.8574 15.6195 38.1375C14.7838 38.6011 13.9531 39.0616 13.1021 38.7454C12.2413 38.4256 11.9194 37.5253 11.598 36.6281C11.4081 36.0974 11.2185 35.5679 11.0375 35.462C10.8565 35.3561 10.2991 35.4535 9.74226 35.5508C8.80782 35.7138 7.8746 35.8768 7.18172 35.2936C6.4925 34.7131 6.49678 33.7656 6.50106 32.818C6.50382 32.2586 6.50626 31.6992 6.37081 31.539C6.23535 31.3785 5.68343 31.2857 5.13059 31.1929C4.19278 31.0355 3.25345 30.8774 2.79387 30.0946C2.33582 29.3137 2.65199 28.4229 2.96939 27.529C3.15988 26.9928 3.35069 26.4548 3.27363 26.2482C3.19688 26.0422 2.70795 25.7584 2.21627 25.473C1.38365 24.9896 0.545524 24.5035 0.379795 23.5907C0.216512 22.6935 0.810323 21.947 1.40964 21.1942C1.77748 20.7321 2.14839 20.2661 2.14839 19.9997C2.14839 19.7336 1.77748 19.2676 1.40964 18.8055C0.810323 18.0524 0.216512 17.3065 0.379795 16.409C0.545524 15.4962 1.38365 15.0101 2.21627 14.5267C2.70795 14.2413 3.19688 13.9575 3.27363 13.7515C3.35069 13.5449 3.15988 13.0069 2.96939 12.4707C2.65199 11.5768 2.33552 10.686 2.79387 9.9054C3.25345 9.12231 4.19278 8.96454 5.13059 8.80707C5.68343 8.71399 6.23535 8.62122 6.37081 8.461C6.50626 8.30048 6.50382 7.74109 6.50106 7.1817C6.49678 6.23413 6.4925 5.28625 7.18172 4.70642C7.8746 4.12323 8.80782 4.28589 9.74226 4.44916C10.2991 4.5462 10.8565 4.64355 11.0375 4.53766C11.2185 4.43207 11.4081 3.90259 11.598 3.37158C11.9191 2.47467 12.2416 1.5741 13.1021 1.25427C13.9531 0.93811 14.7838 1.39893 15.6195 1.86218C16.125 2.14233 16.6329 2.42401 16.8695 2.38098C17.101 2.33917 17.4786 1.90857 17.8593 1.4743C18.503 0.740662 19.1524 0 20.0933 0ZM29.7936 10.0919C29.3613 10.0919 29.0108 10.4416 29.0108 10.8731C29.0108 11.0654 29.0806 11.2415 29.1961 11.3776L29.1983 11.3803C29.2142 11.3989 29.231 11.4166 29.2484 11.4334C31.3537 13.6734 32.6428 16.6864 32.6428 20C32.6428 23.4589 31.2384 26.59 28.9674 28.8565C26.6965 31.1234 23.5589 32.525 20.0933 32.525C18.6097 32.525 17.1863 32.2681 15.8654 31.7963C15.8418 31.7865 15.8174 31.778 15.7926 31.7703L15.7908 31.7694C15.7189 31.7477 15.6425 31.7361 15.5636 31.7361C15.1315 31.7361 14.7808 32.0859 14.7808 32.5174C14.7808 32.8714 15.0168 33.1702 15.34 33.2663C16.8252 33.7964 18.4256 34.0854 20.0933 34.0854C23.9904 34.0854 27.5187 32.5085 30.0725 29.9597C32.6266 27.4106 34.2062 23.8895 34.2062 20C34.2062 16.2781 32.7596 12.8937 30.3975 10.3757C30.2538 10.2023 30.0367 10.0919 29.7936 10.0919ZM27.4312 8.10883C26.9992 8.10883 26.6484 8.45856 26.6484 8.89008C26.6484 9.32129 26.9992 9.67133 27.4312 9.67133C27.8636 9.67133 28.214 9.32129 28.214 8.89008C28.214 8.45856 27.8636 8.10883 27.4312 8.10883ZM24.8906 6.74957C23.3929 6.20941 21.7778 5.91461 20.0933 5.91461C16.1962 5.91461 12.6682 7.49115 10.1141 10.0403C7.56026 12.5891 5.98033 16.1105 5.98033 20C5.98033 23.714 7.42083 27.092 9.77406 29.6085C9.91777 29.78 10.1336 29.8892 10.3752 29.8892C10.8076 29.8892 11.158 29.5395 11.158 29.108C11.158 28.9163 11.0889 28.7408 10.9739 28.605L10.9709 28.6011C10.9556 28.5831 10.9394 28.566 10.9225 28.5498C8.82677 26.3113 7.54375 23.3054 7.54375 20C7.54375 16.5411 8.94847 13.4097 11.2194 11.1435C13.4904 8.87665 16.628 7.47498 20.0933 7.47498C21.591 7.47498 23.0272 7.73682 24.3588 8.21716C24.453 8.25714 24.5567 8.27911 24.6655 8.27911C25.0979 8.27911 25.4483 7.92938 25.4483 7.49786C25.4483 7.14447 25.2131 6.84601 24.8906 6.74957ZM12.7553 30.3287C12.3233 30.3287 11.9726 30.6784 11.9726 31.1099C11.9726 31.5414 12.3233 31.8912 12.7553 31.8912C13.1877 31.8912 13.5381 31.5414 13.5381 31.1099C13.5381 30.6784 13.1877 30.3287 12.7553 30.3287ZM15.536 12.3218C14.6386 12.3218 13.8262 12.6846 13.2379 13.2718C12.6499 13.8589 12.286 14.6698 12.286 15.5655C12.286 16.4609 12.6499 17.272 13.2379 17.8589C13.8262 18.446 14.6386 18.8092 15.536 18.8092C16.4335 18.8092 17.2459 18.446 17.8342 17.8589C18.4222 17.272 18.7861 16.4609 18.7861 15.5655C18.7861 14.6698 18.4222 13.8589 17.8342 13.2718C17.2459 12.6846 16.4335 12.3218 15.536 12.3218ZM16.7289 14.375C16.4237 14.0704 16.002 13.8818 15.536 13.8818C15.0704 13.8818 14.6484 14.0704 14.3432 14.375C14.0381 14.6796 13.8494 15.1004 13.8494 15.5655C13.8494 16.0303 14.0381 16.4514 14.3432 16.756C14.6484 17.0602 15.0704 17.2488 15.536 17.2488C16.002 17.2488 16.4237 17.0605 16.7289 16.756C17.034 16.4514 17.2227 16.0303 17.2227 15.5655C17.2227 15.1004 17.034 14.6796 16.7289 14.375ZM24.0005 12.6752L14.8857 26.4716C14.6496 26.8301 14.7493 27.3117 15.1086 27.5473C15.4679 27.7829 15.9504 27.6834 16.1864 27.3248L25.3012 13.5284C25.5373 13.1699 25.4376 12.6883 25.0783 12.4527C24.719 12.2171 24.2365 12.3166 24.0005 12.6752ZM24.6508 21.1908C23.7534 21.1908 22.9406 21.554 22.3526 22.1408C21.7646 22.728 21.4008 23.5391 21.4008 24.4345C21.4008 25.3302 21.7646 26.1411 22.3526 26.7282C22.9409 27.3151 23.7534 27.6782 24.6508 27.6782C25.5483 27.6782 26.3607 27.3151 26.9487 26.7282C27.537 26.1411 27.9009 25.3302 27.9009 24.4345C27.9009 23.5388 27.537 22.728 26.9487 22.1408C26.3607 21.554 25.5483 21.1908 24.6508 21.1908ZM25.8433 23.244C25.5385 22.9398 25.1165 22.7512 24.6508 22.7512C24.1848 22.7512 23.7632 22.9395 23.458 23.244C23.1529 23.5486 22.9639 23.9697 22.9639 24.4345C22.9639 24.8996 23.1529 25.3204 23.458 25.625C23.7632 25.9296 24.1848 26.1179 24.6508 26.1179C25.1165 26.1179 25.5385 25.9296 25.8433 25.625C26.1488 25.3204 26.3375 24.8996 26.3375 24.4345C26.3375 23.9697 26.1488 23.5489 25.8433 23.244ZM21.1549 2.49847C20.7455 2.03156 20.3324 1.56036 20.0936 1.56036C19.8545 1.56036 19.4414 2.03156 19.0319 2.49847C18.4715 3.13751 17.9156 3.77136 17.1444 3.91113C16.3616 4.05304 15.61 3.63617 14.8624 3.22144C14.3414 2.93243 13.8231 2.64526 13.6458 2.71118C13.4709 2.77618 13.27 3.3371 13.07 3.89587C12.7853 4.69086 12.5019 5.4834 11.8255 5.8786C11.1445 6.27686 10.3085 6.13098 9.47379 5.98511C8.89741 5.8847 8.32133 5.784 8.18985 5.89508C8.05347 6.00983 8.05592 6.59302 8.05867 7.1759C8.06265 8.02277 8.06632 8.86963 7.56179 9.46686C7.05879 10.0623 6.22342 10.2026 5.38713 10.343C4.80831 10.4404 4.22795 10.5377 4.13774 10.6918C4.04785 10.8447 4.24415 11.398 4.44138 11.9528C4.72513 12.7521 5.00981 13.5538 4.73339 14.2941C4.46064 15.025 3.73137 15.4483 2.99813 15.874C2.47526 16.1774 1.94902 16.4828 1.91263 16.6837C1.87564 16.8872 2.25174 17.3596 2.6312 17.8366C3.16936 18.5126 3.71211 19.1943 3.71211 20C3.71211 20.806 3.16936 21.4874 2.6312 22.1637C2.25174 22.6404 1.87564 23.1128 1.91263 23.3167C1.94902 23.5175 2.47526 23.8226 2.99813 24.1263C3.73137 24.5517 4.46064 24.975 4.73339 25.7059C5.00981 26.4465 4.72513 27.2482 4.44138 28.0475C4.24415 28.6023 4.04785 29.1553 4.13774 29.3085C4.22795 29.4623 4.808 29.5599 5.38713 29.657C6.22373 29.7977 7.05879 29.9377 7.56179 30.5334C8.06632 31.1304 8.06265 31.9772 8.05867 32.8244C8.05592 33.4073 8.05347 33.9902 8.18985 34.1052C8.32164 34.216 8.89741 34.1156 9.47379 34.0149C10.3085 33.8693 11.1445 33.7231 11.8255 34.1214C12.5019 34.5166 12.7856 35.3091 13.07 36.1041C13.27 36.6629 13.4709 37.2241 13.6458 37.2888C13.8231 37.3547 14.3414 37.0676 14.8624 36.7786C15.61 36.3641 16.3616 35.9473 17.1444 36.0892C17.9159 36.2286 18.4715 36.8625 19.0319 37.5018C19.4414 37.9688 19.8545 38.4399 20.0936 38.4399C20.3324 38.4399 20.7455 37.9688 21.1549 37.5018C21.7154 36.8625 22.2713 36.2286 23.0422 36.0892C23.8249 35.9473 24.5768 36.3641 25.3244 36.7786C25.8455 37.0676 26.3638 37.3547 26.5411 37.2888C26.716 37.2241 26.9169 36.6629 27.1169 36.1041C27.4016 35.3091 27.685 34.5169 28.3611 34.1214C29.0423 33.7231 29.878 33.869 30.7128 34.0149C31.2895 34.1156 31.8652 34.2163 31.9973 34.1052C32.1334 33.9902 32.131 33.4073 32.1282 32.8244C32.1242 31.9775 32.1206 31.1304 32.6251 30.5334C33.1281 29.9377 33.9632 29.7977 34.7994 29.657C35.3786 29.5599 35.9589 29.4623 36.0491 29.3085C36.139 29.1553 35.9427 28.6023 35.7455 28.0475C35.4617 27.2482 35.1771 26.4465 35.4535 25.7059C35.7259 24.975 36.4555 24.5517 37.1884 24.1263C37.7116 23.8226 38.2375 23.5175 38.2742 23.3167C38.3112 23.1128 37.9351 22.6404 37.5557 22.1637C37.0175 21.4874 36.4748 20.806 36.4748 20C36.4748 19.1943 37.0175 18.5126 37.5557 17.8366C37.9351 17.3596 38.3112 16.8872 38.2742 16.6837C38.2375 16.4828 37.7116 16.1774 37.1884 15.874C36.4555 15.4483 35.7259 15.025 35.4535 14.2941C35.1771 13.5538 35.4617 12.7521 35.7455 11.9528C35.9427 11.398 36.139 10.8447 36.0491 10.6918C35.9589 10.5377 35.3786 10.4404 34.7994 10.343C33.9632 10.2026 33.1281 10.0623 32.6251 9.46686C32.1206 8.86963 32.1242 8.02277 32.1282 7.1759C32.131 6.59302 32.1334 6.00983 31.9973 5.89508C31.8652 5.784 31.2895 5.8847 30.7128 5.98511C29.878 6.13098 29.0423 6.27686 28.3614 5.8786C27.685 5.4834 27.4013 4.69086 27.1169 3.89587C26.9169 3.3371 26.716 2.77618 26.5411 2.71118C26.3638 2.64526 25.8455 2.93243 25.3244 3.22144C24.5765 3.63617 23.8249 4.05304 23.0422 3.91113C22.271 3.77136 21.7154 3.13751 21.1549 2.49847Z" fill="black"/>
</svg>
