<svg width="9" height="10" viewBox="0 0 9 10" fill="none" xmlns="http://www.w3.org/2000/svg">
<path d="M5.40515 0.584473H2.32853C2.01127 0.584473 1.75406 0.808339 1.75406 1.08447V4.86891H1.09791C0.780646 4.86891 0.523438 5.09277 0.523438 5.36891C0.523438 5.64504 0.780646 5.86891 1.09791 5.86891H1.75406V7.01114H1.09791C0.780646 7.01114 0.523438 7.23501 0.523438 7.51114C0.523438 7.78727 0.780646 8.01114 1.09791 8.01114H1.75406V9.11781C1.75406 9.39394 2.01127 9.61781 2.32853 9.61781C2.64579 9.61781 2.903 9.39394 2.903 9.11781V8.01114H5.40515C5.72241 8.01114 5.97962 7.78727 5.97962 7.51114C5.97962 7.23501 5.72241 7.01114 5.40515 7.01114H2.903V5.86891H5.40515C7.07908 5.86891 8.44091 4.68361 8.44091 3.22667C8.44087 1.73374 7.04365 0.584473 5.40515 0.584473ZM5.40515 4.86891H2.903V1.58447H5.40515C6.43927 1.58447 7.29197 2.31047 7.29197 3.22671C7.29194 4.13224 6.44555 4.86891 5.40515 4.86891Z" fill="#D91515"/>
</svg>
