<svg width="48" height="48" viewBox="0 0 48 48" fill="none" xmlns="http://www.w3.org/2000/svg">
<path d="M28.8 18.6C30.72 17.64 34.4 17 36 16.8L45.6 25.8V31.2V35.4L45 36H43.2L42 36.6L40.8 39L38.4 40.2H36L33.6 37.8C33.6 37.2 33.36 36 32.4 36H21.6L19.2 32.4C19.6 31.2 20.4 28.2 21.6 25.8C23.3783 22.2433 26.4 19.8 28.8 18.6Z" fill="#A6B1FB"/>
<path d="M46.2803 25.7198L36.9697 16.4093C36.7613 16.1995 36.5133 16.0332 36.2401 15.92C35.9669 15.8069 35.674 15.7491 35.3783 15.75H22.5V17.25H26.25V28.5H27.75V17.25H35.3783C35.4769 17.2499 35.5745 17.2693 35.6656 17.307C35.7567 17.3447 35.8395 17.4 35.9093 17.4698L37.1895 18.75H33.75C33.3522 18.75 32.9706 18.908 32.6893 19.1894C32.408 19.4707 32.25 19.8522 32.25 20.25V27C32.25 27.3978 32.408 27.7794 32.6893 28.0607C32.9706 28.342 33.3522 28.5 33.75 28.5H45V34.5C45 34.6989 44.921 34.8897 44.7803 35.0303C44.6397 35.171 44.4489 35.25 44.25 35.25H42.69C42.5107 34.0014 41.8872 32.8592 40.9339 32.0331C39.9806 31.2069 38.7615 30.7521 37.5 30.7521C36.2385 30.7521 35.0194 31.2069 34.0661 32.0331C33.1128 32.8592 32.4893 34.0014 32.31 35.25H21.69C21.5107 34.0014 20.8872 32.8592 19.9339 32.0331C18.9806 31.2069 17.7615 30.7521 16.5 30.7521C15.2385 30.7521 14.0194 31.2069 13.0661 32.0331C12.1128 32.8592 11.4893 34.0014 11.31 35.25H9.75C9.55109 35.25 9.36032 35.171 9.21967 35.0303C9.07902 34.8897 9 34.6989 9 34.5V27.75H7.5V34.5C7.5 35.0968 7.73705 35.669 8.15901 36.091C8.58097 36.513 9.15326 36.75 9.75 36.75H11.31C11.4737 37.8904 12.0091 38.9449 12.8333 39.75H1.5V41.25H37.5C38.7611 41.2476 39.9793 40.7917 40.9322 39.9655C41.885 39.1394 42.5089 37.9981 42.69 36.75H44.25C44.8467 36.75 45.419 36.513 45.841 36.091C46.2629 35.669 46.5 35.0968 46.5 34.5V26.25C46.5 26.0511 46.4209 25.8604 46.2803 25.7198ZM12.75 36C12.75 35.2583 12.9699 34.5333 13.382 33.9166C13.794 33.2999 14.3797 32.8193 15.0649 32.5355C15.7502 32.2516 16.5042 32.1774 17.2316 32.3221C17.959 32.4668 18.6272 32.8239 19.1516 33.3484C19.6761 33.8728 20.0333 34.541 20.1779 35.2684C20.3226 35.9959 20.2484 36.7499 19.9645 37.4351C19.6807 38.1203 19.2001 38.706 18.5834 39.118C17.9667 39.5301 17.2417 39.75 16.5 39.75C15.5058 39.7488 14.5527 39.3534 13.8497 38.6503C13.1467 37.9473 12.7512 36.9942 12.75 36ZM20.1667 39.75C20.9909 38.9449 21.5263 37.8904 21.69 36.75H32.31C32.4737 37.8904 33.0091 38.9449 33.8333 39.75H20.1667ZM37.5 39.75C36.7583 39.75 36.0333 39.5301 35.4166 39.118C34.7999 38.706 34.3193 38.1203 34.0355 37.4351C33.7516 36.7499 33.6774 35.9959 33.8221 35.2684C33.9668 34.541 34.3239 33.8728 34.8484 33.3484C35.3728 32.8239 36.041 32.4668 36.7684 32.3221C37.4958 32.1774 38.2498 32.2516 38.9351 32.5355C39.6203 32.8193 40.206 33.2999 40.618 33.9166C41.0301 34.5333 41.25 35.2583 41.25 36C41.2488 36.9942 40.8533 37.9473 40.1503 38.6503C39.4473 39.3534 38.4942 39.7488 37.5 39.75ZM33.75 27V20.25H38.6895L45 26.5605V27H33.75Z" fill="black"/>
<path d="M17.25 35.25H15.75V36.75H17.25V35.25Z" fill="black"/>
<path d="M38.25 35.25H36.75V36.75H38.25V35.25Z" fill="black"/>
<path d="M5.25 33H1.5V34.5H5.25V33Z" fill="black"/>
<path d="M5.25 30H3V31.5H5.25V30Z" fill="black"/>
<path d="M5.25 27H3.75V28.5H5.25V27Z" fill="black"/>
<path d="M11.25 26.25C13.1784 26.25 15.0634 25.6782 16.6668 24.6068C18.2702 23.5355 19.5199 22.0127 20.2578 20.2312C20.9958 18.4496 21.1889 16.4892 20.8127 14.5979C20.4365 12.7066 19.5079 10.9693 18.1443 9.60571C16.7807 8.24215 15.0434 7.31355 13.1521 6.93735C11.2608 6.56114 9.30042 6.75422 7.51884 7.49218C5.73726 8.23013 4.21451 9.47981 3.14317 11.0832C2.07183 12.6866 1.5 14.5716 1.5 16.5C1.50298 19.0849 2.53116 21.5632 4.359 23.391C6.18683 25.2188 8.66505 26.247 11.25 26.25ZM11.25 8.25C12.8817 8.25 14.4767 8.73386 15.8335 9.64038C17.1902 10.5469 18.2476 11.8354 18.872 13.3429C19.4964 14.8503 19.6598 16.5091 19.3415 18.1095C19.0231 19.7098 18.2374 21.1798 17.0836 22.3336C15.9298 23.4874 14.4598 24.2731 12.8595 24.5915C11.2592 24.9098 9.60035 24.7464 8.09286 24.122C6.58537 23.4976 5.2969 22.4401 4.39038 21.0834C3.48385 19.7267 3 18.1317 3 16.5C3.00258 14.3128 3.8726 12.2158 5.41922 10.6692C6.96584 9.1226 9.06276 8.25258 11.25 8.25Z" fill="black"/>
<path d="M11.25 23.25C11.4489 23.25 11.6396 23.1709 11.7802 23.0303C12.2632 22.5473 16.5 18.2175 16.5 15C16.5 13.6076 15.9469 12.2723 14.9623 11.2877C13.9777 10.3031 12.6424 9.75 11.25 9.75C9.85761 9.75 8.52226 10.3031 7.53769 11.2877C6.55312 12.2723 6 13.6076 6 15C6 18.2175 10.2368 22.5473 10.7198 23.0303C10.8604 23.1709 11.0511 23.25 11.25 23.25ZM11.25 11.25C12.2442 11.2512 13.1973 11.6467 13.9003 12.3497C14.6033 13.0527 14.9988 14.0058 15 15C15 16.9245 12.6398 19.8983 11.25 21.4132C9.86025 19.8983 7.5 16.9245 7.5 15C7.50119 14.0058 7.89666 13.0527 8.59966 12.3497C9.30267 11.6467 10.2558 11.2512 11.25 11.25Z" fill="black"/>
<path d="M13.5 15C13.5 14.555 13.368 14.12 13.1208 13.75C12.8736 13.38 12.5222 13.0916 12.111 12.9213C11.6999 12.751 11.2475 12.7064 10.811 12.7932C10.3746 12.8801 9.97368 13.0943 9.65901 13.409C9.34434 13.7237 9.13005 14.1246 9.04323 14.561C8.95642 14.9975 9.00097 15.4499 9.17127 15.861C9.34157 16.2722 9.62996 16.6236 9.99997 16.8708C10.37 17.118 10.805 17.25 11.25 17.25C11.8467 17.25 12.419 17.0129 12.841 16.591C13.2629 16.169 13.5 15.5967 13.5 15ZM10.5 15C10.5 14.8517 10.544 14.7067 10.6264 14.5833C10.7088 14.46 10.8259 14.3639 10.963 14.3071C11.1 14.2503 11.2508 14.2355 11.3963 14.2644C11.5418 14.2934 11.6754 14.3648 11.7803 14.4697C11.8852 14.5746 11.9566 14.7082 11.9856 14.8537C12.0145 14.9992 11.9997 15.15 11.9429 15.287C11.8861 15.4241 11.79 15.5412 11.6667 15.6236C11.5433 15.706 11.3983 15.75 11.25 15.75C11.0511 15.75 10.8603 15.671 10.7197 15.5303C10.579 15.3897 10.5 15.1989 10.5 15Z" fill="black"/>
<path d="M33 30H30V31.5H33V30Z" fill="black"/>
</svg>
