<?xml version="1.0" encoding="UTF-8"?>
<svg width="19px" height="17px" viewBox="0 0 19 17" version="1.1" xmlns="http://www.w3.org/2000/svg" xmlns:xlink="http://www.w3.org/1999/xlink">
    <title>Path</title>
    <g id="Page-1" stroke="none" stroke-width="1" fill="none" fill-rule="evenodd">
        <g id="valentines-heart" transform="translate(1.000000, 1.000000)" fill="#000000" fill-rule="nonzero">
            <path d="M12.7391,-0.4 L12.5073461,-0.394515062 C10.9693751,-0.321600589 9.57896945,0.47391753 8.72411125,1.73039583 L8.59994998,1.92230071 C7.71983518,0.490348969 6.16736668,-0.4 4.46029,-0.4 C1.77580277,-0.4 -0.4,1.77610942 -0.4,4.4608 C-0.4,5.79800137 0.145304205,7.04634834 1.08722918,7.95430535 L1.27824189,8.12995997 L8.15637195,15.0086774 C8.27402367,15.1263015 8.43353721,15.19244 8.59994,15.19244 C8.76634914,15.19244 8.92586375,15.1263041 9.04347952,15.0087159 L15.9415581,8.11136997 C16.9843526,7.20202315 17.6,5.8815507 17.6,4.4608 C17.6,1.77622246 15.4237203,-0.4 12.7391,-0.4 Z M12.7391,0.4 C14.9818972,0.4 16.8,2.21805497 16.8,4.4608 C16.8,5.56847979 16.3525547,6.60202889 15.5767758,7.3596008 L15.3755419,7.54536003 L8.6,14.32 L1.80445811,7.52677003 C0.913606745,6.74933254 0.4,5.64763614 0.4,4.4608 C0.4,2.21791198 2.21765581,0.4 4.46029,0.4 C5.88604678,0.4 7.18214002,1.14331639 7.91839134,2.34120143 L8.59989385,3.45002553 L9.28147564,2.34124262 C10.0179899,1.14313852 11.3135047,0.4 12.7391,0.4 Z" id="Path"></path>
        </g>
    </g>
</svg>