<svg width="18" height="18" viewBox="0 0 18 18" fill="none" xmlns="http://www.w3.org/2000/svg">
<path d="M8.65917 3.73561L8.99992 4.29002L9.34071 3.73563C10.1268 2.45688 11.5318 1.60386 13.1391 1.60386C15.6028 1.60386 17.6 3.60099 17.6 6.06466C17.6 7.40515 17.0065 8.60469 16.0685 9.42293L16.0582 9.43189L16.0486 9.44152L9.16067 16.3297C9.11806 16.3723 9.06027 16.3963 8.99994 16.3963C8.93962 16.3963 8.88183 16.3723 8.83922 16.3297L1.9513 9.44152L1.94167 9.43189L1.9314 9.42293C0.993434 8.6047 0.4 7.40516 0.4 6.06466C0.4 3.60093 2.39667 1.60386 4.86029 1.60386C6.46762 1.60386 7.87326 2.45693 8.65917 3.73561Z" stroke="black" stroke-width="0.8"/>
</svg>
