<svg width="10" height="10" viewBox="0 0 10 10" fill="none" xmlns="http://www.w3.org/2000/svg">
<g clip-path="url(#clip0_1_50827)">
<path d="M9.88194 0.11856C9.72418 -0.0391943 9.46842 -0.0391943 9.31067 0.11856L0.11856 9.31065C-0.0391943 9.4684 -0.0391943 9.72416 0.11856 9.88192C0.197427 9.96082 0.300825 10.0002 0.404204 10.0002C0.507583 10.0002 0.610962 9.9608 0.689848 9.8819L9.88194 0.689809C10.0397 0.532075 10.0397 0.276313 9.88194 0.11856Z" fill="black"/>
<path d="M9.88172 9.31064L0.689611 0.118559C0.531877 -0.0391943 0.276096 -0.0391943 0.118361 0.118559C-0.0393927 0.276294 -0.0393927 0.532055 0.118361 0.689808L9.31047 9.8819C9.38934 9.96079 9.49274 10.0002 9.59611 10.0002C9.69949 10.0002 9.80289 9.96079 9.88174 9.88192C10.0395 9.72415 10.0395 9.46839 9.88172 9.31064Z" fill="black"/>
</g>
<defs>
<clipPath id="clip0_1_50827">
<rect width="10" height="10" fill="white"/>
</clipPath>
</defs>
</svg>
