<svg width="129" height="77" viewBox="0 0 129 77" fill="none" xmlns="http://www.w3.org/2000/svg">
<path d="M45.2125 9.52011H54.0867V8.17213C54.0867 6.48715 55.4347 5.13916 57.1197 5.13916H70.8803C72.5653 5.13916 73.9133 6.48715 73.9133 8.17213V9.52011H82.7875C85.0904 9.52011 87 11.4298 87 13.7326V36.6483C87 38.9511 85.0904 40.8608 82.7875 40.8608H45.2125C42.9096 40.8608 41 38.9511 41 36.6483V13.7326C41 11.3736 42.9096 9.52011 45.2125 9.52011Z" fill="#939393"/>
<path d="M70.3748 18.8437C68.746 17.2149 66.4994 16.2601 64.0281 16.2601C61.5568 16.2601 59.3101 17.2711 57.6813 18.8999C56.0525 20.5287 55.0415 22.7754 55.0415 25.2467C55.0415 27.718 56.0525 29.9646 57.6813 31.5934C59.3101 33.2222 61.5568 34.2332 64.0281 34.2332C66.4994 34.2332 68.746 33.2222 70.3748 31.5934C72.0037 29.9646 73.0147 27.718 73.0147 25.2467C72.9585 22.7192 71.9475 20.4725 70.3748 18.8437ZM64.0281 13.9011C67.1172 13.9011 69.9817 15.1368 72.0037 17.2149C74.0256 19.2369 75.3175 22.1014 75.3175 25.1905C75.3175 28.2796 74.0818 31.1441 72.0037 33.1661C69.9817 35.188 67.1172 36.4799 64.0281 36.4799C60.939 36.4799 58.0745 35.2442 56.0525 33.1661C54.0305 31.1441 52.7387 28.2796 52.7387 25.1905C52.7387 22.1014 53.9744 19.2369 56.0525 17.2149C58.0745 15.1368 60.939 13.9011 64.0281 13.9011Z" fill="#EEEEF2"/>
<path d="M80.4285 18.2821C81.6693 18.2821 82.6752 17.2762 82.6752 16.0355C82.6752 14.7947 81.6693 13.7888 80.4285 13.7888C79.1877 13.7888 78.1819 14.7947 78.1819 16.0355C78.1819 17.2762 79.1877 18.2821 80.4285 18.2821Z" fill="white"/>
<path d="M64.0281 31.3689C67.4402 31.3689 70.2063 28.6028 70.2063 25.1906C70.2063 21.7784 67.4402 19.0123 64.0281 19.0123C60.6159 19.0123 57.8498 21.7784 57.8498 25.1906C57.8498 28.6028 60.6159 31.3689 64.0281 31.3689Z" fill="white"/>
<path d="M20.2568 54.8906H21.1943V62H20.2568V56.5215L16.7559 62H15.8135V54.8906H16.7559V60.3691L20.2568 54.8906ZM25.667 58.1621C25.667 57.9147 25.5726 57.7194 25.3838 57.5762C25.195 57.4297 24.9362 57.3564 24.6074 57.3564C24.2884 57.3564 24.0215 57.4395 23.8066 57.6055C23.5951 57.7715 23.4893 57.9668 23.4893 58.1914H22.5908C22.5908 57.7324 22.7829 57.3564 23.167 57.0635C23.5511 56.7705 24.0312 56.624 24.6074 56.624C25.2259 56.624 25.7077 56.7575 26.0527 57.0244C26.3978 57.2881 26.5703 57.6657 26.5703 58.1572C26.5703 58.3949 26.4987 58.613 26.3555 58.8115C26.2122 59.0101 26.0088 59.168 25.7451 59.2852C26.3604 59.4935 26.668 59.9036 26.668 60.5156C26.668 61.0007 26.4808 61.3848 26.1064 61.668C25.7321 61.9512 25.2324 62.0928 24.6074 62.0928C23.9987 62.0928 23.4958 61.9447 23.0986 61.6484C22.7048 61.349 22.5078 60.9453 22.5078 60.4375H23.4062C23.4062 60.6947 23.5202 60.916 23.748 61.1016C23.9792 61.2839 24.2656 61.375 24.6074 61.375C24.9525 61.375 25.2308 61.2952 25.4424 61.1357C25.654 60.9762 25.7598 60.7695 25.7598 60.5156C25.7598 60.2194 25.6702 60.0078 25.4912 59.8809C25.3154 59.7507 25.0404 59.6855 24.666 59.6855H23.7627V58.9238H24.7441C25.3594 58.9076 25.667 58.6536 25.667 58.1621ZM27.6006 59.3096C27.6006 58.792 27.7015 58.3265 27.9033 57.9131C28.1084 57.4997 28.3916 57.1807 28.7529 56.9561C29.1175 56.7314 29.5326 56.6191 29.998 56.6191C30.7174 56.6191 31.2985 56.8682 31.7412 57.3662C32.1872 57.8643 32.4102 58.5267 32.4102 59.3535V59.417C32.4102 59.9313 32.3109 60.3936 32.1123 60.8037C31.917 61.2106 31.6354 61.528 31.2676 61.7559C30.903 61.9837 30.4831 62.0977 30.0078 62.0977C29.2917 62.0977 28.7106 61.8486 28.2646 61.3506C27.8219 60.8525 27.6006 60.1934 27.6006 59.373V59.3096ZM28.5088 59.417C28.5088 60.0029 28.6439 60.4733 28.9141 60.8281C29.1875 61.1829 29.5521 61.3604 30.0078 61.3604C30.4668 61.3604 30.8314 61.1813 31.1016 60.8232C31.3717 60.4619 31.5068 59.9574 31.5068 59.3096C31.5068 58.7301 31.3685 58.2614 31.0918 57.9033C30.8184 57.542 30.4538 57.3613 29.998 57.3613C29.5521 57.3613 29.1924 57.5387 28.9189 57.8936C28.6455 58.2484 28.5088 58.7562 28.5088 59.417ZM35.8623 57.0195C36.5264 57.0195 37.057 57.2425 37.4541 57.6885C37.8545 58.1312 38.0547 58.7155 38.0547 59.4414V59.5244C38.0547 60.0225 37.9587 60.4684 37.7666 60.8623C37.5745 61.2529 37.2979 61.5573 36.9365 61.7754C36.5785 61.9902 36.165 62.0977 35.6963 62.0977C34.9867 62.0977 34.4154 61.8617 33.9824 61.3896C33.5495 60.9144 33.333 60.278 33.333 59.4805V59.041C33.333 57.931 33.5381 57.0488 33.9482 56.3945C34.3617 55.7402 34.9704 55.3415 35.7744 55.1982C36.2301 55.1169 36.5378 55.0176 36.6973 54.9004C36.8568 54.7832 36.9365 54.6221 36.9365 54.417H37.6787C37.6787 54.8239 37.5859 55.1413 37.4004 55.3691C37.2181 55.597 36.9251 55.7581 36.5215 55.8525L35.8477 56.0039C35.3105 56.1309 34.9069 56.3457 34.6367 56.6484C34.3698 56.9479 34.1956 57.3483 34.1143 57.8496C34.5928 57.2962 35.1755 57.0195 35.8623 57.0195ZM35.6865 57.7617C35.2438 57.7617 34.8923 57.9115 34.6318 58.2109C34.3714 58.5072 34.2412 58.9189 34.2412 59.4463V59.5244C34.2412 60.0908 34.3714 60.54 34.6318 60.8721C34.8955 61.2008 35.2503 61.3652 35.6963 61.3652C36.1455 61.3652 36.5003 61.1992 36.7607 60.8672C37.0212 60.5352 37.1514 60.0501 37.1514 59.4121C37.1514 58.9141 37.0195 58.5153 36.7559 58.2158C36.4954 57.9131 36.139 57.7617 35.6865 57.7617ZM43.4453 59.417C43.4453 60.221 43.2614 60.8688 42.8936 61.3604C42.5257 61.8519 42.0277 62.0977 41.3994 62.0977C40.7581 62.0977 40.2536 61.8942 39.8857 61.4873V64.0312H38.9824V56.7168H39.8076L39.8516 57.3027C40.2194 56.847 40.7305 56.6191 41.3848 56.6191C42.0195 56.6191 42.5208 56.8584 42.8887 57.3369C43.2598 57.8154 43.4453 58.4811 43.4453 59.334V59.417ZM42.542 59.3145C42.542 58.7188 42.415 58.2484 42.1611 57.9033C41.9072 57.5583 41.5589 57.3857 41.1162 57.3857C40.5693 57.3857 40.1592 57.6283 39.8857 58.1133V60.6377C40.1559 61.1195 40.5693 61.3604 41.126 61.3604C41.5589 61.3604 41.9023 61.1895 42.1562 60.8477C42.4134 60.5026 42.542 59.9915 42.542 59.3145ZM47.8594 62C47.8073 61.8958 47.765 61.7103 47.7324 61.4434C47.3125 61.8796 46.8112 62.0977 46.2285 62.0977C45.7077 62.0977 45.2796 61.9512 44.9443 61.6582C44.6123 61.362 44.4463 60.9876 44.4463 60.5352C44.4463 59.985 44.6546 59.5586 45.0713 59.2559C45.4912 58.9499 46.0804 58.7969 46.8389 58.7969H47.7178V58.3818C47.7178 58.0661 47.6234 57.8154 47.4346 57.6299C47.2458 57.4411 46.9674 57.3467 46.5996 57.3467C46.2773 57.3467 46.0072 57.4281 45.7891 57.5908C45.571 57.7536 45.4619 57.9505 45.4619 58.1816H44.5537C44.5537 57.918 44.6465 57.6641 44.832 57.4199C45.0208 57.1725 45.2747 56.9772 45.5938 56.834C45.916 56.6908 46.2692 56.6191 46.6533 56.6191C47.262 56.6191 47.7389 56.7721 48.084 57.0781C48.429 57.3809 48.6081 57.7992 48.6211 58.333V60.7646C48.6211 61.2497 48.6829 61.6354 48.8066 61.9219V62H47.8594ZM46.3604 61.3115C46.6436 61.3115 46.9121 61.2383 47.166 61.0918C47.4199 60.9453 47.6038 60.7549 47.7178 60.5205V59.4365H47.0098C45.903 59.4365 45.3496 59.7604 45.3496 60.4082C45.3496 60.6914 45.444 60.9128 45.6328 61.0723C45.8216 61.2318 46.0641 61.3115 46.3604 61.3115ZM54.251 59.7051H53.6162V62H52.7129V59.7051H52.0781L50.5986 62H49.4561L51.3457 59.2656L49.6367 56.7168H50.7305L52.0928 58.9043H52.7129V56.7168H53.6162V58.9043H54.2314L55.6035 56.7168H56.6973L54.9834 59.2705L56.873 62H55.7305L54.251 59.7051ZM59.7881 62.0977C59.0719 62.0977 58.4893 61.8633 58.04 61.3945C57.5908 60.9225 57.3662 60.2926 57.3662 59.5049V59.3389C57.3662 58.8148 57.4655 58.3477 57.6641 57.9375C57.8659 57.5241 58.1458 57.2018 58.5039 56.9707C58.8652 56.7363 59.2559 56.6191 59.6758 56.6191C60.3626 56.6191 60.8965 56.8454 61.2773 57.2979C61.6582 57.7503 61.8486 58.3981 61.8486 59.2412V59.6172H58.2695C58.2826 60.138 58.4339 60.5596 58.7236 60.8818C59.0166 61.2008 59.3877 61.3604 59.8369 61.3604C60.1559 61.3604 60.4261 61.2952 60.6475 61.165C60.8688 61.0348 61.0625 60.8623 61.2285 60.6475L61.7803 61.0771C61.3376 61.7575 60.6735 62.0977 59.7881 62.0977ZM59.6758 57.3613C59.3112 57.3613 59.0052 57.4948 58.7578 57.7617C58.5104 58.0254 58.3574 58.3965 58.2988 58.875H60.9453V58.8066C60.9193 58.3477 60.7956 57.9928 60.5742 57.7422C60.3529 57.4883 60.0534 57.3613 59.6758 57.3613ZM67.2148 62H66.3115V59.7441H63.8848V62H62.9766V56.7168H63.8848V59.0068H66.3115V56.7168H67.2148V62ZM72.0879 56.7168H72.9912V62H72.0879V58.1475L69.6514 62H68.748V56.7168H69.6514V60.5742L72.0879 56.7168ZM76.6338 62.0977C75.9176 62.0977 75.335 61.8633 74.8857 61.3945C74.4365 60.9225 74.2119 60.2926 74.2119 59.5049V59.3389C74.2119 58.8148 74.3112 58.3477 74.5098 57.9375C74.7116 57.5241 74.9915 57.2018 75.3496 56.9707C75.7109 56.7363 76.1016 56.6191 76.5215 56.6191C77.2083 56.6191 77.7422 56.8454 78.123 57.2979C78.5039 57.7503 78.6943 58.3981 78.6943 59.2412V59.6172H75.1152C75.1283 60.138 75.2796 60.5596 75.5693 60.8818C75.8623 61.2008 76.2334 61.3604 76.6826 61.3604C77.0016 61.3604 77.2718 61.2952 77.4932 61.165C77.7145 61.0348 77.9082 60.8623 78.0742 60.6475L78.626 61.0771C78.1833 61.7575 77.5192 62.0977 76.6338 62.0977ZM76.5215 57.3613C76.1569 57.3613 75.8509 57.4948 75.6035 57.7617C75.3561 58.0254 75.2031 58.3965 75.1445 58.875H77.791V58.8066C77.765 58.3477 77.6413 57.9928 77.4199 57.7422C77.1986 57.4883 76.8991 57.3613 76.5215 57.3613ZM86.1504 57.4492H84.3779V62H83.4746V57.4492H81.7363V56.7168H86.1504V57.4492ZM86.585 59.3096C86.585 58.792 86.6859 58.3265 86.8877 57.9131C87.0928 57.4997 87.376 57.1807 87.7373 56.9561C88.1019 56.7314 88.5169 56.6191 88.9824 56.6191C89.7018 56.6191 90.2829 56.8682 90.7256 57.3662C91.1715 57.8643 91.3945 58.5267 91.3945 59.3535V59.417C91.3945 59.9313 91.2952 60.3936 91.0967 60.8037C90.9014 61.2106 90.6198 61.528 90.252 61.7559C89.8874 61.9837 89.4674 62.0977 88.9922 62.0977C88.276 62.0977 87.695 61.8486 87.249 61.3506C86.8063 60.8525 86.585 60.1934 86.585 59.373V59.3096ZM87.4932 59.417C87.4932 60.0029 87.6283 60.4733 87.8984 60.8281C88.1719 61.1829 88.5365 61.3604 88.9922 61.3604C89.4512 61.3604 89.8158 61.1813 90.0859 60.8232C90.3561 60.4619 90.4912 59.9574 90.4912 59.3096C90.4912 58.7301 90.3529 58.2614 90.0762 57.9033C89.8027 57.542 89.4382 57.3613 88.9824 57.3613C88.5365 57.3613 88.1768 57.5387 87.9033 57.8936C87.6299 58.2484 87.4932 58.7562 87.4932 59.417ZM92.6104 62V56.7168H94.6709C95.374 56.7168 95.9128 56.8405 96.2871 57.0879C96.6647 57.332 96.8535 57.6917 96.8535 58.167C96.8535 58.4111 96.7803 58.6325 96.6338 58.8311C96.4873 59.0264 96.2708 59.1761 95.9844 59.2803C96.3034 59.3551 96.5589 59.5016 96.751 59.7197C96.9463 59.9378 97.0439 60.1982 97.0439 60.501C97.0439 60.986 96.8649 61.3571 96.5068 61.6143C96.152 61.8714 95.6491 62 94.998 62H92.6104ZM93.5137 59.6807V61.2725H95.0078C95.3854 61.2725 95.667 61.2025 95.8525 61.0625C96.0413 60.9225 96.1357 60.7256 96.1357 60.4717C96.1357 59.9443 95.7484 59.6807 94.9736 59.6807H93.5137ZM93.5137 58.958H94.6807C95.527 58.958 95.9502 58.7106 95.9502 58.2158C95.9502 57.721 95.5498 57.4655 94.749 57.4492H93.5137V58.958ZM101.502 62C101.45 61.8958 101.408 61.7103 101.375 61.4434C100.955 61.8796 100.454 62.0977 99.8711 62.0977C99.3503 62.0977 98.9222 61.9512 98.5869 61.6582C98.2549 61.362 98.0889 60.9876 98.0889 60.5352C98.0889 59.985 98.2972 59.5586 98.7139 59.2559C99.1338 58.9499 99.723 58.7969 100.481 58.7969H101.36V58.3818C101.36 58.0661 101.266 57.8154 101.077 57.6299C100.888 57.4411 100.61 57.3467 100.242 57.3467C99.9199 57.3467 99.6497 57.4281 99.4316 57.5908C99.2135 57.7536 99.1045 57.9505 99.1045 58.1816H98.1963C98.1963 57.918 98.2891 57.6641 98.4746 57.4199C98.6634 57.1725 98.9173 56.9772 99.2363 56.834C99.5586 56.6908 99.9118 56.6191 100.296 56.6191C100.905 56.6191 101.382 56.7721 101.727 57.0781C102.072 57.3809 102.251 57.7992 102.264 58.333V60.7646C102.264 61.2497 102.326 61.6354 102.449 61.9219V62H101.502ZM100.003 61.3115C100.286 61.3115 100.555 61.2383 100.809 61.0918C101.062 60.9453 101.246 60.7549 101.36 60.5205V59.4365H100.652C99.5456 59.4365 98.9922 59.7604 98.9922 60.4082C98.9922 60.6914 99.0866 60.9128 99.2754 61.0723C99.4642 61.2318 99.7067 61.3115 100.003 61.3115ZM108.143 59.417C108.143 60.221 107.959 60.8688 107.591 61.3604C107.223 61.8519 106.725 62.0977 106.097 62.0977C105.455 62.0977 104.951 61.8942 104.583 61.4873V64.0312H103.68V56.7168H104.505L104.549 57.3027C104.917 56.847 105.428 56.6191 106.082 56.6191C106.717 56.6191 107.218 56.8584 107.586 57.3369C107.957 57.8154 108.143 58.4811 108.143 59.334V59.417ZM107.239 59.3145C107.239 58.7188 107.112 58.2484 106.858 57.9033C106.604 57.5583 106.256 57.3857 105.813 57.3857C105.267 57.3857 104.856 57.6283 104.583 58.1133V60.6377C104.853 61.1195 105.267 61.3604 105.823 61.3604C106.256 61.3604 106.6 61.1895 106.854 60.8477C107.111 60.5026 107.239 59.9915 107.239 59.3145ZM112.557 62C112.505 61.8958 112.462 61.7103 112.43 61.4434C112.01 61.8796 111.508 62.0977 110.926 62.0977C110.405 62.0977 109.977 61.9512 109.642 61.6582C109.31 61.362 109.144 60.9876 109.144 60.5352C109.144 59.985 109.352 59.5586 109.769 59.2559C110.188 58.9499 110.778 58.7969 111.536 58.7969H112.415V58.3818C112.415 58.0661 112.321 57.8154 112.132 57.6299C111.943 57.4411 111.665 57.3467 111.297 57.3467C110.975 57.3467 110.704 57.4281 110.486 57.5908C110.268 57.7536 110.159 57.9505 110.159 58.1816H109.251C109.251 57.918 109.344 57.6641 109.529 57.4199C109.718 57.1725 109.972 56.9772 110.291 56.834C110.613 56.6908 110.966 56.6191 111.351 56.6191C111.959 56.6191 112.436 56.7721 112.781 57.0781C113.126 57.3809 113.305 57.7992 113.318 58.333V60.7646C113.318 61.2497 113.38 61.6354 113.504 61.9219V62H112.557ZM111.058 61.3115C111.341 61.3115 111.609 61.2383 111.863 61.0918C112.117 60.9453 112.301 60.7549 112.415 60.5205V59.4365H111.707C110.6 59.4365 110.047 59.7604 110.047 60.4082C110.047 60.6914 110.141 60.9128 110.33 61.0723C110.519 61.2318 110.761 61.3115 111.058 61.3115ZM9.3291 73.3604C9.65137 73.3604 9.93294 73.2627 10.1738 73.0674C10.4147 72.8721 10.5482 72.6279 10.5742 72.335H11.4287C11.4124 72.6377 11.3083 72.9258 11.1162 73.1992C10.9242 73.4727 10.667 73.6908 10.3447 73.8535C10.0257 74.0163 9.68717 74.0977 9.3291 74.0977C8.6097 74.0977 8.03678 73.8584 7.61035 73.3799C7.18717 72.8981 6.97559 72.2406 6.97559 71.4072V71.2559C6.97559 70.7415 7.06999 70.2842 7.25879 69.8838C7.44759 69.4834 7.71777 69.1725 8.06934 68.9512C8.42415 68.7298 8.84245 68.6191 9.32422 68.6191C9.91667 68.6191 10.4082 68.7965 10.7988 69.1514C11.1927 69.5062 11.4027 69.9668 11.4287 70.5332H10.5742C10.5482 70.1914 10.418 69.9115 10.1836 69.6934C9.95247 69.472 9.66602 69.3613 9.32422 69.3613C8.86523 69.3613 8.50879 69.5273 8.25488 69.8594C8.00423 70.1882 7.87891 70.665 7.87891 71.29V71.4609C7.87891 72.0697 8.00423 72.5384 8.25488 72.8672C8.50553 73.196 8.86361 73.3604 9.3291 73.3604ZM14.0898 71.749H13.4307V74H12.5225V68.7168H13.4307V70.9531H14.0215L15.7988 68.7168H16.8926L14.8027 71.2559L17.0684 74H15.9209L14.0898 71.749ZM17.498 71.3096C17.498 70.792 17.599 70.3265 17.8008 69.9131C18.0059 69.4997 18.2891 69.1807 18.6504 68.9561C19.015 68.7314 19.43 68.6191 19.8955 68.6191C20.6149 68.6191 21.196 68.8682 21.6387 69.3662C22.0846 69.8643 22.3076 70.5267 22.3076 71.3535V71.417C22.3076 71.9313 22.2083 72.3936 22.0098 72.8037C21.8145 73.2106 21.5329 73.528 21.165 73.7559C20.8005 73.9837 20.3805 74.0977 19.9053 74.0977C19.1891 74.0977 18.6081 73.8486 18.1621 73.3506C17.7194 72.8525 17.498 72.1934 17.498 71.373V71.3096ZM18.4062 71.417C18.4062 72.0029 18.5413 72.4733 18.8115 72.8281C19.085 73.1829 19.4495 73.3604 19.9053 73.3604C20.3643 73.3604 20.7288 73.1813 20.999 72.8232C21.2692 72.4619 21.4043 71.9574 21.4043 71.3096C21.4043 70.7301 21.266 70.2614 20.9893 69.9033C20.7158 69.542 20.3512 69.3613 19.8955 69.3613C19.4495 69.3613 19.0898 69.5387 18.8164 69.8936C18.543 70.2484 18.4062 70.7562 18.4062 71.417ZM27.9033 71.417C27.9033 72.221 27.7194 72.8688 27.3516 73.3604C26.9837 73.8519 26.4857 74.0977 25.8574 74.0977C25.2161 74.0977 24.7116 73.8942 24.3438 73.4873V76.0312H23.4404V68.7168H24.2656L24.3096 69.3027C24.6774 68.847 25.1885 68.6191 25.8428 68.6191C26.4775 68.6191 26.9788 68.8584 27.3467 69.3369C27.7178 69.8154 27.9033 70.4811 27.9033 71.334V71.417ZM27 71.3145C27 70.7188 26.873 70.2484 26.6191 69.9033C26.3652 69.5583 26.0169 69.3857 25.5742 69.3857C25.0273 69.3857 24.6172 69.6283 24.3438 70.1133V72.6377C24.6139 73.1195 25.0273 73.3604 25.584 73.3604C26.0169 73.3604 26.3604 73.1895 26.6143 72.8477C26.8714 72.5026 27 71.9915 27 71.3145ZM28.8164 71.3096C28.8164 70.792 28.9173 70.3265 29.1191 69.9131C29.3242 69.4997 29.6074 69.1807 29.9688 68.9561C30.3333 68.7314 30.7484 68.6191 31.2139 68.6191C31.9333 68.6191 32.5143 68.8682 32.957 69.3662C33.403 69.8643 33.626 70.5267 33.626 71.3535V71.417C33.626 71.9313 33.5267 72.3936 33.3281 72.8037C33.1328 73.2106 32.8512 73.528 32.4834 73.7559C32.1188 73.9837 31.6989 74.0977 31.2236 74.0977C30.5075 74.0977 29.9264 73.8486 29.4805 73.3506C29.0378 72.8525 28.8164 72.1934 28.8164 71.373V71.3096ZM29.7246 71.417C29.7246 72.0029 29.8597 72.4733 30.1299 72.8281C30.4033 73.1829 30.7679 73.3604 31.2236 73.3604C31.6826 73.3604 32.0472 73.1813 32.3174 72.8232C32.5876 72.4619 32.7227 71.9574 32.7227 71.3096C32.7227 70.7301 32.5843 70.2614 32.3076 69.9033C32.0342 69.542 31.6696 69.3613 31.2139 69.3613C30.7679 69.3613 30.4082 69.5387 30.1348 69.8936C29.8613 70.2484 29.7246 70.7562 29.7246 71.417ZM41.5605 74H40.6572V69.4639H38.2256V74H37.3174V68.7168H41.5605V74ZM42.7715 71.3096C42.7715 70.792 42.8724 70.3265 43.0742 69.9131C43.2793 69.4997 43.5625 69.1807 43.9238 68.9561C44.2884 68.7314 44.7035 68.6191 45.1689 68.6191C45.8883 68.6191 46.4694 68.8682 46.9121 69.3662C47.3581 69.8643 47.5811 70.5267 47.5811 71.3535V71.417C47.5811 71.9313 47.4818 72.3936 47.2832 72.8037C47.0879 73.2106 46.8063 73.528 46.4385 73.7559C46.0739 73.9837 45.654 74.0977 45.1787 74.0977C44.4626 74.0977 43.8815 73.8486 43.4355 73.3506C42.9928 72.8525 42.7715 72.1934 42.7715 71.373V71.3096ZM43.6797 71.417C43.6797 72.0029 43.8148 72.4733 44.085 72.8281C44.3584 73.1829 44.723 73.3604 45.1787 73.3604C45.6377 73.3604 46.0023 73.1813 46.2725 72.8232C46.5426 72.4619 46.6777 71.9574 46.6777 71.3096C46.6777 70.7301 46.5394 70.2614 46.2627 69.9033C45.9893 69.542 45.6247 69.3613 45.1689 69.3613C44.723 69.3613 44.3633 69.5387 44.0898 69.8936C43.8164 70.2484 43.6797 70.7562 43.6797 71.417ZM52.752 68.7168V74H51.8438V71.9443H50.4814L49.2363 74H48.2598L49.5879 71.8076C49.2493 71.6839 48.9889 71.4935 48.8066 71.2363C48.6276 70.9759 48.5381 70.6732 48.5381 70.3281C48.5381 69.8464 48.7188 69.459 49.0801 69.166C49.4414 68.8698 49.9248 68.7201 50.5303 68.7168H52.752ZM49.4463 70.3379C49.4463 70.5951 49.5342 70.8034 49.71 70.9629C49.8857 71.1191 50.1185 71.1989 50.4082 71.2021H51.8438V69.4492H50.5449C50.2096 69.4492 49.9427 69.5322 49.7441 69.6982C49.5456 69.861 49.4463 70.0742 49.4463 70.3379ZM54.2852 74V68.7168H56.3457C57.0488 68.7168 57.5876 68.8405 57.9619 69.0879C58.3395 69.332 58.5283 69.6917 58.5283 70.167C58.5283 70.4111 58.4551 70.6325 58.3086 70.8311C58.1621 71.0264 57.9456 71.1761 57.6592 71.2803C57.9782 71.3551 58.2337 71.5016 58.4258 71.7197C58.6211 71.9378 58.7188 72.1982 58.7188 72.501C58.7188 72.986 58.5397 73.3571 58.1816 73.6143C57.8268 73.8714 57.3239 74 56.6729 74H54.2852ZM55.1885 71.6807V73.2725H56.6826C57.0602 73.2725 57.3418 73.2025 57.5273 73.0625C57.7161 72.9225 57.8105 72.7256 57.8105 72.4717C57.8105 71.9443 57.4232 71.6807 56.6484 71.6807H55.1885ZM55.1885 70.958H56.3555C57.2018 70.958 57.625 70.7106 57.625 70.2158C57.625 69.721 57.2246 69.4655 56.4238 69.4492H55.1885V70.958ZM63.333 68.7168H64.2363V74H63.333V70.1475L60.8965 74H59.9932V68.7168H60.8965V72.5742L63.333 68.7168ZM69.6123 69.4492H67.8398V74H66.9365V69.4492H65.1982V68.7168H69.6123V69.4492ZM72.2197 73.3604C72.542 73.3604 72.8236 73.2627 73.0645 73.0674C73.3053 72.8721 73.4388 72.6279 73.4648 72.335H74.3193C74.3031 72.6377 74.1989 72.9258 74.0068 73.1992C73.8148 73.4727 73.5576 73.6908 73.2354 73.8535C72.9163 74.0163 72.5778 74.0977 72.2197 74.0977C71.5003 74.0977 70.9274 73.8584 70.501 73.3799C70.0778 72.8981 69.8662 72.2406 69.8662 71.4072V71.2559C69.8662 70.7415 69.9606 70.2842 70.1494 69.8838C70.3382 69.4834 70.6084 69.1725 70.96 68.9512C71.3148 68.7298 71.7331 68.6191 72.2148 68.6191C72.8073 68.6191 73.2988 68.7965 73.6895 69.1514C74.0833 69.5062 74.2933 69.9668 74.3193 70.5332H73.4648C73.4388 70.1914 73.3086 69.9115 73.0742 69.6934C72.8431 69.472 72.5566 69.3613 72.2148 69.3613C71.7559 69.3613 71.3994 69.5273 71.1455 69.8594C70.8949 70.1882 70.7695 70.665 70.7695 71.29V71.4609C70.7695 72.0697 70.8949 72.5384 71.1455 72.8672C71.3962 73.196 71.7542 73.3604 72.2197 73.3604ZM79.373 68.7168V74H78.4648V71.9443H77.1025L75.8574 74H74.8809L76.209 71.8076C75.8704 71.6839 75.61 71.4935 75.4277 71.2363C75.2487 70.9759 75.1592 70.6732 75.1592 70.3281C75.1592 69.8464 75.3398 69.459 75.7012 69.166C76.0625 68.8698 76.5459 68.7201 77.1514 68.7168H79.373ZM76.0674 70.3379C76.0674 70.5951 76.1553 70.8034 76.3311 70.9629C76.5068 71.1191 76.7396 71.1989 77.0293 71.2021H78.4648V69.4492H77.166C76.8307 69.4492 76.5638 69.5322 76.3652 69.6982C76.1667 69.861 76.0674 70.0742 76.0674 70.3379ZM87.6201 74H86.7168V71.7441H84.29V74H83.3818V68.7168H84.29V71.0068H86.7168V68.7168H87.6201V74ZM92.3369 74C92.2848 73.8958 92.2425 73.7103 92.21 73.4434C91.79 73.8796 91.2887 74.0977 90.7061 74.0977C90.1852 74.0977 89.7572 73.9512 89.4219 73.6582C89.0898 73.362 88.9238 72.9876 88.9238 72.5352C88.9238 71.985 89.1322 71.5586 89.5488 71.2559C89.9688 70.9499 90.5579 70.7969 91.3164 70.7969H92.1953V70.3818C92.1953 70.0661 92.1009 69.8154 91.9121 69.6299C91.7233 69.4411 91.445 69.3467 91.0771 69.3467C90.7549 69.3467 90.4847 69.4281 90.2666 69.5908C90.0485 69.7536 89.9395 69.9505 89.9395 70.1816H89.0312C89.0312 69.918 89.124 69.6641 89.3096 69.4199C89.4984 69.1725 89.7523 68.9772 90.0713 68.834C90.3936 68.6908 90.7467 68.6191 91.1309 68.6191C91.7396 68.6191 92.2165 68.7721 92.5615 69.0781C92.9066 69.3809 93.0856 69.7992 93.0986 70.333V72.7646C93.0986 73.2497 93.1605 73.6354 93.2842 73.9219V74H92.3369ZM90.8379 73.3115C91.1211 73.3115 91.3896 73.2383 91.6436 73.0918C91.8975 72.9453 92.0814 72.7549 92.1953 72.5205V71.4365H91.4873C90.3805 71.4365 89.8271 71.7604 89.8271 72.4082C89.8271 72.6914 89.9215 72.9128 90.1104 73.0723C90.2992 73.2318 90.5417 73.3115 90.8379 73.3115ZM99.1143 73.3604C99.4365 73.3604 99.7181 73.2627 99.959 73.0674C100.2 72.8721 100.333 72.6279 100.359 72.335H101.214C101.198 72.6377 101.093 72.9258 100.901 73.1992C100.709 73.4727 100.452 73.6908 100.13 73.8535C99.8109 74.0163 99.4723 74.0977 99.1143 74.0977C98.3949 74.0977 97.8219 73.8584 97.3955 73.3799C96.9723 72.8981 96.7607 72.2406 96.7607 71.4072V71.2559C96.7607 70.7415 96.8551 70.2842 97.0439 69.8838C97.2327 69.4834 97.5029 69.1725 97.8545 68.9512C98.2093 68.7298 98.6276 68.6191 99.1094 68.6191C99.7018 68.6191 100.193 68.7965 100.584 69.1514C100.978 69.5062 101.188 69.9668 101.214 70.5332H100.359C100.333 70.1914 100.203 69.9115 99.9688 69.6934C99.7376 69.472 99.4512 69.3613 99.1094 69.3613C98.6504 69.3613 98.2939 69.5273 98.04 69.8594C97.7894 70.1882 97.6641 70.665 97.6641 71.29V71.4609C97.6641 72.0697 97.7894 72.5384 98.04 72.8672C98.2907 73.196 98.6488 73.3604 99.1143 73.3604ZM105.491 74C105.439 73.8958 105.397 73.7103 105.364 73.4434C104.944 73.8796 104.443 74.0977 103.86 74.0977C103.34 74.0977 102.911 73.9512 102.576 73.6582C102.244 73.362 102.078 72.9876 102.078 72.5352C102.078 71.985 102.286 71.5586 102.703 71.2559C103.123 70.9499 103.712 70.7969 104.471 70.7969H105.35V70.3818C105.35 70.0661 105.255 69.8154 105.066 69.6299C104.878 69.4411 104.599 69.3467 104.231 69.3467C103.909 69.3467 103.639 69.4281 103.421 69.5908C103.203 69.7536 103.094 69.9505 103.094 70.1816H102.186C102.186 69.918 102.278 69.6641 102.464 69.4199C102.653 69.1725 102.907 68.9772 103.226 68.834C103.548 68.6908 103.901 68.6191 104.285 68.6191C104.894 68.6191 105.371 68.7721 105.716 69.0781C106.061 69.3809 106.24 69.7992 106.253 70.333V72.7646C106.253 73.2497 106.315 73.6354 106.438 73.9219V74H105.491ZM103.992 73.3115C104.275 73.3115 104.544 73.2383 104.798 73.0918C105.052 72.9453 105.236 72.7549 105.35 72.5205V71.4365H104.642C103.535 71.4365 102.981 71.7604 102.981 72.4082C102.981 72.6914 103.076 72.9128 103.265 73.0723C103.453 73.2318 103.696 73.3115 103.992 73.3115ZM111.087 68.7168H111.99V74H111.087V70.1475L108.65 74H107.747V68.7168H108.65V72.5742L111.087 68.7168ZM111.331 66.793C111.331 67.1868 111.196 67.5042 110.926 67.7451C110.659 67.9827 110.307 68.1016 109.871 68.1016C109.435 68.1016 109.082 67.9811 108.812 67.7402C108.541 67.4993 108.406 67.1836 108.406 66.793H109.144C109.144 67.0208 109.205 67.1999 109.329 67.3301C109.453 67.457 109.633 67.5205 109.871 67.5205C110.099 67.5205 110.276 67.457 110.403 67.3301C110.534 67.2031 110.599 67.0241 110.599 66.793H111.331ZM117.366 69.4492H115.594V74H114.69V69.4492H112.952V68.7168H117.366V69.4492ZM120.047 74.0977C119.331 74.0977 118.748 73.8633 118.299 73.3945C117.85 72.9225 117.625 72.2926 117.625 71.5049V71.3389C117.625 70.8148 117.724 70.3477 117.923 69.9375C118.125 69.5241 118.405 69.2018 118.763 68.9707C119.124 68.7363 119.515 68.6191 119.935 68.6191C120.621 68.6191 121.155 68.8454 121.536 69.2979C121.917 69.7503 122.107 70.3981 122.107 71.2412V71.6172H118.528C118.541 72.138 118.693 72.5596 118.982 72.8818C119.275 73.2008 119.646 73.3604 120.096 73.3604C120.415 73.3604 120.685 73.2952 120.906 73.165C121.128 73.0348 121.321 72.8623 121.487 72.6475L122.039 73.0771C121.596 73.7575 120.932 74.0977 120.047 74.0977ZM119.935 69.3613C119.57 69.3613 119.264 69.4948 119.017 69.7617C118.769 70.0254 118.616 70.3965 118.558 70.875H121.204V70.8066C121.178 70.3477 121.054 69.9928 120.833 69.7422C120.612 69.4883 120.312 69.3613 119.935 69.3613Z" fill="#939393"/>
</svg>
