<?xml version="1.0" encoding="UTF-8"?>
<svg width="36px" height="40px" viewBox="0 0 36 40" version="1.1" xmlns="http://www.w3.org/2000/svg" xmlns:xlink="http://www.w3.org/1999/xlink">
    <title>champagne-glass</title>
    <g id="Page-1" stroke="none" stroke-width="1" fill="none" fill-rule="evenodd">
        <g id="champagne-glass" fill-rule="nonzero">
            <path d="M17.1285431,12.4616008 L16.9676838,15.0312389 L16.9158742,15.2236068 L16.45,16.153 L16.2194364,17.5798935 L16.1934694,17.6770367 L15.4158742,19.7236068 L14.3846858,21.7773501 L13.3129937,23.3848882 L9.10600143,25.5584828 L5.5711275,23.8639123 L3.90825429,19.4295837 L4.05848311,19.2140727 L4.36440322,18.7893657 L4.67608074,18.3716387 C5.15230608,17.7428207 5.65896286,17.1138521 6.17556013,16.5253644 C6.62778375,16.0102086 7.06733779,15.5497234 7.48812263,15.1574093 C7.97319861,14.705154 8.42604375,14.3501199 8.84542173,14.1050877 C9.60629987,13.6605253 10.830453,13.3086296 12.4115436,13.0217343 C13.3202379,12.8568481 14.2911375,12.7241306 15.2616575,12.6204245 C15.3747908,12.6083355 15.4852417,12.5969351 15.5927163,12.5862104 L15.5927163,12.5862104 L16.1994987,12.5298641 L17.1285431,12.4616008 Z" id="Path" fill="#A6B1FB"></path>
            <path d="M16.4549606,4.43636 L8.88296062,2.959 C8.55426062,2.89461 8.22196062,3.04628 8.05416062,3.33559 C7.94090062,3.5309 5.26695062,8.19032 4.10423062,14.1498 C3.83598062,15.5249 3.71788062,16.89 3.74535062,18.1879 C3.75816062,19.2044 3.88054062,20.2277 4.10912062,21.218 C4.17412062,21.4987 4.24980062,21.7774 4.33586062,22.0523 C4.98192062,24.115 6.09154062,25.5243 7.50389062,26.1066 L5.86845062,34.921 L2.34642062,34.2337 C1.45439062,34.0598 0.534290616,34.556 0.194930616,35.3998 C0.137560616,35.5429 0.102770616,35.6909 0.0734706162,35.8417 C0.0454006162,35.9845 0.0145706162,36.1267 0.00450061617,36.2723 C-0.0275393838,36.7334 0.112540616,37.1951 0.391160616,37.5635 C0.675280616,37.9392 1.09306062,38.1986 1.55510062,38.2889 L10.1463606,39.9652 C10.8913606,40.1105 11.6811606,39.7794 12.1083606,39.1535 C12.2200606,38.9896 12.3055606,38.808 12.3592606,38.617 C12.4251606,38.3832 12.4785606,38.1299 12.4904606,37.8873 C12.5124606,37.4411 12.3711606,36.9928 12.1022606,36.6367 C11.8193606,36.2622 11.3982606,36.0004 10.9374606,35.9104 L7.40807062,35.2216 L9.04416062,26.4047 C10.4863606,26.3916 11.9551606,25.5939 13.2704606,24.0973 C13.3782606,23.9752 13.4810606,23.8498 13.5826606,23.7226 C14.5482606,22.518 15.3563606,21.0007 15.9496606,19.299 C16.2557606,18.4195 16.4980606,17.5168 16.6762606,16.6028 C17.8392606,10.6436 17.1129606,5.32075 17.0815606,5.09706 C17.0348606,4.76595 16.7833606,4.50044 16.4549606,4.43636 Z M10.8632606,37.5998 C10.9230606,37.6886 10.9270606,37.7957 10.9120606,37.8986 C10.8983606,37.9932 10.8812606,38.0988 10.8464606,38.1882 C10.7829606,38.353 10.6255606,38.4604 10.4466606,38.4256 L1.85570062,36.7493 C1.75224062,36.7291 1.66161062,36.6614 1.61156062,36.5689 C1.54320062,36.4432 1.58043062,36.3126 1.60545062,36.1807 C1.62804062,36.0623 1.64513062,35.9455 1.73912062,35.8603 C1.82121062,35.7858 1.93688062,35.7523 2.04582062,35.7736 L10.6371606,37.45 C10.7622606,37.4744 10.8324606,37.5543 10.8632606,37.5998 Z M9.14696062,4.60878 L15.5907606,5.8661 C15.7399606,7.3578 16.0396606,11.6745 15.1369606,16.3025 C15.0649606,16.6715 14.9812606,17.0343 14.8894606,17.3911 L5.31425062,17.3911 C5.33989062,16.4377 5.44914062,15.4486 5.64384062,14.4501 C6.54533062,9.83125 8.44806062,5.93629 9.14696062,4.60878 Z M13.7355606,20.5448 C13.3360606,21.3593 12.8575606,22.1402 12.2798606,22.8412 C11.4375606,23.8642 10.5489606,24.5111 9.69326062,24.7412 C9.26196062,24.8557 8.80886062,24.87 8.37726062,24.7504 C7.64976062,24.5477 7.01439062,23.985 6.51329062,23.1491 C5.93407062,22.1762 5.62675062,21.0489 5.46074062,19.9362 C5.41222062,19.6124 5.37682062,19.2862 5.35210062,18.9597 L14.4057606,18.9597 C14.2110606,19.4995 13.9891606,20.0299 13.7355606,20.5448 Z" id="Shape" fill="#000000"></path>
            <path d="M13.7611606,13.6148 C13.7856606,13.6169 13.8097606,13.6181 13.8335606,13.6181 C14.2345606,13.6181 14.5766606,13.312 14.6138606,12.9049 C14.7609606,11.2918 14.8021606,9.62461 14.7359606,7.9498 C14.7185606,7.51676 14.3575606,7.17954 13.9211606,7.19693 C13.4880606,7.21402 13.1511606,7.57871 13.1682606,8.01175 C13.2320606,9.6185 13.1926606,11.2167 13.0513606,12.7624 C13.0119606,13.1939 13.3299606,13.5754 13.7611606,13.6148 Z" id="Path" fill="#000000"></path>
            <path d="M19.4339781,12.4616008 L20.0033555,12.5012052 L20.6566034,12.5560497 L21.3008637,12.6204245 C22.2713837,12.7241306 23.2422833,12.8568481 24.1509776,13.0217343 C25.7320682,13.3086296 26.9562214,13.6605253 27.7170995,14.1050877 C27.778048,14.1406984 27.8392461,14.1782696 27.9006986,14.2177667 C28.6056059,14.6708299 29.3367923,15.3698653 30.0810444,16.2507017 C30.5409815,16.795046 30.9783492,17.3763672 31.3797413,17.9575429 C31.4141934,18.0074261 31.4473243,18.0557518 31.4790927,18.1024103 L31.4790927,18.1024103 L31.7922683,18.5752731 L32.0226151,18.9467888 L30.3884236,23.3046326 L27.5235031,25.5930905 L23.2495275,23.3848882 L22.146647,21.7236068 L21.1262518,19.6770367 L20.3690518,17.6770367 L20.3430849,17.5798935 L20.112,16.156 L19.646647,15.2236068 L19.5948374,15.0312389 L19.4339781,12.4616008 Z" id="Path" fill="#A6B1FB"></path>
            <path d="M35.9016606,36.0329 C35.8458606,35.7458 35.7842606,35.4552 35.6450606,35.1949 C35.5260606,34.9718 35.3557606,34.775 35.1579606,34.6178 C34.7191606,34.2687 34.1426606,34.1262 33.5915606,34.2339 L30.0655606,34.9218 L28.3449606,26.1034 C31.3686606,24.8467 32.8487606,19.8382 31.7387606,14.1497 C30.5760606,8.19022 27.9018606,3.5308 27.7889606,3.33549 C27.6210606,3.04618 27.2881606,2.89481 26.9600606,2.9589 L19.3877606,4.43625 C19.0596606,4.50034 18.8078606,4.76584 18.7611606,5.09696 C18.7297606,5.32065 18.0037606,10.6435 19.1664606,16.6027 C20.2763606,22.2912 23.5310606,26.376 26.8053606,26.404 L28.5259606,35.2224 L25.0002606,35.9103 C24.2659606,36.0534 23.6632606,36.6415 23.4935606,37.3687 C23.3931606,37.8005 23.4596606,38.2629 23.5964606,38.6794 C23.7294606,39.085 24.0007606,39.4411 24.3559606,39.6773 C24.7743606,39.9557 25.2977606,40.0613 25.7912606,39.9651 L34.3825606,38.2888 C35.4106606,38.088 36.1028606,37.0626 35.9016606,36.0329 Z M20.2525606,5.866 L26.6960606,4.60868 C27.3952606,5.9368 29.2980606,9.83146 30.1991606,14.45 C30.2391606,14.6548 30.2748606,14.8589 30.3075606,15.0625 L20.4909606,15.0625 C19.8579606,10.9273 20.1173606,7.22495 20.2525606,5.866 Z M34.3080606,36.5993 C34.2775606,36.6448 34.2076606,36.7245 34.0822606,36.7489 L25.4912606,38.4255 C25.3828606,38.4466 25.2663606,38.4133 25.1848606,38.3391 C25.0917606,38.2552 25.0728606,38.1344 25.0505606,38.0175 C25.0273606,37.8979 24.9938606,37.7712 25.0453606,37.654 C25.0911606,37.55 25.1891606,37.4715 25.3008606,37.4499 L33.8918606,35.7732 C34.0682606,35.7387 34.2278606,35.8492 34.2915606,36.0107 C34.3572606,36.1761 34.4148606,36.4407 34.3080606,36.5993 Z M26.6875606,24.8318 C26.0109606,24.7912 25.3780606,24.4814 24.8393606,24.0853 C24.3007606,23.6892 23.8359606,23.1985 23.4248606,22.6729 C23.1758606,22.3543 22.9469606,22.0202 22.7348606,21.6759 C22.3317606,21.0223 21.9624606,20.2865 21.6414606,19.4878 C21.2688606,18.5638 20.9831606,17.6049 20.7738606,16.6311 L30.4881606,16.6311 C30.5882606,18.0584 30.5254606,19.5183 30.1939606,20.9142 C30.0993606,21.3125 29.9812606,21.7055 29.8351606,22.0879 C29.2845606,23.5271 28.4581606,24.4604 27.4919606,24.743 C27.2313606,24.8183 26.9588606,24.8476 26.6875606,24.8318 Z" id="Shape" fill="#000000"></path>
            <path d="M18.5890606,0.784302 C18.5890606,0.351257 18.2378606,0 17.8047606,0 C17.3714606,0 17.0204606,0.351257 17.0204606,0.784302 L17.0204606,3.33282 C17.0204606,3.76587 17.3714606,4.11713 17.8047606,4.11713 C18.2378606,4.11713 18.5890606,3.76587 18.5890606,3.33282 L18.5890606,0.784302 Z" id="Path" fill="#000000"></path>
            <path d="M14.6239606,2.96818 C14.7716606,3.2114 15.0300606,3.34568 15.2952606,3.34568 C15.4338606,3.34568 15.5745606,3.30875 15.7014606,3.23155 C16.0716606,3.00663 16.1897606,2.52415 15.9648606,2.15397 L14.9980606,0.562173 C14.7731606,0.1923 14.2909606,0.0741965 13.9204606,0.299111 C13.5503606,0.524026 13.4325606,1.00651 13.6574606,1.37669 L14.6239606,2.96818 Z" id="Path" fill="#000000"></path>
            <path d="M20.0636606,3.23162 C20.1906606,3.30883 20.3313606,3.34575 20.4698606,3.34575 C20.7350606,3.34575 20.9935606,3.21147 21.1412606,2.96825 L22.1077606,1.37676 C22.3326606,1.00658 22.2148606,0.524097 21.8446606,0.299182 C21.4742606,0.0742675 20.9920606,0.192065 20.7671606,0.562244 L19.8006606,2.15404 C19.5754606,2.52422 19.6935606,3.0067 20.0636606,3.23162 Z" id="Path" fill="#000000"></path>
            <path d="M26.1504606,9.76673 C26.4488606,10.5846 26.7186606,11.4135 26.9548606,12.2515 C27.0482606,12.5829 27.0995606,12.9317 27.4190606,13.124 C27.7000606,13.2927 28.0678606,13.2662 28.3211606,13.0577 C28.5588606,12.8624 28.6559606,12.5454 28.5808606,12.249 C28.4779606,11.8422 28.3559606,11.4391 28.2323606,11.0378 C28.1047606,10.6224 27.9692606,10.2092 27.8267606,9.79878 C27.7562606,9.59553 27.6924606,9.38587 27.6076606,9.18812 C27.5499606,9.05293 27.4538606,8.93574 27.3329606,8.85243 C27.0567606,8.662 26.6795606,8.67024 26.4119606,8.87318 C26.1415606,9.07917 26.0335606,9.44752 26.1504606,9.76673 Z" id="Path" fill="#000000"></path>
            <path d="M14.1789606,15.9405 C14.1789606,16.3754 13.8261606,16.7281 13.3913606,16.7281 C12.9561606,16.7281 12.6036606,16.3754 12.6036606,15.9405 C12.6036606,15.5053 12.9561606,15.1528 13.3913606,15.1528 C13.8261606,15.1528 14.1789606,15.5053 14.1789606,15.9405 Z" id="Path" fill="#000000"></path>
            <path d="M26.4931606,6.60675 C26.4931606,7.04163 26.1403606,7.39441 25.7054606,7.39441 C25.2705606,7.39441 24.9178606,7.04163 24.9178606,6.60675 C24.9178606,6.17157 25.2705606,5.81909 25.7054606,5.81909 C26.1403606,5.81909 26.4931606,6.17157 26.4931606,6.60675 Z" id="Path" fill="#000000"></path>
        </g>
    </g>
</svg>