<?xml version="1.0" encoding="UTF-8"?>
<svg width="21px" height="21px" viewBox="0 0 21 21" version="1.1" xmlns="http://www.w3.org/2000/svg" xmlns:xlink="http://www.w3.org/1999/xlink">
    <title>clean</title>
    <g id="Page-1" stroke="none" stroke-width="1" fill="none" fill-rule="evenodd">
        <g id="clean" transform="translate(0.000488, 0.000000)" fill-rule="nonzero">
            <path d="M13.8307308,8.73641426 C15.2471478,8.59214926 16.7499149,8.75250574 18.2233116,9.10673696 C18.6066582,9.19890043 18.9587666,9.2977429 19.2723458,9.39684349 L19.2723458,9.39684349 L19.6227419,9.51370099 L20.0000338,9.65470037 L19.9979804,13.4559527 L20.5139593,19.1317202 L19.2676257,21.0012206 L13.0000338,21.0012206 L12.8205438,20.9678932 C12.7672473,20.9473945 12.7020093,20.9205337 12.6261348,20.8872445 L12.6261348,20.8872445 L12.3679068,20.7680248 L12.0536897,20.6098356 C11.4909772,20.3152135 10.9284032,19.9581245 10.4011807,19.5355602 C8.10811639,17.6976892 7.19728663,15.2590038 8.54486966,12.2943211 C9.54046497,10.103986 11.403295,8.98365363 13.8307308,8.73641426 Z" id="Path" fill="#A6B1FB"></path>
            <path d="M20.8533338,5.82032061 C20.5142338,4.83822061 19.5023338,3.98212061 17.8521338,3.27372061 L17.8521338,2.45122061 C17.8502338,2.00785061 17.5701338,1.61341061 17.1521338,1.46562061 L17.1521338,0.701220608 C17.1521338,0.314621608 16.8387338,0.00122060779 16.4521338,0.00122060779 L15.7521338,0.00122060779 C15.3655338,0.00122060779 15.0521338,0.314621608 15.0521338,0.701220608 L15.0521338,1.46562061 C14.6341338,1.61341061 14.3539338,2.00785061 14.3521338,2.45122061 L14.3521338,3.27197061 C12.7120338,3.95727061 11.7005338,4.80287061 11.3533338,5.78847061 C11.1212338,6.48464061 11.2110338,7.24801061 11.5983338,7.87132061 C12.4806338,9.45752061 12.2073338,11.0637206 12.0078338,12.2369206 L11.9787338,12.4087206 C11.9213338,12.7615206 11.8699338,13.0496206 11.8233338,13.3012206 L0.699668805,13.3012206 C0.382301805,13.3018206 0.105031805,13.5158206 0.0240865048,13.8227206 C-0.0568590952,14.1295206 0.0787763048,14.4525206 0.354568805,14.6095206 L1.7402238,15.4012206 L0.699668805,15.4012206 C0.382301805,15.4018206 0.105031805,15.6158206 0.0240865048,15.9227206 C-0.0568590952,16.2295206 0.0787763048,16.5525206 0.354568805,16.7095206 L1.7402238,17.5012206 L0.699668805,17.5012206 C0.382402805,17.5014206 0.104927805,17.7149206 0.0235072048,18.0216206 C-0.0579134952,18.3282206 0.0770817048,18.6513206 0.352468805,18.8088206 L4.0274738,20.9088206 C4.1331938,20.9693206 4.2528638,21.0012365 4.3746638,21.0012365 L11.0246338,21.0012365 C11.1464338,21.0009206 11.2660338,20.9691206 11.3718338,20.9088206 L12.2146338,20.4265206 C12.6015338,20.7973206 13.1173338,21.0033206 13.6531338,21.0012365 L18.5531338,21.0012365 C19.7124338,20.9999206 20.6518338,20.0604206 20.6531338,18.9012206 L20.6531338,16.1012206 C20.6747338,15.2026206 20.5925338,14.3045206 20.4081338,13.4248206 C20.3567338,13.1448206 20.2968338,12.8210206 20.2289338,12.4070206 L20.1999338,12.2358206 C20.0011338,11.0630206 19.7277338,9.45717061 20.6097338,7.87132061 C20.9895338,7.25707061 21.0787338,6.50644061 20.8533338,5.82032061 Z M15.7521338,0.701220608 L16.4521338,0.701220608 L16.4521338,1.40122061 L15.7521338,1.40122061 L15.7521338,0.701220608 Z M15.0521338,2.45122061 C15.0521338,2.25792061 15.2088338,2.10122061 15.4021338,2.10122061 L16.8021338,2.10122061 C16.9954338,2.10122061 17.1521338,2.25792061 17.1521338,2.45122061 L17.1521338,3.15122061 L15.0521338,3.15122061 L15.0521338,2.45122061 Z M0.699668805,14.0012206 L14.6975338,14.0012206 L12.2475338,15.4012206 L3.1514238,15.4012206 L0.699668805,14.0012206 Z M0.699668805,16.1012206 L14.6975338,16.1012206 L12.2475338,17.5012206 L3.1514238,17.5012206 L0.699668805,16.1012206 Z M11.0246338,20.3012206 L4.3746638,20.3012206 L0.699668805,18.2012206 L14.6996338,18.2012206 L11.0246338,20.3012206 Z M19.9972338,7.53112061 C18.9959338,9.33152061 19.3046338,11.1501206 19.5072338,12.3531206 L19.5359338,12.5214206 C19.6059338,12.9414206 19.6647338,13.2683206 19.7172338,13.5511206 C19.8947338,14.3891206 19.9739338,15.2449206 19.9531338,16.1012206 L19.9531338,18.9012206 C19.9531338,19.6744206 19.3263338,20.3012206 18.5531338,20.3012206 L13.6531338,20.3012206 C13.3728338,20.3002206 13.0995338,20.2135206 12.8698338,20.0527206 L15.0465338,18.8088206 C15.3218338,18.6513206 15.4568338,18.3283206 15.3755338,18.0217206 C15.2942338,17.7151206 15.0168338,17.5015206 14.6996338,17.5012206 L13.6587338,17.5012206 L15.0451338,16.7092206 C15.3206338,16.5519206 15.4559338,16.2291206 15.3749338,15.9224206 C15.2939338,15.6158206 15.0168338,15.4019206 14.6996338,15.4012206 L13.6587338,15.4012206 L15.0451338,14.6092206 C15.3206338,14.4519206 15.4559338,14.1291206 15.3749338,13.8224206 C15.2939338,13.5158206 15.0168338,13.3019206 14.6996338,13.3012206 L12.5338338,13.3012206 C12.5751338,13.0755206 12.6196338,12.8235206 12.6682338,12.5225206 L12.6969338,12.3545206 C12.9013338,11.1508206 13.2107338,9.33222061 12.2090338,7.53147061 C11.9204338,7.08282061 11.8486338,6.52825061 12.0134338,6.02087061 C12.2097338,5.46402061 12.8387338,4.63942061 14.7206338,3.87397061 C14.7427338,3.86522061 14.7556338,3.85892061 14.7749338,3.85122061 L17.4296338,3.85122061 C17.4524338,3.86137061 17.4716338,3.87047061 17.4996338,3.88272061 C19.0081338,4.51727061 19.9146338,5.24597061 20.1908338,6.04887061 C20.3505338,6.54710061 20.2795338,7.09061061 19.9972338,7.53112061 Z" id="Shape" fill="#000000"></path>
            <path d="M16.5592338,7.17417061 C16.2957338,6.94487061 15.9035338,6.94487061 15.6401338,7.17417061 C15.4882338,7.30647061 14.1543338,8.51747061 14.0119338,10.2122206 C13.8852338,11.3513206 14.6709338,12.3909206 15.8014338,12.5799206 C15.8987338,12.5936206 15.9968338,12.6005206 16.0951338,12.6006255 C16.6527338,12.6018206 17.1879338,12.3812206 17.5827338,11.9873206 C17.9775338,11.5935206 18.1994338,11.0589206 18.1996338,10.5013206 C18.1996338,8.66132061 16.7275338,7.32117061 16.5592338,7.17417061 Z M17.0187338,11.5576206 C16.7112338,11.8253206 16.3023338,11.9457206 15.8987338,11.8873206 C15.1371338,11.7486206 14.6159338,11.0397206 14.7108338,10.2713206 C14.8554338,9.27742061 15.3475338,8.36687061 16.0996338,7.70127061 C16.2428338,7.82657061 17.4996338,8.97037061 17.4996338,10.5013206 C17.4997338,10.9064206 17.3243338,11.2916206 17.0187338,11.5576206 Z" id="Shape" fill="#000000"></path>
            <path d="M5.4327438,0.190564608 C5.1239738,-0.0627302922 4.6795538,-0.0636083922 4.3697938,0.188464608 C-0.625415195,4.21416061 -0.0321647952,8.07291061 0.137585805,8.80581061 C0.587673805,10.7208206 2.1330238,12.1850206 4.0694838,12.5312206 C4.3393738,12.5772206 4.6126138,12.6006206 4.8863938,12.6012228 C6.0345638,12.6023206 7.1458838,12.1959206 8.0223938,11.4542206 C9.1545238,10.4931206 9.8048838,9.08133061 9.79972463,7.59621061 C9.79972463,3.82146061 5.8796938,0.551414608 5.4327438,0.190564608 Z M7.5705438,10.9184206 C6.6370638,11.7168206 5.3951738,12.0553206 4.1856838,11.8410206 C2.5270338,11.5436206 1.2039438,10.2886206 0.819385805,8.64796061 C-0.0717147952,4.79796061 4.3067938,1.13801061 4.8093938,0.733414608 C4.8347638,0.712388608 4.8667338,0.700986608 4.8996938,0.701211254 C4.9343938,0.701594608 4.9679038,0.713959608 4.9945438,0.736214608 C5.4138438,1.07466061 9.09972122,4.14696061 9.09972122,7.59621061 C9.1042338,8.87480061 8.5447438,10.0903206 7.5705438,10.9184206 Z" id="Shape" fill="#000000"></path>
            <path d="M4.8997038,10.5012206 C4.7383238,10.5010206 4.5772438,10.4874206 4.4181038,10.4606206 C3.3150038,10.2604206 2.4365938,9.42339061 2.1833538,8.33124061 C2.1574338,8.20705061 2.0663538,8.10662061 1.9452838,8.06872061 C1.8242138,8.03083061 1.6921238,8.06141061 1.6000238,8.14865061 C1.5079338,8.23590061 1.4702538,8.36615061 1.5015538,8.48909061 C1.8206338,9.85495061 2.9211338,10.9004206 4.3015538,11.1491206 C4.4991438,11.1830206 4.6992138,11.2005206 4.8997038,11.2012206 C5.0930038,11.2012206 5.2497038,11.0445206 5.2497038,10.8512206 C5.2497038,10.6579206 5.0930038,10.5012206 4.8997038,10.5012206 Z" id="Path" fill="#000000"></path>
        </g>
    </g>
</svg>