<?xml version="1.0" encoding="UTF-8"?>
<svg width="21px" height="21px" viewBox="0 0 21 21" version="1.1" xmlns="http://www.w3.org/2000/svg" xmlns:xlink="http://www.w3.org/1999/xlink">
    <title>dish</title>
    <g id="Page-1" stroke="none" stroke-width="1" fill="none" fill-rule="evenodd">
        <g id="dish" transform="translate(0.000122, 0.001221)" fill-rule="nonzero">
            <path d="M2.83164538,3.28683837 L3.2773501,3.58397485 L3.82822297,3.96063568 L4.51510889,4.44444522 C5.4410809,5.10585379 6.36721547,5.80265981 7.23296646,6.50350584 C7.8112326,6.97162605 8.34326683,7.42632197 8.8194551,7.86282789 C9.79863416,8.7604087 10.5174098,9.55719094 10.9287465,10.2427521 C11.4974135,11.1905304 11.9521563,12.7310159 12.3230098,14.7212632 C12.5369895,15.869621 12.7093143,17.0972439 12.8439798,18.3244789 L12.8439798,18.3244789 L12.9086501,18.9441706 L12.9721451,19.6324228 L13.0369882,20.5 L12.5,20.5 L9.90194193,20.4902903 L7.40194193,19.9902903 L7.2763932,19.9472136 L5.2763932,18.9472136 L5.18765248,18.8904344 L2.68765248,16.8904344 L2.6,16.8 L1.02314108,14.6975214 L0.5,11 L0.5,7.36721778 L2.83164538,3.28683837 Z" id="Path" fill="#A6B1FB"></path>
            <path d="M14.8709,7.07772 L14.6462,6.33816 C14.3607,5.49808 13.4483,5.04846 12.6082,5.33388 C12.1356,5.49445 11.7645,5.86558 11.6039,6.33816 L11.3792,7.07772 C11.1902,7.70142 11.1505,8.36086 11.2634,9.00272 C11.3664,9.54312 11.7095,10.0074 12.1958,10.2645 L11.9441,15.89 C11.9105,16.204 12.0123,16.5175 12.2241,16.7517 C12.6797,17.25 13.453,17.2847 13.9514,16.8291 C13.9783,16.8045 14.0041,16.7787 14.0288,16.7517 C14.2359,16.5241 14.3375,16.2198 14.3088,15.9135 L14.0557,10.2638 C14.5414,10.0066 14.8839,9.54259 14.9867,9.00272 C15.0996,8.36086 15.0599,7.70142 14.8709,7.07772 Z M14.2972,8.88092 C14.2214,9.26915 13.9448,9.5877 13.5709,9.71707 C13.4291,9.7704 13.3377,9.909 13.3445,10.0604 L13.6105,15.9688 C13.6228,16.0847 13.5845,16.2002 13.5055,16.2859 C13.2948,16.4945 12.9553,16.4945 12.7446,16.2859 C12.6616,16.1933 12.624,16.0687 12.6417,15.9457 L12.9056,10.0604 C12.9124,9.909 12.821,9.7704 12.6791,9.71707 C12.3053,9.5877 12.0287,9.26915 11.9529,8.88092 C11.8593,8.34804 11.8923,7.8006 12.0491,7.28282 L12.2738,6.54292 C12.4477,6.07282 12.9697,5.83268 13.4399,6.00654 C13.6884,6.09846 13.8843,6.29441 13.9763,6.54292 L14.201,7.28282 C14.3577,7.80064 14.3907,8.34804 14.2972,8.88092 Z" id="Shape" fill="#000000"></path>
            <path d="M9.44995,5.25 C9.25666,5.25 9.09995,5.40671 9.09995,5.6 L9.09995,8.6051 L8.1525,9.55255 C8.08241,9.62237 8.04514,9.71867 8.04995,9.8175 L8.3562,15.9425 C8.36351,16.0746 8.31556,16.2038 8.2239,16.2991 C8.03232,16.4924 7.7203,16.4938 7.52696,16.3022 C7.52591,16.3012 7.52491,16.3002 7.5239,16.2991 C7.4322,16.2038 7.38429,16.0746 7.3916,15.9425 L7.69995,9.8175 C7.70485,9.71871 7.66771,9.62246 7.59775,9.55255 L6.64995,8.6051 L6.64995,5.6 C6.64995,5.40671 6.49324,5.25 6.29995,5.25 C6.10666,5.25 5.94995,5.40671 5.94995,5.6 L5.94995,8.75 C5.94995,8.84284 5.98688,8.93183 6.0525,8.99745 L6.9926,9.9379 L6.69405,15.9085 C6.66229,16.5607 7.16524,17.1152 7.81742,17.147 C8.4696,17.1787 9.02409,16.6758 9.05585,16.0236 C9.05773,15.9853 9.05773,15.9469 9.05585,15.9086 L8.7573,9.93794 L9.6974,8.99749 C9.76303,8.93187 9.79995,8.84288 9.79995,8.75004 L9.79995,5.60004 C9.79995,5.40671 9.64324,5.25 9.44995,5.25 Z" id="Path" fill="#000000"></path>
            <path d="M7.35,5.25 C7.15671,5.25 7,5.40671 7,5.6 L7,8.4 C7,8.59329 7.15671,8.75 7.35,8.75 C7.54329,8.75 7.7,8.59329 7.7,8.4 L7.7,5.6 C7.7,5.40671 7.54329,5.25 7.35,5.25 Z" id="Path" fill="#000000"></path>
            <path d="M8.40005,5.25 C8.20676,5.25 8.05005,5.40671 8.05005,5.6 L8.05005,8.4 C8.05005,8.59329 8.20676,8.75 8.40005,8.75 C8.59334,8.75 8.75005,8.59329 8.75005,8.4 L8.75005,5.6 C8.75005,5.40671 8.59334,5.25 8.40005,5.25 Z" id="Path" fill="#000000"></path>
            <path d="M10.5,0 C4.70102,0 0,4.70102 0,10.5 C0,16.299 4.70102,21 10.5,21 C16.299,21 21,16.299 21,10.5 C20.9934,4.70374 16.2963,0.0065625 10.5,0 Z M10.5,20.3 C5.0876,20.3 0.7,15.9124 0.7,10.5 C0.7,5.0876 5.0876,0.7 10.5,0.7 C15.9124,0.7 20.3,5.0876 20.3,10.5 C20.2938,15.9098 15.9098,20.2938 10.5,20.3 Z" id="Shape" fill="#000000"></path>
            <path d="M11.6362,17.0699 C11.6174,16.8776 11.4462,16.7368 11.2538,16.7556 C11.2493,16.756 11.2448,16.7565 11.2403,16.7572 L11.2417,16.7568 C10.7489,16.814 10.2511,16.814 9.75835,16.7568 C9.56629,16.7343 9.39238,16.8717 9.36985,17.0638 C9.34732,17.2558 9.48474,17.4297 9.6768,17.4523 C10.2233,17.5161 10.7753,17.5161 11.3218,17.4523 C11.5142,17.4335 11.6549,17.2623 11.6362,17.0699 Z" id="Path" fill="#000000"></path>
            <path d="M15.855,5.98983 C15.7308,5.84174 15.51,5.82236 15.3619,5.94661 C15.3614,5.947 15.361,5.94744 15.3604,5.94783 C15.2127,6.07243 15.1939,6.2932 15.3184,6.44098 C17.4287,8.94611 17.2673,12.6504 14.9471,14.9624 C14.8101,15.0989 14.8097,15.3206 14.9462,15.4575 C15.0827,15.5945 15.3043,15.5949 15.4413,15.4584 C18.0198,12.8897 18.1996,8.77361 15.855,5.98983 Z" id="Path" fill="#000000"></path>
            <path d="M8.15458,4.62723 C8.15436,4.62723 8.15414,4.62622 8.15393,4.62622 C8.15358,4.62622 8.15323,4.62723 8.15283,4.62723 L8.15458,4.62723 Z" id="Path" fill="#000000"></path>
            <path d="M12.1509,3.6957 C10.7831,3.36788 9.34854,3.45599 8.03109,3.94875 C7.85014,4.01678 7.75866,4.21864 7.82669,4.39955 C7.87797,4.53592 8.00834,4.62617 8.15399,4.6263 C8.19586,4.62608 8.23733,4.61843 8.27644,4.6036 C9.46286,4.15993 10.7547,4.0807 11.9865,4.3761 C12.1744,4.42151 12.3635,4.30605 12.4089,4.11815 C12.4543,3.93024 12.3389,3.74111 12.1509,3.6957 Z" id="Path" fill="#000000"></path>
            <path d="M6.03717,14.945 C4.85727,13.7671 4.19598,12.1673 4.20001,10.5 C4.19655,9.16801 4.61848,7.86969 5.40436,6.79423 C5.52052,6.6397 5.48941,6.4203 5.33489,6.30414 C5.18036,6.18798 4.96096,6.21909 4.8448,6.37362 C4.84274,6.37637 4.84073,6.37913 4.83876,6.38193 C2.81518,9.1639 3.11295,13.0039 5.54121,15.4406 C5.67806,15.5776 5.90005,15.5777 6.03699,15.4408 C6.17393,15.304 6.17402,15.082 6.03717,14.945 Z" id="Path" fill="#000000"></path>
        </g>
    </g>
</svg>