<?xml version="1.0" encoding="UTF-8"?>
<svg width="19px" height="21px" viewBox="0 0 19 21" version="1.1" xmlns="http://www.w3.org/2000/svg" xmlns:xlink="http://www.w3.org/1999/xlink">
    <title>shopping-bag</title>
    <g id="Page-1" stroke="none" stroke-width="1" fill="none" fill-rule="evenodd">
        <g id="shopping-bag" transform="translate(0.601684, 0.001221)" fill-rule="nonzero">
            <path d="M0.398437969,20.5 L0.898437969,6.5 C0.898437969,6.5 6.39843797,9 8.89843797,13 C11.398438,17 10.898438,20.5 10.898438,20.5 L0.398437969,20.5 Z" id="Path" fill="#A6B1FB"></path>
            <path d="M11.893238,2.59493 C11.682238,1.11566 10.394638,0 8.89833797,0 C7.93607797,0 7.02218797,0.464345 6.45398797,1.24256 C6.33792797,1.40127 6.37264797,1.6239 6.53135797,1.73996 C6.68954797,1.85561 6.91269797,1.8213 7.02855797,1.66238 C7.46348797,1.06727 8.16235797,0.711898 8.89823797,0.711898 C10.042538,0.711898 11.027038,1.56467 11.188438,2.69535 C11.213938,2.87293 11.366238,3.00109 11.540538,3.00109 C11.557138,3.00109 11.574238,2.99984 11.591238,2.99754 C11.785738,2.9697 11.921038,2.78941 11.893238,2.59493 Z" id="Path" fill="#000000"></path>
            <path d="M17.033938,6.57943 L15.966138,4.79974 C15.901938,4.69244 15.786038,4.62695 15.660938,4.62695 L14.637638,4.62695 C14.441238,4.62695 14.281738,4.78639 14.281738,4.98285 C14.281738,5.17931 14.441238,5.33875 14.637638,5.33875 L15.459438,5.33875 L16.100138,6.40654 L1.69626797,6.40654 L2.33694797,5.33875 L2.71390797,5.33875 C2.91036797,5.33875 3.06980797,5.17931 3.06980797,4.98285 C3.06980797,4.78639 2.91036797,4.62695 2.71390797,4.62695 L2.13548797,4.62695 C2.01034797,4.62695 1.89449797,4.69244 1.83026797,4.79974 L0.762467969,6.57943 C0.696467969,6.68955 0.694897969,6.82646 0.757987969,6.93804 C0.821077969,7.04962 0.939327969,7.11865 1.06768797,7.11865 L16.728738,7.11865 C16.857038,7.11865 16.975238,7.04962 17.038438,6.93804 C17.101638,6.82646 17.099938,6.68934 17.033938,6.57943 Z" id="Path" fill="#000000"></path>
            <path d="M15.259838,3.29753 C15.209938,3.21713 15.130338,3.16009 15.038438,3.13861 L10.186338,2.00377 C10.094438,1.98218 9.99763797,1.99824 9.91733797,2.04787 C9.83733797,2.09772 9.78013797,2.17728 9.75863797,2.26925 L9.39273797,3.83341 C9.34793797,4.02476 9.46683797,4.21621 9.65823797,4.26084 C9.84963797,4.30568 10.041238,4.1868 10.085938,3.99535 L10.370738,2.77792 L14.529638,3.75072 L13.876138,6.54481 C13.831338,6.73616 13.950138,6.92761 14.141638,6.97224 C14.169038,6.97861 14.196238,6.98163 14.223138,6.98163 C14.384838,6.98163 14.531138,6.87089 14.569138,6.70686 L15.303838,3.56625 C15.325438,3.47438 15.309638,3.37761 15.259838,3.29753 Z" id="Path" fill="#000000"></path>
            <path d="M9.08643797,4.13902 L8.76213797,1.39602 C8.75113797,1.30228 8.70323797,1.21667 8.62903797,1.15827 C8.55473797,1.09988 8.46103797,1.07318 8.36683797,1.08423 L2.41367797,1.78789 C2.21857797,1.81104 2.07905797,1.9879 2.10209797,2.18321 L2.64277797,6.75815 C2.66425797,6.93927 2.81785797,7.07244 2.99585797,7.07244 C3.00972797,7.07244 3.02400797,7.0715 3.03818797,7.06993 C3.23318797,7.04678 3.37270797,6.86993 3.34976797,6.67462 L2.85080797,2.45287 L8.09707797,1.83284 L8.37945797,4.22234 C8.40263797,4.41755 8.57863797,4.55624 8.77473797,4.53413 C8.96983797,4.51119 9.10943797,4.33423 9.08643797,4.13902 Z" id="Path" fill="#000000"></path>
            <path d="M11.901538,6.62731 L11.195038,3.68942 C11.172938,3.59776 11.115238,3.51841 11.034838,3.46908 C10.954438,3.42018 10.858038,3.40485 10.765738,3.42675 L5.03183797,4.8057 C4.84069797,4.85159 4.72306797,5.04387 4.76895797,5.23501 L5.12203797,6.70344 C5.16791797,6.89478 5.36020797,7.01251 5.55123797,6.96632 C5.74237797,6.92044 5.86000797,6.72815 5.81411797,6.53701 L5.54414797,5.41458 L10.585938,4.20225 L11.209238,6.79395 C11.248338,6.95714 11.394338,7.06663 11.555038,7.06663 C11.582638,7.06663 11.610538,7.0634 11.638638,7.05662 C11.829738,7.01064 11.947338,6.81845 11.901538,6.62731 Z" id="Path" fill="#000000"></path>
            <path d="M17.084538,6.74463 C17.074738,6.55547 16.918538,6.40698 16.728938,6.40698 L1.06794797,6.40698 C0.878377969,6.40698 0.722167969,6.55537 0.712367969,6.74463 L0.000467968868,20.626 C-0.00453203113,20.7234 0.0307079689,20.8187 0.0978679689,20.8894 C0.165117969,20.96 0.258347969,21.0001 0.355947969,21.0001 L17.440638,21.0001 C17.538138,21.0001 17.631538,20.9601 17.699038,20.8894 C17.766138,20.8187 17.801338,20.7235 17.796438,20.626 L17.084538,6.74463 Z M0.730507969,20.2882 L1.40590797,7.11878 L16.390638,7.11878 L17.066038,20.2882 L0.730507969,20.2882 Z" id="Shape" fill="#000000"></path>
            <path d="M11.567838,7.83057 C10.978938,7.83057 10.500038,8.30951 10.500038,8.89836 C10.500038,9.48721 10.978938,9.96616 11.567838,9.96616 C12.156638,9.96616 12.635638,9.48721 12.635638,8.89836 C12.635638,8.30951 12.156638,7.83057 11.567838,7.83057 Z M11.567838,9.25436 C11.371438,9.25436 11.211938,9.09471 11.211938,8.898465 C11.211938,8.70222 11.371538,8.54257 11.567838,8.54257 C11.764038,8.54257 11.923738,8.70222 11.923738,8.898465 C11.923738,9.09471 11.764038,9.25436 11.567838,9.25436 Z" id="Shape" fill="#000000"></path>
            <path d="M6.22880797,7.83057 C5.63995797,7.83057 5.16100797,8.30951 5.16100797,8.89836 C5.16100797,9.48721 5.63995797,9.96616 6.22880797,9.96616 C6.81765797,9.96616 7.29659797,9.48721 7.29659797,8.89836 C7.29659797,8.30951 6.81765797,7.83057 6.22880797,7.83057 Z M6.22880297,9.25436 C6.03255797,9.25436 5.87290797,9.09471 5.87290797,8.898465 C5.87290797,8.70222 6.03255797,8.54257 6.22880297,8.54257 C6.42505797,8.54257 6.58469797,8.70222 6.58469797,8.898465 C6.58469797,9.09471 6.42505797,9.25436 6.22880297,9.25436 Z" id="Shape" fill="#000000"></path>
            <path d="M11.567838,8.89819 L11.540338,8.89819 C11.343938,8.89819 11.184438,9.05763 11.184438,9.25409 C11.184438,9.30268 11.194038,9.34909 11.211938,9.39132 L11.211938,11.2117 C11.211938,12.4873 10.174038,13.5253 8.89833797,13.5253 C7.62258797,13.5253 6.58471797,12.4874 6.58471797,11.2117 L6.58471797,9.25419 C6.58471797,9.05774 6.42527797,8.8983 6.22881797,8.8983 C6.03236797,8.8983 5.87292797,9.05774 5.87292797,9.25419 L5.87292797,11.2118 C5.87292797,12.88 7.23008797,14.2372 8.89833797,14.2372 C10.566538,14.2372 11.923738,12.88 11.923738,11.2118 L11.923738,9.25419 C11.923738,9.05774 11.764238,8.89819 11.567838,8.89819 Z" id="Path" fill="#000000"></path>
        </g>
    </g>
</svg>