<svg width="21" height="21" viewBox="0 0 21 21" fill="none" xmlns="http://www.w3.org/2000/svg">
<g clip-path="url(#clip0_1_31258)">
<path d="M9.00042 12.5C11.5004 6.99998 19.5004 9.99998 19.5004 9.99998V13.5L20.0004 19L19.0004 20.5H13.0004C13.0004 20.5 6.50042 18 9.00042 12.5Z" fill="#A6B1FB" stroke="#A6B1FB"/>
<path d="M20.8537 5.8191C20.5146 4.837 19.5027 3.9809 17.8525 3.2725V2.45C17.8506 2.00663 17.5705 1.61219 17.1525 1.4644V0.7C17.1525 0.313401 16.8391 0 16.4525 0H15.7525C15.3659 0 15.0525 0.313401 15.0525 0.7V1.4644C14.6345 1.61219 14.3543 2.00663 14.3525 2.45V3.27075C12.7124 3.95605 11.7009 4.80165 11.3537 5.78725C11.1216 6.48342 11.2114 7.24679 11.5987 7.8701C12.481 9.4563 12.2077 11.0625 12.0082 12.2357L11.9791 12.4075C11.9217 12.7603 11.8703 13.0484 11.8237 13.3H0.700035C0.382668 13.3006 0.105398 13.5146 0.0244527 13.8215C-0.0564929 14.1283 0.0791425 14.4513 0.354935 14.6083L1.74059 15.4H0.700035C0.382668 15.4006 0.105398 15.6146 0.0244527 15.9215C-0.0564929 16.2283 0.0791425 16.5513 0.354935 16.7083L1.74059 17.5H0.700035C0.382769 17.5002 0.105294 17.7137 0.0238734 18.0204C-0.0575473 18.327 0.0774479 18.6501 0.352835 18.8076L4.02784 20.9076C4.13356 20.9681 4.25323 20.9999 4.37503 21H11.025C11.1468 20.9997 11.2664 20.9679 11.3722 20.9076L12.215 20.4253C12.6019 20.7961 13.1177 21.0021 13.6535 21H18.5535C19.7128 20.9987 20.6522 20.0592 20.6535 18.9V16.1C20.6751 15.2014 20.5929 14.3033 20.4085 13.4236C20.3571 13.1436 20.2972 12.8198 20.2293 12.4058L20.2003 12.2346C20.0015 11.0618 19.7281 9.45595 20.6101 7.8701C20.9899 7.25585 21.0791 6.50522 20.8537 5.8191ZM15.7525 0.7H16.4525V1.4H15.7525V0.7ZM15.0525 2.45C15.0525 2.2567 15.2092 2.1 15.4025 2.1H16.8025C16.9958 2.1 17.1525 2.2567 17.1525 2.45V3.15H15.0525V2.45ZM0.700035 14H14.6979L12.2479 15.4H3.15179L0.700035 14ZM0.700035 16.1H14.6979L12.2479 17.5H3.15179L0.700035 16.1ZM11.025 20.3H4.37503L0.700035 18.2H14.7L11.025 20.3ZM19.9976 7.5299C18.9963 9.3303 19.305 11.1489 19.5076 12.3519L19.5363 12.5202C19.6063 12.9402 19.6651 13.2671 19.7176 13.5499C19.8951 14.3879 19.9743 15.2437 19.9535 16.1V18.9C19.9535 19.6732 19.3267 20.3 18.5535 20.3H13.6535C13.3732 20.299 13.0999 20.2123 12.8702 20.0515L15.0469 18.8076C15.3222 18.6501 15.4572 18.3271 15.3759 18.0205C15.2946 17.7139 15.0172 17.5003 14.7 17.5H13.6591L15.0455 16.708C15.321 16.5507 15.4563 16.2279 15.3753 15.9212C15.2943 15.6146 15.0172 15.4007 14.7 15.4H13.6591L15.0455 14.608C15.321 14.4507 15.4563 14.1279 15.3753 13.8212C15.2943 13.5146 15.0172 13.3007 14.7 13.3H12.5342C12.5755 13.0743 12.62 12.8223 12.6686 12.5213L12.6973 12.3533C12.9017 11.1496 13.2111 9.331 12.2094 7.53025C11.9208 7.0816 11.849 6.52703 12.0138 6.01965C12.2101 5.4628 12.8391 4.6382 14.721 3.87275C14.7431 3.864 14.756 3.8577 14.7753 3.85H17.43C17.4528 3.86015 17.472 3.86925 17.5 3.8815C19.0085 4.51605 19.915 5.24475 20.1912 6.04765C20.3509 6.54588 20.2799 7.08939 19.9976 7.5299Z" fill="black"/>
<path d="M16.5596 7.17295C16.2961 6.94365 15.9039 6.94365 15.6405 7.17295C15.4886 7.30525 14.1547 8.51625 14.0123 10.211C13.8856 11.3501 14.6713 12.3897 15.8018 12.5787C15.8991 12.5924 15.9972 12.5993 16.0955 12.5994C16.6531 12.6006 17.1883 12.38 17.5831 11.9861C17.9779 11.5923 18.1998 11.0577 18.2 10.5001C18.2 8.6601 16.7279 7.31995 16.5596 7.17295ZM17.0191 11.5564C16.7116 11.8241 16.3027 11.9445 15.8991 11.8861C15.1375 11.7474 14.6163 11.0385 14.7112 10.2701C14.8558 9.2762 15.3479 8.36565 16.1 7.70005C16.2432 7.82535 17.5 8.96915 17.5 10.5001C17.5001 10.9052 17.3247 11.2904 17.0191 11.5564Z" fill="black"/>
<path d="M5.43311 0.189344C5.12434 -0.0639509 4.67992 -0.064829 4.37016 0.187244C-0.625049 4.21294 -0.0317986 8.07169 0.137952 8.80459C0.58804 10.7196 2.13339 12.1838 4.06985 12.53C4.33974 12.576 4.61298 12.5994 4.88676 12.6C6.03493 12.6011 7.14625 12.1947 8.02276 11.453C9.15489 10.4919 9.80525 9.08011 9.80006 7.59499C9.80006 3.82024 5.88006 0.550194 5.43311 0.189344ZM7.57091 10.9172C6.63743 11.7156 5.39554 12.0541 4.18605 11.8398C2.5274 11.5424 1.20431 10.2874 0.819752 8.64674C-0.0713486 4.79674 4.30716 1.13679 4.80976 0.732194C4.83513 0.711168 4.8671 0.699766 4.90006 0.699994C4.93476 0.700374 4.96827 0.712739 4.99491 0.734994C5.41421 1.07344 9.10006 4.14574 9.10006 7.59499C9.1046 8.87358 8.54511 10.0891 7.57091 10.9172Z" fill="black"/>
<path d="M4.90007 10.5C4.73869 10.4998 4.57761 10.4862 4.41847 10.4594C3.31537 10.2592 2.43696 9.42217 2.18372 8.33002C2.1578 8.20583 2.06672 8.1054 1.94565 8.0675C1.82458 8.02961 1.69249 8.06019 1.60039 8.14743C1.5083 8.23468 1.47062 8.36493 1.50192 8.48787C1.821 9.85373 2.9215 10.8992 4.30192 11.1479C4.49951 11.1818 4.69958 11.1993 4.90007 11.2C5.09337 11.2 5.25007 11.0433 5.25007 10.85C5.25007 10.6567 5.09337 10.5 4.90007 10.5Z" fill="black"/>
</g>
<defs>
<clipPath id="clip0_1_31258">
<rect width="21" height="21" fill="white"/>
</clipPath>
</defs>
</svg>
