<svg width="21" height="21" viewBox="0 0 21 21" fill="none" xmlns="http://www.w3.org/2000/svg">
<g clip-path="url(#clip0_1_31308)">
<path d="M7.99947 11.5C10.9995 7.5 16.4995 9.5 16.4995 9.5L15.9995 18L13.4995 20.5H9.99947C9.99947 20.5 4.99947 15.5 7.99947 11.5Z" fill="#A6B1FB" stroke="#A6B1FB"/>
<path d="M20.9007 7.55079L17.5136 4.16372C17.4649 4.11512 17.4025 4.08252 17.3348 4.07024L13.609 3.39283C13.425 3.35934 13.2486 3.4814 13.2151 3.66544C13.2115 3.68534 13.2097 3.70554 13.2097 3.72577C13.2087 3.8334 13.199 3.94077 13.1809 4.04687L10.8387 3.46158V3.3532C11.7551 3.16615 12.3464 2.27158 12.1593 1.35516C11.9723 0.438751 11.0777 -0.152505 10.1613 0.0345463C9.37292 0.195474 8.80665 0.888892 8.80648 1.69353H9.48389C9.48389 1.13234 9.93882 0.677412 10.5 0.677412C11.0612 0.677412 11.5161 1.13234 11.5161 1.69353C11.5161 2.25473 11.0612 2.70965 10.5 2.70965C10.313 2.70965 10.1613 2.86131 10.1613 3.04836V3.46124L7.81915 4.04687C7.80098 3.94077 7.79133 3.8334 7.79036 3.72577C7.7904 3.62531 7.74586 3.53004 7.66876 3.46565C7.59209 3.40036 7.48984 3.37356 7.39102 3.39283L3.66525 4.07024C3.5975 4.08252 3.53514 4.11512 3.48641 4.16372L0.0993385 7.55079C-0.0328843 7.68306 -0.0328843 7.89746 0.0993385 8.02972L2.80899 10.7394C2.94126 10.8716 3.15566 10.8716 3.28793 10.7394L4.06458 9.96272V12.1934H1.69363C0.76113 12.1907 0.00301867 12.9445 0.00030901 13.877C-0.00125751 14.4156 0.254212 14.9226 0.688011 15.2418C-0.0602349 15.7885 -0.223619 16.8383 0.323139 17.5866C0.425217 17.7263 0.548295 17.8493 0.688011 17.9514C-0.0630292 18.5041 -0.22383 19.561 0.328855 20.3121C0.648086 20.7458 1.15509 21.0013 1.69363 20.9998H13.8871C13.9769 20.9998 14.063 20.9641 14.1265 20.9005L16.8362 18.1909C16.8989 18.1271 16.9335 18.0409 16.9324 17.9514H16.9354V9.96272L17.7121 10.7394C17.8444 10.8716 18.0588 10.8716 18.191 10.7394L20.9007 8.02972C21.0329 7.89746 21.0329 7.68301 20.9007 7.55079ZM10.5 4.07464L12.9631 4.69041C12.4526 5.56059 11.5085 6.08339 10.5 6.05439C9.49156 6.08339 8.54745 5.56059 8.03694 4.69041L10.5 4.07464ZM0.677511 13.887C0.677511 13.3258 1.13244 12.8709 1.69363 12.8709H9.14519C9.70638 12.8709 10.1613 13.3258 10.1613 13.887C10.1613 14.4482 9.70638 14.9031 9.14519 14.9031H1.69363C1.13244 14.9031 0.677511 14.4481 0.677511 13.887ZM0.677511 16.5966C0.677511 16.0354 1.13244 15.5805 1.69363 15.5805H9.14519C9.70638 15.5805 10.1613 16.0354 10.1613 16.5966C10.1613 17.1578 9.70638 17.6128 9.14519 17.6128H1.69363C1.13244 17.6128 0.677511 17.1578 0.677511 16.5966ZM9.14519 20.3224H8.46777H1.69363C1.13244 20.3224 0.677511 19.8675 0.677511 19.3063C0.677511 18.7451 1.13244 18.2902 1.69363 18.2902H9.14519C9.70638 18.2902 10.1613 18.7451 10.1613 19.3063C10.1613 19.8675 9.70638 20.3224 9.14519 20.3224ZM14.2258 19.8435V18.2902H15.7791L14.2258 19.8435ZM17.9516 10.021L15.8201 7.8895L15.3412 8.36843L16.258 9.28531V17.6128H13.8871C13.7 17.6128 13.5484 17.7644 13.5484 17.9515V20.3224H10.4912C11.0549 19.5921 10.9199 18.5431 10.1896 17.9793C10.1774 17.9698 10.165 17.9606 10.1525 17.9515C10.9007 17.4048 11.0641 16.355 10.5174 15.6067C10.4153 15.467 10.2923 15.3439 10.1525 15.2418C10.9036 14.6891 11.0644 13.6322 10.5117 12.8812C10.1921 12.4469 9.68432 12.1914 9.14519 12.1934H4.74199V9.28531L5.65887 8.36843L5.17994 7.8895L3.04846 10.021L0.817736 7.79026L3.89049 4.71751L7.14207 4.12647C7.36359 5.5951 8.7848 6.7318 10.4993 6.7318C12.2139 6.7318 13.6351 5.5951 13.8566 4.12647L17.1082 4.71751L20.1823 7.79026L17.9516 10.021Z" fill="black"/>
<path d="M9.48407 13.5483H1.3551V14.2258H9.48407V13.5483Z" fill="black"/>
<path d="M9.14536 16.2578H1.3551V16.9352H9.14536V16.2578Z" fill="black"/>
<path d="M9.14536 18.9675H1.3551V19.6449H9.14536V18.9675Z" fill="black"/>
</g>
<defs>
<clipPath id="clip0_1_31308">
<rect width="21" height="21" fill="white"/>
</clipPath>
</defs>
</svg>
