<svg width="21" height="21" viewBox="0 0 21 21" fill="none" xmlns="http://www.w3.org/2000/svg">
<g clip-path="url(#clip0_1_31325)">
<path d="M9.19539 4.76101C9.3051 4.76101 9.40852 4.70922 9.47407 4.62125C9.5398 4.53327 9.56018 4.41966 9.52893 4.31437C9.27962 3.46302 8.84877 2.67587 8.26575 2.00743C7.79601 1.50762 7.09683 1.29364 6.42787 1.44496C6.33549 1.48028 6.26263 1.55331 6.22731 1.64569C6.20812 1.69766 6.19385 1.75133 6.18485 1.80601C6.17415 1.87089 6.16838 1.93644 6.16736 2.00216V2.00777C6.1716 2.56242 6.3951 3.09297 6.78927 3.4834C7.45771 4.06591 8.24435 4.49659 9.09519 4.74573C9.1278 4.75541 9.16142 4.76067 9.19539 4.76101ZM7.28245 2.9909C7.14438 2.85266 7.03603 2.68742 6.96385 2.5057V2.5023C6.94857 2.46375 6.93532 2.42503 6.92394 2.38784C6.918 2.36763 6.91375 2.34861 6.90866 2.32874C6.90339 2.30887 6.89881 2.29393 6.89541 2.2766C6.89184 2.25911 6.89116 2.25215 6.88879 2.23975C6.8786 2.18778 6.87146 2.13531 6.86756 2.08249C7.21061 2.10847 7.53277 2.25656 7.77597 2.49993C8.12174 2.89087 8.40042 3.33633 8.60065 3.81847C8.118 3.61756 7.67186 3.33786 7.28075 2.9909H7.28245Z" fill="black"/>
<path d="M3 21L2 19.4483V8.90618L1 8.58621V6C1 6 7.5 7.55172 10.5 10.6552C13.5 13.7586 14 21 14 21H3Z" fill="#A6B1FB"/>
<path d="M19.8695 5.00021H14.5007C14.7329 4.84159 14.951 4.6631 15.1522 4.46695C16.3964 3.21906 16.4371 1.32701 15.6423 0.532215C14.8475 -0.262579 12.9562 -0.2225 11.7069 1.02302C11.1961 1.57903 10.781 2.21589 10.4787 2.90776C10.1764 2.21538 9.76102 1.57818 9.24967 1.022C8.00178 -0.22216 6.10989 -0.262919 5.31493 0.531875C4.5198 1.32667 4.5609 3.21872 5.80522 4.46695C6.00664 4.6631 6.2247 4.84159 6.45668 5.00021H1.08792C0.895844 5.00021 0.740112 5.15594 0.740112 5.34802V8.82609C0.740112 9.01817 0.895844 9.1739 1.08792 9.1739H1.78353V19.2603C1.78472 20.2202 2.5627 20.9982 3.52257 20.9993H17.4349C18.3949 20.9982 19.1729 20.2202 19.1739 19.2603V9.1739H19.8695C20.0616 9.1739 20.2173 9.01817 20.2173 8.82609V5.34802C20.2173 5.15594 20.0616 5.00021 19.8695 5.00021ZM12.1991 1.5145C13.1987 0.517949 14.6566 0.529497 15.1508 1.0237C15.645 1.51789 15.6569 2.97519 14.6604 3.97513C14.2041 4.39698 13.683 4.74292 13.1172 5.00021H11.0388C11.0388 4.99291 11.0388 4.98493 11.0388 4.97762C11.0388 4.89832 11.0329 4.81799 11.0252 4.73715C11.0223 4.71049 11.0193 4.68399 11.0162 4.65682C11.0082 4.59008 10.9984 4.52351 10.9865 4.45727C10.9828 4.43401 10.9789 4.41057 10.9748 4.38764C10.9581 4.30103 10.94 4.21578 10.9191 4.13341C10.9164 4.12152 10.9131 4.11116 10.9104 4.0986C10.8919 4.02659 10.8729 3.95951 10.8534 3.89005C10.8506 3.88054 10.8481 3.87018 10.8454 3.86067C11.1303 2.99387 11.5913 2.195 12.1991 1.5145ZM11.8699 8.47828H9.08748V5.69583H11.8699V8.47828ZM6.29738 3.97547C5.30067 2.97553 5.31238 1.51823 5.80675 1.0237C6.30095 0.529158 7.75824 0.517609 8.75751 1.51348C9.39029 2.22234 9.86462 3.05823 10.1487 3.96511C10.188 4.08722 10.2182 4.2044 10.2467 4.31818C10.2547 4.35079 10.2613 4.38238 10.2683 4.41448C10.2871 4.49939 10.3023 4.5804 10.3136 4.65801C10.3174 4.68433 10.3223 4.7115 10.3254 4.73715C10.3364 4.82393 10.3423 4.91139 10.3432 4.99885H7.84027C7.27474 4.74207 6.75388 4.39664 6.29738 3.97547ZM1.43573 5.69583H8.39187V8.47828H1.43573V5.69583ZM2.47915 19.2603V9.1739H9.08748V20.3037H3.52257C2.94634 20.3037 2.47915 19.8365 2.47915 19.2603ZM9.7831 20.3037V9.1739H11.1743V20.3037H9.7831ZM18.4783 19.2603C18.4783 19.8365 18.0112 20.3037 17.4349 20.3037H11.8699V9.1739H18.4783V19.2603ZM19.5217 8.47828H12.5656V5.69583H19.5217V8.47828Z" fill="black"/>
<path d="M11.7612 4.76192C11.7946 4.76192 11.8279 4.75717 11.86 4.74766C12.7119 4.49869 13.4993 4.06716 14.1676 3.48295C14.6625 3.00964 14.8758 2.31335 14.7311 1.64406C14.6961 1.55201 14.6233 1.47933 14.5312 1.44417C13.8619 1.29948 13.1656 1.51278 12.6923 2.00766C12.1083 2.67593 11.6768 3.46342 11.4276 4.31528C11.3965 4.42057 11.4168 4.53436 11.4825 4.62216C11.5482 4.71013 11.6515 4.76192 11.7612 4.76192ZM13.1841 2.49948C13.4277 2.25629 13.7502 2.10837 14.0932 2.08204C14.0672 2.42527 13.9191 2.74794 13.676 2.99147C13.2847 3.33962 12.8379 3.61983 12.3542 3.82074C12.5553 3.33707 12.8358 2.89059 13.1841 2.49948Z" fill="black"/>
</g>
<defs>
<clipPath id="clip0_1_31325">
<rect width="21" height="21" fill="white"/>
</clipPath>
</defs>
</svg>
