<svg width="21" height="21" viewBox="0 0 21 21" fill="none" xmlns="http://www.w3.org/2000/svg">
<path d="M0.500122 19.5V6.5C0.500122 6.5 6.00012 8 9.00012 11C12.0001 14 12.5001 21 12.5001 21H1.50012L0.500122 19.5Z" fill="#A6B1FB"/>
<path d="M12.2497 0H7.34974C6.38481 0 5.59973 0.785039 5.59973 1.75001V14.35C5.59973 14.5432 5.75616 14.7 5.94972 14.7H8.04972C8.24327 14.7 8.3997 14.5432 8.3997 14.35C8.3997 14.1568 8.24327 14 8.04972 14H6.2997V13.3H6.64969C6.84324 13.3 6.99968 13.1432 6.99968 12.95C6.99968 12.7568 6.84324 12.6 6.64969 12.6H6.2997V11.9H6.64969C6.84324 11.9 6.99968 11.7432 6.99968 11.55C6.99968 11.3569 6.84324 11.2001 6.64969 11.2001H6.2997V10.5H6.64969C6.84324 10.5 6.99968 10.3432 6.99968 10.15C6.99968 9.95683 6.84324 9.80003 6.64969 9.80003H6.2997V9.10001H8.04972C8.24327 9.10001 8.3997 8.94321 8.3997 8.75003C8.3997 8.55684 8.24327 8.40004 8.04972 8.40004H6.2997V7.70003H6.64969C6.84324 7.70003 6.99968 7.54322 6.99968 7.35004C6.99968 7.15686 6.84324 7.00005 6.64969 7.00005H6.2997V6.3H6.64969C6.84324 6.3 6.99968 6.1432 6.99968 5.95001C6.99968 5.75683 6.84324 5.60003 6.64969 5.60003H6.2997V4.90001H6.64969C6.84324 4.90001 6.99968 4.74321 6.99968 4.55003C6.99968 4.35684 6.84324 4.20004 6.64969 4.20004H6.2997V3.49999H8.04972C8.24327 3.49999 8.3997 3.34318 8.3997 3.15C8.3997 2.95682 8.24327 2.80001 8.04972 2.80001H6.2997V1.75001C6.2997 1.17112 6.77081 0.700014 7.3497 0.700014H12.2497C12.8286 0.700014 13.2997 1.17112 13.2997 1.75001V19.25C13.2997 19.8289 12.8286 20.3 12.2497 20.3H7.34974C6.77085 20.3 6.29974 19.8289 6.29974 19.25V15.75C6.29974 15.5568 6.14331 15.4 5.94976 15.4C5.75621 15.4 5.59977 15.5568 5.59977 15.75V19.25C5.59977 20.2149 6.38481 21 7.34979 21H12.2498C13.2147 21 13.9998 20.215 13.9998 19.25V1.75001C13.9997 0.785039 13.2147 0 12.2497 0Z" fill="black"/>
<path d="M1.40015 4.54969V17.1497C1.40015 17.3429 1.55658 17.4997 1.75013 17.4997C1.94369 17.4997 2.10012 17.3429 2.10012 17.1497V4.54969C2.10012 4.35651 1.94369 4.19971 1.75013 4.19971C1.55658 4.19971 1.40015 4.35647 1.40015 4.54969Z" fill="black"/>
<path d="M2.06304 0.193124C1.94439 -0.0441924 1.55589 -0.0441924 1.4369 0.193124L0.0368721 2.99314C0.0127139 3.04145 0.00012207 3.09535 0.00012207 3.14957V19.2496C0.00012207 20.2145 0.785161 20.9996 1.75014 20.9996C2.71507 20.9996 3.50015 20.2145 3.50015 19.2496V18.5495C3.50015 18.3564 3.34372 18.1996 3.15016 18.1996H1.75014C1.55658 18.1996 1.40015 18.3564 1.40015 18.5495C1.40015 18.7427 1.55658 18.8995 1.75014 18.8995H2.80014V19.2495C2.80014 19.8284 2.32903 20.2995 1.75014 20.2995C1.17124 20.2995 0.700136 19.8284 0.700136 19.2495V3.23218L1.75014 1.13218L2.58382 2.79959H1.75014C1.55658 2.79959 1.40015 2.95639 1.40015 3.14957C1.40015 3.34276 1.55658 3.49956 1.75014 3.49956H2.80014V17.1496C2.80014 17.3427 2.95657 17.4995 3.15012 17.4995C3.34367 17.4995 3.50011 17.3427 3.50011 17.1496V3.15031V3.14399C3.49904 3.08731 3.48473 3.03374 3.4602 2.98686L2.06304 0.193124Z" fill="black"/>
<path d="M11.1998 17.5001C11.1998 16.728 10.5718 16.1001 9.79977 16.1001C9.02769 16.1001 8.39978 16.728 8.39978 17.5001C8.39978 18.2722 9.02769 18.9001 9.79977 18.9001C10.5718 18.9001 11.1998 18.2722 11.1998 17.5001ZM9.09975 17.5001C9.09975 17.114 9.41369 16.8001 9.79977 16.8001C10.1855 16.8001 10.4998 17.114 10.4998 17.5001C10.4998 17.8862 10.1855 18.2001 9.79977 18.2001C9.41373 18.2001 9.09975 17.8861 9.09975 17.5001Z" fill="black"/>
<path d="M17.8497 16.8001C17.6562 16.8001 17.4998 16.9569 17.4998 17.1501C17.4998 17.3432 17.6562 17.5 17.8497 17.5H20.6498C20.8433 17.5 20.9997 17.3432 20.9997 17.1501V15.0501C20.9997 14.0851 20.2147 13.3 19.2497 13.3H17.8497C16.8848 13.3 16.0997 14.0851 16.0997 15.0501V19.2501C16.0997 20.215 16.8848 21.0001 17.8497 21.0001H19.2497C20.2147 21.0001 20.9997 20.215 20.9997 19.2501V18.55C20.9997 18.3569 20.8433 18.2001 20.6498 18.2001C20.4562 18.2001 20.2998 18.3569 20.2998 18.55V19.2501C20.2998 19.829 19.8287 20.3001 19.2498 20.3001H17.8498C17.2709 20.3001 16.7998 19.829 16.7998 19.2501V15.0501C16.7998 14.4712 17.2709 14.0001 17.8498 14.0001H19.2498C19.8287 14.0001 20.2998 14.4712 20.2998 15.0501V16.8001H17.8497Z" fill="black"/>
</svg>
