<svg width="21" height="21" viewBox="0 0 21 21" fill="none" xmlns="http://www.w3.org/2000/svg">
<g clip-path="url(#clip0_1_31413)">
<path d="M7.88969 11.9504C7.72973 11.79 7.46969 11.79 7.30973 11.9504C7.14936 12.1103 7.14936 12.3699 7.30973 12.5303C7.46969 12.6903 7.72973 12.6903 7.88969 12.5303C8.05006 12.3699 8.05006 12.1103 7.88969 11.9504Z" fill="black"/>
<path d="M7.99995 7.50014C3.99977 11.0002 7.00029 15.5001 7.00029 15.5001L9.50012 14.5001L12.5001 11.5001L16.5002 7.50012C16.5002 7.50012 12.0001 4.00012 7.99995 7.50014Z" fill="#A6B1FB" stroke="#A6B1FB"/>
<path d="M20.6395 2.68121L18.3188 0.360713C17.8439 -0.113181 17.0675 -0.12606 16.5793 0.361041C16.0984 0.841909 16.0984 1.62006 16.5793 2.10101L16.8693 2.39099L14.9001 4.36039C14.7657 4.22599 13.5812 3.04141 13.4499 2.91012C13.2897 2.75004 13.03 2.75 12.8699 2.91012C12.7097 3.07029 12.7097 3.33 12.8699 3.49021L13.1598 3.78015C13.0132 3.92669 6.18076 10.7596 5.66396 11.2764C4.97244 11.9679 4.70772 12.9185 4.86813 13.8126L4.11972 14.561C3.64004 15.0407 3.64004 15.8211 4.11968 16.3009L0.120247 20.3002C-0.0399194 20.4604 -0.0399194 20.7201 0.120247 20.8803C0.280454 21.0405 0.540124 21.0405 0.700331 20.8803L4.69968 16.8809C5.17936 17.3606 5.95989 17.3606 6.43961 16.8809L7.18814 16.1324C8.12084 16.2989 9.06863 15.9922 9.72406 15.3367C11.346 13.7148 15.5711 9.48997 17.2204 7.84073L17.5103 8.13067C17.6705 8.29084 17.9302 8.29084 18.0904 8.13067C18.2505 7.97051 18.2506 7.7108 18.0904 7.55059C17.9591 7.4193 16.7757 6.23587 16.6401 6.10032L18.6096 4.13124L18.8991 4.42081C19.3799 4.90282 20.1601 4.90184 20.6395 4.42122C21.1203 3.94039 21.1204 3.1622 20.6395 2.68121ZM5.85956 16.3008C5.69968 16.4607 5.43952 16.4607 5.27968 16.3008C4.57278 15.5939 4.74476 15.7658 4.69972 15.7208C4.5398 15.561 4.5398 15.3009 4.69968 15.141L5.16878 14.6719C5.29281 14.901 5.44822 15.1123 5.62869 15.2992C5.8329 15.5108 6.06924 15.6913 6.32862 15.8317L5.85956 16.3008ZM11.0801 12.8207L10.7901 12.5307C10.6299 12.3706 10.3702 12.3706 10.21 12.5307C10.0499 12.6909 10.0499 12.9506 10.21 13.1108L10.5 13.4007L9.92003 13.9807L9.04972 13.1106C8.88955 12.9505 8.62984 12.9505 8.46968 13.1107C8.30951 13.2709 8.30959 13.5306 8.46976 13.6908L9.33994 14.5607L9.14397 14.7566C8.33724 15.5634 7.01391 15.5598 6.21361 14.7251C5.45433 13.9332 5.4412 12.6592 6.24396 11.8565L8.75982 9.34031L11.6602 12.2406L11.0801 12.8207ZM16.6403 7.26065L15.7205 8.18038L14.8501 7.31024C14.6899 7.15011 14.4302 7.15015 14.2701 7.31032C14.1099 7.47053 14.11 7.73024 14.2701 7.8904L15.1405 8.76043L14.5602 9.34063L14.2701 9.05057C14.1099 8.89049 13.8503 8.89045 13.6901 9.05057C13.5299 9.21074 13.5299 9.47045 13.6901 9.63066L13.9801 9.92072L13.4002 10.5006L12.5303 9.63057C12.3701 9.47045 12.1104 9.47045 11.9502 9.63057C11.7901 9.79074 11.7901 10.0505 11.9502 10.2107L12.8202 11.0806L12.2401 11.6606L9.33974 8.76034L13.7398 4.36027L16.6403 7.26065ZM16.0601 5.52032L15.4801 4.9404L17.4493 2.97099L18.0295 3.55124L16.0601 5.52032ZM20.059 3.8415C19.9018 3.99917 19.6418 4.00372 19.4796 3.84109C19.2826 3.64414 17.4716 1.83313 17.1593 1.52084C16.9985 1.3601 16.9996 1.10076 17.1589 0.941412C17.3209 0.779811 17.5791 0.781369 17.7392 0.941043L20.0594 3.26126C20.2188 3.4206 20.2207 3.67978 20.059 3.8415Z" fill="black"/>
</g>
<defs>
<clipPath id="clip0_1_31413">
<rect width="21" height="21" fill="white"/>
</clipPath>
</defs>
</svg>
